<?xml version="1.0" standalone="no"?>
<!DOCTYPE svg PUBLIC "-//W3C//DTD SVG 1.1//EN" "http://www.w3.org/Graphics/SVG/1.1/DTD/svg11.dtd" >
<svg xmlns="http://www.w3.org/2000/svg" xmlns:xlink="http://www.w3.org/1999/xlink" version="1.1">
<metadata>
Created by FontForge 20160407 at Mon Jun 20 13:40:40 2016
 By Jimmy Wärting
Copyright (c) 2011-12 by vernon adams. All rights reserved.
</metadata>
<defs>
<font id="Oswald-Bold" horiz-adv-x="1248" >
  <font-face 
    font-family="Oswald"
    font-weight="700"
    font-stretch="normal"
    units-per-em="2048"
    panose-1="2 0 8 3 0 0 0 0 0 0"
    ascent="1638"
    descent="-410"
    x-height="1305"
    cap-height="1800"
    bbox="-187 -704 2075 2415"
    underline-thickness="102"
    underline-position="-307"
    unicode-range="U+000D-FB04"
  />
<missing-glyph horiz-adv-x="748" 
d="M68 0v1365h544v-1365h-544zM136 68h408v1229h-408v-1229z" />
    <glyph glyph-name="uniFB00" unicode="ff" horiz-adv-x="1279" 
d="M141 0v1080h-76v225h76q0 5 0.5 14.5t0.5 14.5q2 68 8.5 120.5t25.5 107.5t49.5 91t83 59t123.5 23q42 0 95 -3.5t85 -7.5l32 -3v-252q-69 6 -88 6q-42 0 -60 -23.5t-18 -85.5v-61h282q0 5 0.5 14.5t0.5 14.5q2 68 8.5 120.5t25.5 107.5t49.5 91t83 59t123.5 23
q42 0 95 -3.5t85 -7.5l32 -3v-252q-69 6 -88 6q-42 0 -60 -23.5t-18 -85.5v-61h163v-225h-163v-1080h-337v1080h-282v-1080h-337z" />
    <glyph glyph-name="uniFB01" unicode="fi" horiz-adv-x="1198" 
d="M765 1419v315h337v-315h-337zM141 0v1080h-76v225h76q0 5 0.5 14.5t0.5 14.5q2 68 8.5 120.5t25.5 107.5t49.5 91t83 59t123.5 23q42 0 95 -3.5t85 -7.5l32 -3v-252q-69 6 -88 6q-42 0 -60 -23.5t-18 -85.5v-61h624v-1305h-337v1080h-287v-1080h-337z" />
    <glyph glyph-name="uniFB02" unicode="fl" horiz-adv-x="1189" 
d="M756 0v1470q-145 5 -200 5q-42 0 -60 -23.5t-18 -85.5v-61h163v-225h-163v-1080h-337v1080h-76v225h76q0 5 0.5 14.5t0.5 14.5q2 68 10 120.5t29.5 107.5t56.5 91t94.5 59t139.5 23q66 0 152.5 -3.5t228.5 -11t240 -11.5v-1709h-337z" />
    <glyph glyph-name="uniFB03" unicode="ffi" horiz-adv-x="1840" 
d="M1407 1419v315h337v-315h-337zM141 0v1080h-76v225h76q0 5 0.5 14.5t0.5 14.5q2 68 8.5 120.5t25.5 107.5t49.5 91t83 59t123.5 23q42 0 95 -3.5t85 -7.5l32 -3v-252q-69 6 -88 6q-42 0 -60 -23.5t-18 -85.5v-61h282q0 5 0.5 14.5t0.5 14.5q2 68 8.5 120.5t25.5 107.5
t49.5 91t83 59t123.5 23q42 0 95 -3.5t85 -7.5l32 -3v-252q-69 6 -88 6q-42 0 -60 -23.5t-18 -85.5v-61h647v-1305h-337v1080h-310v-1080h-337v1080h-282v-1080h-337z" />
    <glyph glyph-name="uniFB04" unicode="ffl" horiz-adv-x="1849" 
d="M1416 0v1471q-23 0 -75 2t-65 2q-74 0 -106 -23.5t-32 -85.5v-61h163v-225h-163v-1080h-337v1080h-323v-1080h-337v1080h-76v225h76q0 5 0.5 14.5t0.5 14.5q2 68 8.5 120.5t25.5 107.5t49.5 91t83 59t123.5 23q42 0 95 -3.5t85 -7.5l32 -3v-252q-69 6 -88 6
q-42 0 -60 -23.5t-18 -85.5v-61h323q0 5 0.5 14.5t0.5 14.5q2 68 10.5 120.5t31.5 107.5t60 91t100 59t148 23q152 0 601 -37v-1698h-337z" />
    <glyph glyph-name=".notdef" horiz-adv-x="748" 
d="M68 0v1365h544v-1365h-544zM136 68h408v1229h-408v-1229z" />
    <glyph glyph-name="glyph1" horiz-adv-x="0" 
 />
    <glyph glyph-name="uni000D" unicode="&#xd;" horiz-adv-x="0" 
 />
    <glyph glyph-name="space" unicode=" " horiz-adv-x="410" 
 />
    <glyph glyph-name="exclam" unicode="!" horiz-adv-x="524" 
d="M95 0v317h323v-317h-323zM199 462l-104 1338h343l-123 -1338h-116z" />
    <glyph glyph-name="quotedbl" unicode="&#x22;" horiz-adv-x="758" 
d="M434 1202l-1 599h285l-102 -599h-182zM130 1202l-90 599h294l-1 -599h-203z" />
    <glyph glyph-name="numbersign" unicode="#" horiz-adv-x="1150" 
d="M485 871h142l16 114h-142zM153 0l88 616h-142v255h178l16 114h-194v255h231l80 561h209l-81 -561h142l80 561h209l-81 -561h136v-255h-173l-16 -114h189v-255h-226l-89 -616h-206l88 616h-143l-89 -616h-206z" />
    <glyph glyph-name="dollar" unicode="$" horiz-adv-x="1145" 
d="M529 -100v171q-113 10 -198.5 52t-136.5 110t-76 151.5t-25 183.5l364 69v-49q0 -33 2 -59.5t10 -62.5t21.5 -59.5t40.5 -40.5t64 -17q103 0 103 123q0 25 -5 47.5t-19 45t-24 37t-36 37.5t-36.5 32.5t-45 36t-43.5 33.5l-112 89q-53 42 -84.5 69t-74.5 73.5t-66 88.5
t-40.5 101t-17.5 125q0 194 118 311.5t317 135.5v197h96v-194q183 -9 306.5 -126.5t123.5 -289.5v-46l-373 -50q3 54 3 74q0 162 -112 162q-61 0 -91 -39t-30 -91q0 -72 38.5 -123.5t113.5 -108.5l123 -93q71 -53 114 -89.5t89 -87t70.5 -98.5t40.5 -112t16 -140
q0 -173 -125 -286.5t-307 -122.5v-170h-96z" />
    <glyph glyph-name="percent" unicode="%" horiz-adv-x="2041" 
d="M634 0l577 1835h180l-578 -1835h-179zM1436 517v-6q0 -59 2 -98.5t9 -81.5t19.5 -66.5t34.5 -40.5t54 -16q39 0 63.5 21.5t36 67.5t15 92.5t3.5 121.5v5q0 51 -1 82.5t-4.5 69t-11.5 59.5t-20.5 42t-33 29t-47.5 9t-47 -9t-33 -28.5t-21 -42t-12 -59t-5 -69t-1 -82.5z
M1170 511v9q1 117 21 205t64 155t119 101.5t181 34.5q105 0 180.5 -34.5t120 -101t65 -155t21.5 -205.5v-9q0 -511 -387 -511q-385 0 -385 511zM360 1306v-11q0 -59 2 -98.5t9 -81.5t19.5 -66.5t34.5 -40.5t54 -16q39 0 63.5 21.5t36 67.5t15 92.5t3.5 121.5v9q0 50 -1 81.5
t-5 68t-11.5 58.5t-20.5 42t-33 28.5t-47 8.5q-32 0 -54.5 -14t-35 -36t-19 -62t-8.5 -77t-2 -96zM94 1295v6q0 118 20 206.5t64 156t119.5 102t181.5 34.5q105 0 180.5 -34.5t120 -101.5t65 -155.5t21.5 -205.5v-8q0 -511 -387 -511q-385 0 -385 511z" />
    <glyph glyph-name="ampersand" unicode="&#x26;" horiz-adv-x="1194" 
d="M606 313q-125 202 -182 315q-19 -19 -32.5 -81.5t-13.5 -132.5q0 -82 21 -137.5t65 -55.5q70 0 142 92zM507 1105q49 71 80.5 160.5t31.5 170.5q0 58 -22.5 102.5t-74.5 44.5q-86 0 -86 -150q0 -155 71 -328zM1129 262v-285q-30 -6 -60 -6q-117 0 -274 150
q-65 -73 -153 -112t-186 -39q-182 0 -286 118.5t-104 300.5q0 263 228 517q-160 355 -160 528q0 172 97.5 286t268.5 114q176 0 285.5 -104t109.5 -279q0 -163 -73.5 -300.5t-206.5 -274.5l187 -312q41 107 41 310h276q0 -183 -34 -297.5t-116 -234.5q29 -33 72 -54.5
t88 -25.5z" />
    <glyph glyph-name="quotesingle" unicode="'" horiz-adv-x="356" 
d="M101 1201l-70 598h304l-71 -598h-163z" />
    <glyph glyph-name="parenleft" unicode="(" horiz-adv-x="696" 
d="M637 158v-222q-100 -1 -178.5 35.5t-128 87.5t-85 141.5t-52.5 161t-26 185.5t-10 176t-1 168v10.5v9v10.5v30q0 108 1 169t10 175.5t26 185.5t52.5 161t85 141.5t128 87.5t178.5 36v-222q-39 1 -70 -20t-51.5 -59.5t-35.5 -85.5t-22.5 -107t-12.5 -114.5t-5.5 -117.5
t0 -107t2 -91t1.5 -62t-1.5 -62t-2 -90.5t0 -106.5t5.5 -117.5t12.5 -114.5t22.5 -107t35.5 -85.5t51.5 -59.5t70 -20z" />
    <glyph glyph-name="parenright" unicode=")" horiz-adv-x="696" 
d="M110 -64v222q39 -1 70 20t51 59.5t35.5 85.5t23 107t12 115t5 117.5t0.5 106t-1.5 90.5t-1.5 62t1.5 62t1.5 90.5t-0.5 106.5t-5 117.5t-12 115t-23 107.5t-35.5 85.5t-51 59.5t-70 20v222q71 0 131 -16t105 -50t81 -71.5t61 -97.5t44 -109t29.5 -124l17.5 -125
t9.5 -130.5t3 -121.5t0.5 -115v-26v-26q0 -107 -1 -168t-10 -176t-26 -186.5t-52.5 -162t-85.5 -142.5t-128.5 -88.5t-178.5 -35.5z" />
    <glyph glyph-name="asterisk" unicode="*" horiz-adv-x="913" 
d="M158 974l162 231l-244 94l74 197l223 -118l-27 264h250l-25 -265l223 120l74 -199l-246 -94l165 -230l-198 -116l-118 235l-117 -235z" />
    <glyph glyph-name="plus" unicode="+" horiz-adv-x="762" 
d="M70 583v223h195v194h222v-194h195v-223h-195v-194h-222v194h-195z" />
    <glyph glyph-name="comma" unicode="," horiz-adv-x="469" 
d="M153 -244l-40 166h15q26 0 35.5 0.5t18.5 9t10.5 22.5t1.5 45h-110v318h323v-88q1 -115 -0.5 -170t-13.5 -132.5t-38 -109t-76.5 -52t-125.5 -9.5z" />
    <glyph glyph-name="hyphen" unicode="-" horiz-adv-x="429" 
d="M4 453v223h417v-223h-417z" />
    <glyph glyph-name="period" unicode="." horiz-adv-x="522" 
d="M99 0v317h325v-317h-325z" />
    <glyph glyph-name="slash" unicode="/" horiz-adv-x="895" 
d="M91 0l577 1835h180l-578 -1835h-179z" />
    <glyph glyph-name="zero" unicode="0" horiz-adv-x="1137" 
d="M704 528v741q0 259 -135 259q-37 0 -63 -19t-39.5 -45t-21 -65.5t-9 -66.5t-1.5 -63v-741q0 -31 2.5 -60.5t10.5 -67t22 -65t39.5 -46.5t59.5 -19q42 0 71 26.5t42 70.5t17.5 82t4.5 79zM84 528v741q0 120 28.5 220.5t85.5 178.5t151.5 122t219.5 44q124 0 218.5 -44
t151.5 -122.5t85.5 -178.5t28.5 -220v-741q0 -115 -30 -215.5t-88.5 -178.5t-152.5 -123.5t-213 -45.5q-121 0 -215.5 45t-152.5 123t-87.5 178.5t-29.5 216.5z" />
    <glyph glyph-name="one" unicode="1" horiz-adv-x="676" 
d="M225 0v1337h-182v265q28 17 75 39.5t73 36.5t58 46t54 77h266v-1801h-344z" />
    <glyph glyph-name="two" unicode="2" horiz-adv-x="1067" 
d="M1018 1339q0 -119 -37.5 -235.5t-106.5 -224t-133 -189.5t-153 -185.5t-130 -158.5h560v-346h-958v309l438 627q38 55 63 94t53.5 94t43 109t14.5 106q0 31 -7.5 63t-22.5 62t-41.5 48.5t-60.5 18.5q-28 0 -50.5 -13t-36.5 -35.5t-24 -51.5t-14 -61.5t-7 -65.5
t-2.5 -62.5t0.5 -54.5v-24h-345v113q0 99 16 181.5t52 153.5t91 120t136 76.5t184 27.5q228 0 353 -133.5t125 -362.5z" />
    <glyph glyph-name="three" unicode="3" horiz-adv-x="1094" 
d="M72 582h348v-20v-50t2.5 -53t7 -56.5t14.5 -49.5t24 -43.5t36.5 -27t50.5 -11.5t50 10t36 23.5t24 39t14.5 43.5t7 50.5t2.5 47v45.5q0 125 -61.5 193.5t-185.5 65.5v350q61 -2 103 5.5t76.5 28t51 61.5t16.5 103q0 40 -5 70.5t-18 60.5t-41 46.5t-70 16.5
q-28 0 -50.5 -11.5t-36.5 -27t-24 -43t-14.5 -49.5t-7 -56.5t-2.5 -52.5v-50v-18h-349v114q0 233 126.5 366t357.5 133q230 0 357 -134t127 -365q0 -113 -46.5 -216.5t-135.5 -159.5q95 -70 138.5 -184.5t43.5 -246.5q0 -125 -26.5 -225t-82 -178t-150.5 -120t-225 -42
q-110 0 -194 28t-137.5 76t-87.5 120t-48 152t-16 180v61z" />
    <glyph glyph-name="four" unicode="4" horiz-adv-x="1107" 
d="M370 717h196v540zM62 437v282l440 1082h409v-1084h168v-280h-168v-437h-345v437h-504z" />
    <glyph glyph-name="five" unicode="5" horiz-adv-x="1115" 
d="M95 571h346q-1 -49 0 -82.5t4 -73t10.5 -64.5t20 -47.5t32 -33t45.5 -10.5q33 0 59 13t42 35.5t27.5 52t16.5 63t8.5 68t2.5 66.5t0 60v27q0 30 -1 52.5t-5 56t-13 58t-23.5 47.5t-38 35.5t-54.5 12.5q-49 0 -86.5 -42.5t-59.5 -97.5h-295v1034h857v-342h-533v-325
q96 59 175 59q96 0 170.5 -31t120 -82t75 -124t40.5 -149.5t11 -166.5q0 -89 -8 -165.5t-27 -156t-54.5 -141t-87 -110.5t-128.5 -75.5t-175 -26.5q-111 0 -195 32t-136.5 86t-85 133.5t-45 164.5t-12.5 190z" />
    <glyph glyph-name="six" unicode="6" horiz-adv-x="1112" 
d="M438 762v-233q0 -31 2.5 -60.5t10.5 -67t22 -65t39.5 -46.5t59.5 -19q20 0 37.5 5.5t30.5 18.5t23 25t17 34.5t12.5 36.5t8 42t4.5 40t2.5 41t0.5 34.5v31.5q0 34 -1 55.5t-4.5 57t-12.5 59t-23 47t-38.5 35.5t-56.5 12q-81 0 -134 -84zM87 550v638q0 96 13 182.5
t47 173.5t87 150t140 102t198 39t198.5 -40t143 -110.5t84.5 -165t29 -205.5v-32h-339q0 38 -1 64t-7.5 64t-18 61.5t-34.5 41t-55 17.5q-139 0 -136 -352v-103q92 62 207 62q96 0 169.5 -29.5t119.5 -78.5t74.5 -121t39.5 -148.5t11 -169.5q0 -96 -16 -183.5t-52.5 -168
t-91.5 -139t-138.5 -93.5t-186.5 -35q-101 0 -183.5 33.5t-137.5 89.5t-93 131t-54.5 156.5t-16.5 168.5z" />
    <glyph glyph-name="seven" unicode="7" horiz-adv-x="827" 
d="M155 0l312 1496h-438v303h775v-177l-310 -1622h-339z" />
    <glyph glyph-name="eight" unicode="8" horiz-adv-x="1088" 
d="M544 251q30 0 53.5 10t38 23.5t25.5 38t16 43.5t7.5 50t3 47t0.5 45q0 296 -144 296q-145 0 -145 -296q0 -28 0.5 -45.5t3.5 -47.5t8 -49.5t16 -43.5t26 -38t38 -23.5t53 -9.5zM214 952q-132 136 -132 385q0 231 117.5 365t344.5 134t343 -134.5t116 -364.5
q0 -253 -131 -385q48 -39 80 -87.5t48 -105t22 -110t6 -121.5q0 -128 -25.5 -227t-80.5 -175.5t-150.5 -116.5t-227.5 -40q-484 0 -484 559q0 143 31 246.5t123 177.5zM544 1074q23 0 41.5 12t30.5 29t20 46t12 51.5t6 57t2.5 51.5t0.5 46q0 194 -113 194q-36 0 -60.5 -19.5
t-35.5 -52.5t-15 -61.5t-4 -60.5t1 -55t4 -61.5t10.5 -65.5t19.5 -54.5t32.5 -42t47.5 -14.5z" />
    <glyph glyph-name="nine" unicode="9" horiz-adv-x="1135" 
d="M702 1034v237q0 40 -5 78.5t-17.5 82.5t-42 71t-71.5 27q-28 0 -50 -12.5t-35.5 -30t-23.5 -47.5t-14.5 -53t-7 -59t-3 -53t-0.5 -47v-46t2.5 -49.5t7 -54t14.5 -46.5t24 -42t36 -26t50 -11q40 0 76.5 23t59.5 58zM101 489v30h341q0 -31 1 -52t4 -53.5t11.5 -54.5
t21.5 -44t35 -33t51 -11t52 16t37 38.5t24 59.5t15 66.5t7.5 74t2.5 66.5v58v20v45q-90 -50 -200 -50q-423 0 -423 547q0 95 16 182.5t53 169t92 141t138 95t186 35.5q100 0 182.5 -36t137.5 -96.5t93 -141.5t55 -168.5t17 -180.5v-560q0 -103 -12.5 -194.5t-46.5 -183
t-87 -156.5t-140 -106t-199 -41q-114 0 -202.5 39t-144 109.5t-85.5 163.5t-33 206z" />
    <glyph glyph-name="colon" unicode=":" horiz-adv-x="518" 
d="M99 151v315h321v-315h-321zM99 897v316h321v-316h-321z" />
    <glyph glyph-name="semicolon" unicode=";" horiz-adv-x="510" 
d="M154 -95l-40 166h15q26 0 35.5 0.5t18.5 9t10.5 22.5t1.5 45h-110v318h323v-88q1 -115 -0.5 -170t-13.5 -132.5t-38 -109t-76.5 -52t-125.5 -9.5zM87 897v316h321v-316h-321z" />
    <glyph glyph-name="less" unicode="&#x3c;" horiz-adv-x="865" 
d="M74 525v274l676 473v-293l-444 -315q74 -54 444 -319v-292z" />
    <glyph glyph-name="equal" unicode="=" horiz-adv-x="762" 
d="M70 258v222h612v-222h-612zM70 583v223h612v-223h-612z" />
    <glyph glyph-name="greater" unicode="&#x3e;" horiz-adv-x="865" 
d="M115 53v292l444 319l-444 315v293l676 -473v-274z" />
    <glyph glyph-name="question" unicode="?" horiz-adv-x="974" 
d="M259 0v324h334v-324h-334zM259 480v388q66 45 125.5 101.5t111.5 124.5t82.5 148.5t30.5 159.5q0 69 -32.5 104t-93.5 35q-56 0 -84.5 -45.5t-28.5 -113.5q0 -62 19 -124l-314 -60q-29 111 -29 210q0 192 109 309.5t328 117.5q221 0 342 -117.5t121 -335.5
q0 -194 -93.5 -360t-259.5 -262v-280h-334z" />
    <glyph glyph-name="at" unicode="@" horiz-adv-x="1727" 
d="M1245 152l108 -226q-248 -56 -416 -56q-231 0 -395 59t-265 178t-147.5 287t-46.5 397q0 183 54 335.5t153.5 262t249.5 170t334 60.5q254 0 431 -103t263.5 -287.5t86.5 -437.5q0 -95 -22 -180.5t-66.5 -158t-121 -115t-175.5 -42.5q-81 0 -154 29.5t-123 87.5
q-49 -65 -90.5 -91t-85.5 -26q-110 0 -190.5 63t-117.5 156.5t-37 201.5q0 65 8 131t31 138.5t57.5 127.5t92.5 91t132 36q88 0 130 -63v54h287v-589v-6q0 -17 0.5 -26.5t3 -25.5t8 -24.5t16.5 -15.5t27 -7q33 0 56 29.5t32 76.5t12 81t3 67q0 140 -23 244.5t-77.5 189
t-153 128.5t-240.5 44q-129 0 -228 -48t-158 -133t-88.5 -192t-29.5 -233q0 -131 15.5 -233t55 -191.5t103 -148t162.5 -91.5t231 -33q127 0 308 58zM923 565v404q-2 16 -13 27.5t-27 11.5q-30 0 -53 -12.5t-36 -37.5t-21 -48t-10.5 -60.5t-3 -58t-0.5 -54.5v-21
q0 -30 4 -57t13.5 -57t31.5 -47.5t54 -17.5q34 0 61 28z" />
    <glyph glyph-name="A" unicode="A" horiz-adv-x="1117" 
d="M465 609h186l-91 668zM9 0l389 1800h322l388 -1800h-359l-74 385h-235l-70 -385h-361z" />
    <glyph glyph-name="B" unicode="B" horiz-adv-x="1140" 
d="M471 257h34q71 0 115 16.5t67 56.5t30.5 90.5t7.5 135.5q0 141 -49.5 219t-168.5 78h-36v-596zM469 1092h62q50 0 84 19t51.5 55.5t24.5 78.5t7 99q0 45 -6.5 79t-14.5 56.5t-27 38t-33.5 23t-44 11t-47.5 4t-56 0.5v-464zM107 0v1800h371q100 0 176.5 -10.5t150 -41
t121 -81.5t76 -134.5t28.5 -197.5q0 -141 -66.5 -222t-206.5 -128q321 -78 321 -454q0 -271 -130 -401t-397 -130h-444z" />
    <glyph glyph-name="C" unicode="C" horiz-adv-x="1174" 
d="M84 601v596q0 638 522 638q110 0 195.5 -29.5t143.5 -81.5t95.5 -128t54 -165t16.5 -196v-155h-358v166q0 49 -2 84.5t-10.5 81t-23 74t-43 48.5t-68.5 20q-158 0 -158 -266v-777q0 -265 158 -265q47 0 79 27t46 76.5t19 97t5 108.5v185h356v-152q-2 -103 -17 -190
t-51 -169t-91.5 -138.5t-143.5 -91t-202 -34.5q-117 0 -207.5 33.5t-149 90t-96.5 139t-53.5 173.5t-15.5 200z" />
    <glyph glyph-name="D" unicode="D" horiz-adv-x="1164" 
d="M107 0v1800h376q180 0 296.5 -32.5t183 -107t92 -178.5t25.5 -265v-590q0 -96 -6 -167.5t-22.5 -140t-45 -116t-73.5 -88.5t-108.5 -65t-149 -37t-196.5 -13h-372zM485 255q52 0 82 1.5t60 7.5t44 16.5t26 30.5t15.5 47.5t3.5 68.5v969q0 89 -53 118t-178 30v-1289z" />
    <glyph glyph-name="E" unicode="E" horiz-adv-x="881" 
d="M107 0v1800h751v-250h-387v-490h274v-256h-274v-554h387v-250h-751z" />
    <glyph glyph-name="F" unicode="F" horiz-adv-x="856" 
d="M107 0v1800h751v-250h-387v-490h274v-256h-274v-804h-364z" />
    <glyph glyph-name="G" unicode="G" horiz-adv-x="1238" 
d="M84 563v634q0 638 531 638q112 0 199.5 -29.5t146.5 -81.5t97 -128t55 -165t17 -196v-106h-348v126q0 47 -2.5 82.5t-12.5 79t-27 71.5t-49 47t-76 19q-167 0 -167 -266v-777q0 -265 167 -265q166 0 166 275v144h-206v261h570v-926h-250l-46 126q-46 -72 -131 -116.5
t-175 -44.5q-97 0 -176.5 35.5t-131 94t-86.5 137.5t-50 161.5t-15 169.5z" />
    <glyph glyph-name="H" unicode="H" horiz-adv-x="1205" 
d="M107 0v1800h364v-738h261v738h366v-1800h-366v803h-261v-803h-364z" />
    <glyph glyph-name="I" unicode="I" horiz-adv-x="578" 
d="M107 0v1800h364v-1800h-364z" />
    <glyph glyph-name="J" unicode="J" horiz-adv-x="691" 
d="M0 -34v256q132 -2 176 39.5t44 173.5v1365h364v-1368q0 -99 -9.5 -168.5t-35.5 -129t-71 -94.5t-116.5 -54.5t-172.5 -19.5h-179z" />
    <glyph glyph-name="K" unicode="K" horiz-adv-x="1149" 
d="M107 0v1800h364v-683l282 683h407l-367 -737l394 -1063h-378l-272 823l-66 -170v-653h-364z" />
    <glyph glyph-name="L" unicode="L" horiz-adv-x="838" 
d="M107 0v1800h364v-1550h358v-250h-722z" />
    <glyph glyph-name="M" unicode="M" horiz-adv-x="1470" 
d="M107 0v1800h436l192 -1200l207 1200h421v-1800h-268l-8 1266q-30 -195 -105 -633t-105 -633h-272l-221 1274l-8 -1274h-269z" />
    <glyph glyph-name="N" unicode="N" horiz-adv-x="1173" 
d="M107 0v1801h262l395 -942v942h302v-1801h-252l-394 999v-999h-313z" />
    <glyph glyph-name="O" unicode="O" horiz-adv-x="1221" 
d="M84 592v605q0 638 526 638q527 0 527 -638v-596q0 -108 -16 -199.5t-54.5 -173.5t-98 -139.5t-150.5 -90.5t-208 -33q-116 0 -207 32.5t-150 88t-97.5 136t-55 171.5t-16.5 199zM773 510v778q0 266 -163 266q-49 0 -83 -24.5t-50 -67t-22.5 -84t-6.5 -90.5v-778
q0 -265 162 -265q163 0 163 265z" />
    <glyph glyph-name="P" unicode="P" horiz-adv-x="1022" 
d="M474 1027q29 0 51.5 3.5t39.5 8t30 16.5t21.5 21t14.5 29.5t9 33.5t4.5 42t1.5 46.5v54.5v15q0 39 -0.5 59t-3.5 51t-9.5 46.5t-19 35.5t-30.5 29t-45.5 16t-63.5 7v-514zM107 0v1800h435q235 0 342 -131t107 -379q0 -122 -23.5 -212t-65.5 -148.5t-108 -94t-143 -50
t-178 -15.5v-770h-366z" />
    <glyph glyph-name="Q" unicode="Q" horiz-adv-x="1228" 
d="M780 511v777q0 49 -6.5 91.5t-23.5 84t-51.5 66t-84.5 24.5q-49 0 -84 -24.5t-51.5 -66.5t-23.5 -84t-7 -91v-777q0 -265 166 -265t166 265zM84 592v605q0 111 16.5 204t55 175t98.5 138t151.5 88.5t208.5 32.5t208.5 -32.5t151.5 -88.5t98.5 -138t55 -175t16.5 -204
v-596q0 -370 -213 -549q30 -65 176 -65v-221q-272 0 -400 202q-43 -5 -99 -5q-134 0 -236 46.5t-164 131.5t-93 198t-31 253z" />
    <glyph glyph-name="R" unicode="R" horiz-adv-x="1122" 
d="M471 1051h104q42 0 72 28t43.5 71t19 79t5.5 68t-4.5 66t-16 75.5t-38 68t-64.5 26.5h-121v-482zM107 0v1800h396q135 0 237.5 -25.5t179.5 -80t117 -147t40 -221.5q0 -56 -4 -100t-18.5 -100.5t-39.5 -100t-72 -85.5t-111 -70q162 -514 282 -870h-377l-206 829h-60v-829
h-364z" />
    <glyph glyph-name="S" unicode="S" horiz-adv-x="1053" 
d="M45 515l369 71q0 -55 2 -97t10.5 -91.5t23 -81t41 -53t62.5 -21.5q108 0 108 138q0 189 -213 376l-113 96q-54 45 -86 75t-75.5 81t-68 98.5t-42 114.5t-17.5 142q0 219 139 346.5t369 127.5q191 0 325 -136t134 -328l-1 -13v-30l-376 -52q0 11 1.5 34.5t1.5 38.5
q0 36 -5 69t-16.5 66t-35.5 52.5t-58 19.5q-60 0 -90 -47t-30 -111q0 -56 17.5 -105t53 -91.5t65.5 -70.5t80 -68.5t71 -59.5q77 -68 130 -127.5t100 -134.5t70.5 -162t23.5 -188q0 -189 -135 -309.5t-328 -120.5q-125 0 -222 46t-156.5 125t-91.5 175t-37 206z" />
    <glyph glyph-name="T" unicode="T" horiz-adv-x="915" 
d="M278 0v1528h-264v272h887v-272h-259v-1528h-364z" />
    <glyph glyph-name="U" unicode="U" 
d="M99 669v1131h364v-1120q0 -96 1 -139.5t5 -106t14 -87.5t27.5 -54t45.5 -38t68 -9t68 9t45.5 37.5t27.5 53.5t14 86.5t5 104t1 137.5v6v1120h364v-1131q0 -86 -5 -156t-19 -145t-38 -132.5t-64 -110t-94.5 -86.5t-131.5 -54t-173 -20t-173 20t-131 54t-94 86.5t-64 110
t-38.5 132.5t-19.5 145t-5 156z" />
    <glyph glyph-name="V" unicode="V" horiz-adv-x="1044" 
d="M343 0l-331 1800h345l159 -1091l176 1091h340l-356 -1800h-333z" />
    <glyph glyph-name="W" unicode="W" horiz-adv-x="1464" 
d="M270 0l-249 1800h310l112 -1192l154 1192h267l151 -1185l117 1185h311l-252 -1800h-311l-151 1178l-148 -1178h-311z" />
    <glyph glyph-name="X" unicode="X" horiz-adv-x="1077" 
d="M23 0l291 931l-293 869h346l169 -538l182 538h338l-291 -863l287 -937h-343l-172 595l-170 -595h-344z" />
    <glyph glyph-name="Y" unicode="Y" horiz-adv-x="1027" 
d="M337 0v595l-338 1205h343l168 -791q31 130 93 395.5t92 395.5h333l-339 -1205v-595h-352z" />
    <glyph glyph-name="Z" unicode="Z" horiz-adv-x="998" 
d="M80 0v228l475 1321h-420v250h776v-229l-477 -1320h477v-250h-831z" />
    <glyph glyph-name="bracketleft" unicode="[" horiz-adv-x="779" 
d="M156 -64v1971h547v-158h-259v-1655h259v-158h-547z" />
    <glyph glyph-name="backslash" unicode="\" horiz-adv-x="629" 
d="M265 0l-197 1843h288l198 -1843h-289z" />
    <glyph glyph-name="bracketright" unicode="]" horiz-adv-x="728" 
d="M76 -64v128h256v1664h-256v128h512v-1920h-512z" />
    <glyph glyph-name="asciicircum" unicode="^" horiz-adv-x="962" 
d="M65 907l271 676h277l271 -676h-290l-120 418l-119 -418h-290z" />
    <glyph glyph-name="underscore" unicode="_" horiz-adv-x="829" 
d="M6 0v223h806v-223h-806z" />
    <glyph glyph-name="grave" unicode="`" horiz-adv-x="640" 
d="M353 1393l-277 442h346l136 -442h-205z" />
    <glyph glyph-name="a" unicode="a" horiz-adv-x="976" 
d="M552 295v321q-166 -134 -166 -294q0 -40 15.5 -68.5t52.5 -28.5q21 0 41.5 13.5t29.5 23.5t27 33zM620 0l-33 135q-29 -91 -95 -127.5t-164 -36.5q-72 0 -126 28t-84.5 75.5t-45 102t-14.5 114.5q0 68 14 126t35.5 102.5t60 85.5t75 69.5t93.5 59t102 51t113 48.5v110
q0 69 -17 103t-58 34q-28 0 -45.5 -11.5t-24.5 -34.5t-9 -41.5t-2 -49.5v-74h-327q0 225 113 345.5t328 120.5q150 0 263 -109t113 -259v-620q0 -161 43 -347h-308z" />
    <glyph glyph-name="b" unicode="b" horiz-adv-x="999" 
d="M95 0v1800h337v-583q41 53 97.5 85.5t119.5 32.5q115 0 193 -95t78 -219v-771q0 -112 -75 -195.5t-186 -83.5q-67 0 -127 34t-100 93v-98h-337zM583 319v675q0 86 -56 86q-18 0 -39.5 -17t-29.5 -27t-26 -34v-696l6 -8q5 -8 7 -10t8 -10t9 -11.5l9 -10.5t10.5 -10
t10.5 -8t11.5 -7t11.5 -4t12 -2q24 0 37.5 16t16 33.5t2.5 44.5z" />
    <glyph glyph-name="c" unicode="c" horiz-adv-x="928" 
d="M78 334v560q0 208 99 324.5t302 116.5q204 0 302.5 -116t98.5 -325v-114h-331v149q0 78 -13.5 114.5t-56.5 36.5q-64 0 -64 -99v-646q0 -110 64 -110q24 0 38.5 10t21 34t8.5 49.5t2 71.5v139h331v-195q0 -108 -56 -192.5t-147 -127.5t-198 -43q-165 0 -283 100.5
t-118 262.5z" />
    <glyph glyph-name="d" unicode="d" horiz-adv-x="999" 
d="M79 250v771q0 124 78 219t193 95q63 0 119.5 -32.5t97.5 -85.5v583h337v-1800h-337v98q-40 -59 -100 -93t-127 -34q-111 0 -186 83.5t-75 195.5zM567 297v708q-57 75 -95 75q-56 0 -56 -86v-675q0 -27 2.5 -44.5t16 -33.5t37.5 -16q43 0 95 72z" />
    <glyph glyph-name="e" unicode="e" horiz-adv-x="940" 
d="M415 801h131v180q0 99 -67 99q-64 0 -64 -99v-180zM78 339v555q0 208 99 324.5t302 116.5q204 0 302.5 -116t98.5 -325v-270h-465v-289q0 -110 64 -110q70 0 70 118v143h331v-147q0 -163 -118 -265.5t-283 -102.5t-283 103t-118 265z" />
    <glyph glyph-name="f" unicode="f" horiz-adv-x="647" 
d="M141 0v1080h-76v225h76v2q1 60 5 106t14.5 98t31 89.5t51.5 69.5t79 48.5t110 16.5q42 0 95 -3.5t85 -7.5l32 -3v-252q-69 6 -88 6q-42 0 -60 -23.5t-18 -85.5v-61h163v-225h-163v-1080h-337z" />
    <glyph glyph-name="g" unicode="g" horiz-adv-x="965" 
d="M358 79h-24q-45 -71 -45 -125q0 -59 222 -59h6q114 -1 114 68q0 24 -13 43.5t-38.5 31.5t-50.5 20t-61 12t-57.5 6t-52.5 3zM462 632q82 0 82 232q0 238 -77 238q-19 0 -33.5 -10t-23 -30.5t-14 -42t-8 -54t-3 -56t-0.5 -58.5q0 -219 77 -219zM328 339q0 -24 34.5 -40
t89.5 -26.5t121.5 -21.5t133.5 -28.5t122 -42.5t89.5 -70t34.5 -105q0 -83 -24.5 -145.5t-65 -100t-100.5 -60.5t-122 -31.5t-138 -8.5q-481 0 -481 235q0 69 38 137.5t99 112.5q-41 21 -79 49.5t-38 54.5q0 57 133 226q-102 186 -102 374q0 96 22.5 180.5t68.5 154.5
t124.5 111t181.5 41q154 0 232 -83q73 83 245 83h42l-28 -241q-99 0 -143 -44q42 -75 42 -227q0 -89 -26.5 -169t-76 -142t-127 -98t-171.5 -36q-18 0 -45 4t-45 8l-18 3q-23 -45 -23 -54z" />
    <glyph glyph-name="h" unicode="h" horiz-adv-x="1005" 
d="M94 0v1800h337v-588q49 55 116.5 89t139.5 34q69 0 123.5 -44t81 -108t26.5 -132v-1051h-337v963q0 4 0.5 17.5t0 22t-1 22t-3.5 21.5t-8 17t-13.5 13t-20.5 4q-20 0 -43 -16t-33 -27t-28 -32v-1005h-337z" />
    <glyph glyph-name="i" unicode="i" horiz-adv-x="529" 
d="M96 1419v315h337v-315h-337zM96 0v1305h337v-1305h-337z" />
    <glyph glyph-name="j" unicode="j" horiz-adv-x="572" 
d="M143 1419v315h335v-315h-335zM-21 -284v244q56 -16 88 -16q76 0 76 111v1250h335v-1279q0 -157 -82.5 -247t-237.5 -90q-75 0 -179 27z" />
    <glyph glyph-name="k" unicode="k" horiz-adv-x="981" 
d="M99 0v1800h337v-948l206 453h361l-321 -551l320 -754h-349l-172 582l-45 -76v-506h-337z" />
    <glyph glyph-name="l" unicode="l" horiz-adv-x="529" 
d="M96 0v1800h337v-1800h-337z" />
    <glyph glyph-name="m" unicode="m" horiz-adv-x="1473" 
d="M94 0v1305h337v-93q47 55 112 89t134 34q65 0 120 -42t83 -105q49 66 120.5 106.5t151.5 40.5q69 0 124 -44t82.5 -108.5t27.5 -131.5v-1051h-337v984q0 18 -1 29.5t-5 29.5t-15 27.5t-28 9.5q-36 0 -92 -74v-1006h-337v986q0 94 -46 94q-38 0 -95 -75v-1005h-336z" />
    <glyph glyph-name="n" unicode="n" horiz-adv-x="1005" 
d="M94 0v1305h337v-92q48 55 115.5 88t140.5 33q69 0 123.5 -43.5t81 -107t26.5 -131.5v-1052h-337v993q0 87 -56 87q-6 0 -12.5 -1.5t-13 -5t-11.5 -6t-12 -8.5l-10.5 -9t-10.5 -10.5t-9 -10t-8 -9.5l-7 -8v-1012h-337z" />
    <glyph glyph-name="o" unicode="o" horiz-adv-x="973" 
d="M561 335v646q0 99 -77 99q-69 0 -69 -99v-646q0 -22 1.5 -36.5t7.5 -34t21 -29.5t39 -10q77 0 77 110zM78 339v555q0 209 98.5 324.5t307.5 115.5t310 -115.5t101 -324.5v-555q0 -163 -121 -265.5t-290 -102.5q-109 0 -201 44.5t-148.5 130t-56.5 193.5z" />
    <glyph glyph-name="p" unicode="p" horiz-adv-x="999" 
d="M95 -371v1676h337v-88q41 53 97.5 85.5t119.5 32.5q115 0 193 -95t78 -219v-771q0 -112 -75 -195.5t-186 -83.5q-67 0 -127 34t-100 93v-469h-337zM583 319v675q0 86 -56 86q-38 0 -95 -75v-708q52 -72 95 -72q24 0 37.5 16t16 33.5t2.5 44.5z" />
    <glyph glyph-name="q" unicode="q" horiz-adv-x="979" 
d="M548 -371v460q-39 -53 -93 -85.5t-114 -32.5q-110 0 -184.5 86t-74.5 198v801q0 112 74.5 195.5t184.5 83.5q61 0 115.5 -34t91.5 -93v97h337v-1676h-337zM548 301v708q-15 21 -22.5 30.5t-27 25t-35.5 15.5q-20 0 -31 -14.5t-13 -30t-2 -39.5v-687q0 -84 46 -84
q12 0 24.5 7t25.5 22.5t18.5 23t16.5 23.5z" />
    <glyph glyph-name="r" unicode="r" horiz-adv-x="714" 
d="M94 0v1305h335v-106q77 125 180 125q29 0 91 -10v-284q-93 10 -131 10q-69 0 -104.5 -42.5t-35.5 -121.5v-876h-335z" />
    <glyph glyph-name="s" unicode="s" horiz-adv-x="867" 
d="M38 315l258 92q10 -30 16 -46.5t20.5 -48t28 -48.5t35 -31.5t45.5 -14.5q63 0 63 74q0 27 -12.5 55.5t-26 49t-47 53.5t-51.5 49t-63 54l-55 47q-107 93 -168 183t-61 200q0 85 35.5 153.5t95.5 110.5t134.5 64.5t156.5 22.5q73 0 140 -31t117.5 -82.5t87.5 -116
t57 -135.5l-242 -83q-12 30 -20 49.5t-25.5 51t-34 50.5t-40.5 33.5t-50 14.5q-35 0 -54.5 -25t-19.5 -57q0 -44 48.5 -98.5t133.5 -125.5l62 -55q50 -45 86.5 -84.5t73 -89.5t56 -105t19.5 -110q0 -158 -111.5 -261t-269.5 -103q-153 0 -264 95t-154 249z" />
    <glyph glyph-name="t" unicode="t" horiz-adv-x="668" 
d="M117 448v632h-96v225h96v429h337v-429h162v-225h-162v-713q0 -54 20 -80.5t71 -26.5q58 0 98 6v-261q-66 -20 -213 -20q-59 0 -106.5 14t-80 37.5t-56 59.5t-37 73.5t-21 87.5t-10 93t-2.5 98z" />
    <glyph glyph-name="u" unicode="u" horiz-adv-x="1006" 
d="M87 253v1052h337v-970q0 -110 46 -110q45 0 105 74v1006h337v-1305h-337v113q-51 -62 -119 -102t-138 -40q-103 0 -167 87.5t-64 194.5z" />
    <glyph glyph-name="v" unicode="v" horiz-adv-x="892" 
d="M282 0l-271 1305h316l129 -881l109 881h316l-258 -1305h-341z" />
    <glyph glyph-name="w" unicode="w" horiz-adv-x="1273" 
d="M218 0l-191 1305h281l104 -805l108 805h254l98 -821l114 821h260l-193 -1305h-290l-123 771l-132 -771h-290z" />
    <glyph glyph-name="x" unicode="x" horiz-adv-x="922" 
d="M34 0l240 688l-241 617h333l95 -409q13 57 45.5 195.5t49.5 213.5h333l-239 -617l238 -688h-332l-96 410l-94 -410h-332z" />
    <glyph glyph-name="y" unicode="y" horiz-adv-x="872" 
d="M270 117q0 131 -53 381.5t-123 514.5t-76 292h307l121 -728l106 728h309l-285 -1340q-15 -68 -46 -118.5t-70.5 -80t-95 -47.5t-110 -24t-124.5 -6h-43v233q100 2 141.5 47.5t41.5 147.5z" />
    <glyph glyph-name="z" unicode="z" horiz-adv-x="813" 
d="M57 0v228l359 834h-303v243h651v-223l-362 -838h362v-244h-707z" />
    <glyph glyph-name="braceleft" unicode="{" horiz-adv-x="762" 
d="M682 158v-222q-119 0 -205 27.5t-139 75.5t-84.5 125.5t-42.5 163.5t-11 204q0 15 0.5 45.5t1 46t-1.5 40.5t-6.5 38.5t-14 30.5t-23.5 25.5t-36 14t-50 5.5v287q32 0 56 12.5t38 38.5t22.5 51t11.5 64t3.5 62t-0.5 60.5t-1 45.5q0 159 23 256t82.5 154.5t146.5 77.5
t230 20v-222q-58 0 -94.5 -11t-57.5 -26t-30 -57.5t-11 -77.5t-2 -114q0 -62 -7 -122.5t-24.5 -129.5t-55 -125.5t-90.5 -87.5q51 -29 86 -72t52.5 -98t25.5 -103.5t11 -114.5q1 -23 2.5 -65t3 -64.5t4.5 -58.5t9 -56.5t15 -47t23 -41t33 -29t46 -20.5t61 -6z" />
    <glyph glyph-name="bar" unicode="|" horiz-adv-x="429" 
d="M134 -130v2102h222v-2102h-222z" />
    <glyph glyph-name="braceright" unicode="}" horiz-adv-x="762" 
d="M70 -64v222q30 0 54.5 6t43 14t33 26t24 31t16.5 40.5t11 44.5t6.5 51.5t3.5 52.5t3 58v12.5t0.5 12t0.5 13.5q2 55 6 94t15.5 89.5t29.5 86.5t49.5 72t75.5 60q-52 33 -89.5 96.5t-55 140.5t-25 144.5t-7.5 135.5v52t-1.5 44t-4 39t-7.5 31t-12 27t-17.5 19.5t-24.5 16
t-33 9.5t-42.5 6.5t-52.5 1.5v222q114 0 190.5 -12t136 -41.5t92 -83.5t48.5 -133.5t16 -197.5q0 -8 -1 -50t-0.5 -68t3.5 -69.5t11.5 -71.5t22 -57t37.5 -43.5t56 -14.5v-287q-28 0 -49.5 -5.5t-35.5 -14t-23.5 -25.5t-14 -30.5t-6.5 -38.5t-1.5 -40.5t1 -46t0.5 -45.5
q0 -119 -11 -205t-42.5 -163.5t-84.5 -125t-139.5 -75t-205.5 -27.5z" />
    <glyph glyph-name="asciitilde" unicode="~" horiz-adv-x="1028" 
d="M140 842q-1 84 22.5 150.5t78 110.5t133.5 44q46 0 102.5 -21.5t105.5 -43.5t77 -22q37 0 37 69h181q1 -83 -22.5 -150.5t-78 -112t-133.5 -44.5q-47 0 -106 22t-108.5 44t-72.5 22q-34 0 -34 -68h-182z" />
    <glyph glyph-name="uni00A0" unicode="&#xa0;" horiz-adv-x="410" 
 />
    <glyph glyph-name="exclamdown" unicode="&#xa1;" horiz-adv-x="524" 
d="M438 1305v-318h-323v318h323zM334 842l104 -1338h-343l123 1338h116z" />
    <glyph glyph-name="cent" unicode="&#xa2;" horiz-adv-x="965" 
d="M447 -263v295q-152 13 -256 114t-104 253v445q0 197 88.5 311t271.5 126v287h90v-287q179 -14 265.5 -127.5t86.5 -309.5v-56h-332l1 74q1 76 -12.5 113.5t-57.5 37.5q-64 0 -64 -99v-508q0 -110 64 -110q41 0 56 30t15 95q0 5 -0.5 14t-1 33t-0.5 58h332v-127
q0 -150 -101.5 -250.5t-250.5 -116.5v-295h-90z" />
    <glyph glyph-name="sterling" unicode="&#xa3;" horiz-adv-x="1137" 
d="M84 0v186l121 59v480h-121v259h121v222q0 70 3.5 128t15 124.5t31 118.5t52.5 102t78 82.5t110 52.5t146 20q76 0 136.5 -16.5t102 -43t71.5 -68.5t46.5 -84t26 -100t12.5 -106t3 -111h-327q0 247 -71 247t-71 -348v-220h245v-259h-245v-441h459v-284h-945z" />
    <glyph glyph-name="currency" unicode="&#xa4;" horiz-adv-x="1054" 
d="M335 897q0 -88 52 -151.5t140 -63.5q94 0 143 63t49 151q0 89 -48.5 151.5t-143.5 62.5t-143.5 -62t-48.5 -151zM120 579l86 86q-63 97 -63 232q0 133 63 230l-86 86l90 90l86 -86q95 63 231 63t231 -63l86 86l90 -90l-87 -87q64 -97 64 -229q0 -133 -64 -232l87 -86
l-90 -90l-86 86q-95 -63 -231 -63t-231 63l-86 -86z" />
    <glyph glyph-name="yen" unicode="&#xa5;" horiz-adv-x="1095" 
d="M397 0v259h-195v199h195v102h-195v196h146q-47 172 -146.5 535t-150.5 552h295l194 -901l193 901h294l-299 -1087h150v-196h-194v-102h194v-199h-194v-259h-287z" />
    <glyph glyph-name="brokenbar" unicode="&#xa6;" horiz-adv-x="441" 
d="M98 900v665h234v-665h-234zM98 -15v665h234v-665h-234z" />
    <glyph glyph-name="section" unicode="&#xa7;" horiz-adv-x="1028" 
d="M541 795q82 44 82 112q0 51 -106 142l-43 35q-35 -22 -58 -58t-23 -75q0 -29 17 -54.5t34 -38.5t52.5 -34.5t44.5 -28.5zM623 339q0 48 -18 88t-48 69t-68.5 54.5t-81.5 48.5t-86.5 46.5t-82 53t-68.5 63.5t-48 82.5t-18 106.5q0 100 44 180.5t130 125.5
q-174 111 -174 247q0 88 31.5 157t86.5 112t127.5 65.5t158.5 22.5q161 0 264.5 -101t141.5 -264l-220 -73q-75 196 -186 196q-54 0 -84.5 -30.5t-30.5 -84.5q0 -35 21 -63.5t44.5 -42.5t64.5 -34.5t56 -29.5q69 -42 122 -82.5t103.5 -94t78 -117.5t27.5 -133
q0 -195 -149 -290q149 -129 149 -278q0 -173 -112.5 -265t-289.5 -92q-162 0 -263.5 100.5t-143.5 265.5l221 73q12 -34 28 -64.5t38.5 -62.5t54 -51t65.5 -19q54 0 84.5 30.5t30.5 84.5z" />
    <glyph glyph-name="dieresis" unicode="&#xa8;" horiz-adv-x="927" 
d="M569 1492v308h304v-308h-304zM116 1492v308h303v-308h-303z" />
    <glyph glyph-name="copyright" unicode="&#xa9;" horiz-adv-x="1619" 
d="M799 -15q-148 0 -281.5 59.5t-228.5 159.5t-150.5 235.5t-55.5 283.5q0 147 55.5 283t150.5 236t228.5 159.5t281.5 59.5q198 0 363.5 -101t259.5 -270.5t94 -366.5q0 -196 -94 -365.5t-259.5 -271t-363.5 -101.5zM799 163q110 0 207 46.5t163.5 123.5t105 178t38.5 208
t-38.5 208t-105 178t-163.5 123.5t-207 46.5q-146 0 -265.5 -79t-184.5 -205.5t-65 -271.5t65 -271.5t184.5 -205.5t265.5 -79zM896 614h210q0 -179 -74 -287t-229 -108q-50 0 -91 10t-71 25.5t-54 42.5t-39.5 52.5t-26.5 64.5t-16.5 69.5t-8.5 77t-3.5 77t-0.5 78.5
q0 53 0.5 83t3.5 79t8.5 79t16.5 70.5t26.5 65.5t40 52.5t55.5 42.5t73.5 25t93.5 10q83 0 143 -29.5t93 -83t47.5 -117t14.5 -142.5h-214q0 27 -0.5 43t-4.5 49t-12 52.5t-24.5 36t-40.5 16.5q-67 0 -96 -68t-29 -250q0 -142 14.5 -216.5t37.5 -95t64 -20.5q17 0 31.5 6
t24 19.5t16.5 25t10.5 33.5t6 34t3.5 37.5t1 32v28.5z" />
    <glyph glyph-name="ordfeminine" unicode="&#xaa;" horiz-adv-x="906" 
d="M536 239v164q-29 -17 -38.5 -22.5t-38 -25t-41.5 -33.5t-25.5 -35.5t-12.5 -42.5q0 -31 14 -51t44 -20t57 19t41 47zM554 0v85q-32 -44 -83.5 -70t-106.5 -26q-85 0 -147 62t-62 147q0 57 24.5 104t53 75t89 57.5t91.5 40.5t102 33q14 5 21 7v86q0 125 -63 125
q-77 0 -77 -152h-208q2 139 77.5 233t211.5 94q80 0 137.5 -27t87.5 -72.5t47 -109.5t19 -132t1 -147t-5 -149t-1 -142t15 -122h-224z" />
    <glyph glyph-name="guillemotleft" unicode="&#xab;" horiz-adv-x="1054" 
d="M975 64l-448 512v128l448 512v-320l-256 -255l256 -257v-320zM527 64l-448 512v128l448 512v-320l-256 -255l256 -257v-320z" />
    <glyph glyph-name="logicalnot" unicode="&#xac;" horiz-adv-x="829" 
d="M136 453v223h547v-417h-158v194h-389z" />
    <glyph glyph-name="uni00AD" unicode="&#xad;" horiz-adv-x="804" 
d="M142 433v255h541v-255h-541z" />
    <glyph glyph-name="registered" unicode="&#xae;" horiz-adv-x="1619" 
d="M720 766q92 0 130 33.5t38 122.5q0 140 -111 140h-57v-296zM534 251v946q-115 -75 -182.5 -203.5t-67.5 -274.5q0 -145 65 -271.5t184.5 -205.5t265.5 -79q154 0 279 88h-171l-129 390h-58v-390h-186zM799 -15q-148 0 -281.5 59.5t-228.5 159.5t-150.5 235.5t-55.5 283.5
q0 147 55.5 283t150.5 236t228.5 159.5t281.5 59.5q198 0 363.5 -101t259.5 -270.5t94 -366.5q0 -196 -94 -365.5t-259.5 -271t-363.5 -101.5zM1101 269q99 78 155.5 197.5t56.5 252.5q0 107 -38.5 208t-105 178t-163.5 123.5t-207 46.5q-130 0 -243 -65h235q287 0 287 -292
q0 -160 -126 -236q9 -47 28 -106t35 -99.5t45.5 -110.5t40.5 -97z" />
    <glyph glyph-name="macron" unicode="&#xaf;" horiz-adv-x="429" 
d="M-36 1457v193h507v-193h-507z" />
    <glyph glyph-name="degree" unicode="&#xb0;" horiz-adv-x="1095" 
d="M540 1255q85 0 132.5 58.5t47.5 144.5q0 87 -47 144.5t-133 57.5q-85 0 -132.5 -57.5t-47.5 -143.5t48 -145t132 -59zM540 1055q-185 0 -293.5 110t-108.5 294q0 185 109 293.5t293 108.5q185 0 294.5 -109t109.5 -293q0 -185 -109 -294.5t-295 -109.5z" />
    <glyph glyph-name="plusminus" unicode="&#xb1;" horiz-adv-x="895" 
d="M330 389v194h-193v223h193v194h224v-194h193v-223h-193v-194h-224zM137 0v223h610v-223h-610z" />
    <glyph glyph-name="uni00B2" unicode="&#xb2;" horiz-adv-x="696" 
d="M617 1245q0 -44 -23 -99.5t-64 -115.5t-77.5 -107.5t-83.5 -104.5t-62 -76h310v-159h-547v148q2 2 66.5 80.5t114 143.5t96.5 151.5t47 138.5v13.5v16.5t-0.5 16t-2 17t-3.5 15.5t-6 15t-9 11t-12.5 8t-16.5 2.5t-17 -3t-13 -9t-9 -12.5t-6 -17t-3.5 -18t-2 -19.5
t-0.5 -18v-17.5v-14.5h-223q0 132 71 209.5t203 77.5q128 0 200.5 -72.5t72.5 -200.5z" />
    <glyph glyph-name="uni00B3" unicode="&#xb3;" horiz-adv-x="829" 
d="M136 935h222v-14.5v-18t0.5 -18t2 -19.5t4 -18t6 -17t9 -12t13 -9t16.5 -3q18 0 29.5 10t15.5 29.5t5 32.5t1 34v9q0 69 -28.5 92.5t-101.5 23.5v158q74 0 102 23.5t28 91.5v9q0 22 -1 35t-5 32.5t-15.5 29.5t-29.5 10q-9 0 -16.5 -3t-13 -9.5t-9 -12.5t-6 -17t-4 -18
t-2 -20t-0.5 -18.5v-17.5v-14h-222q0 132 70.5 209.5t202.5 77.5q129 0 201.5 -72.5t72.5 -200.5q0 -142 -132 -195q132 -54 132 -194q0 -128 -72.5 -200.5t-201.5 -72.5q-132 0 -202.5 77t-70.5 210z" />
    <glyph glyph-name="acute" unicode="&#xb4;" horiz-adv-x="638" 
d="M113 1393l136 442h345l-277 -442h-204z" />
    <glyph glyph-name="paragraph" unicode="&#xb6;" horiz-adv-x="1020" 
d="M394 0v887q-162 4 -266.5 96t-104.5 250q0 95 33 164.5t93 109t134.5 58t166.5 18.5h493v-1583h-209v887h-113v-887h-227z" />
    <glyph glyph-name="periodcentered" unicode="&#xb7;" horiz-adv-x="520" 
d="M99 679v315h323v-315h-323z" />
    <glyph glyph-name="cedilla" unicode="&#xb8;" horiz-adv-x="585" 
d="M132 -561v161q3 0 21.5 -0.5t36 -0.5t42 0.5t44.5 3.5t38 7t28.5 12.5t10.5 19.5q0 10 -4 19.5t-12.5 18t-16.5 16t-22 15t-23 12.5t-25.5 11.5t-23 9.5t-21.5 8t-17 6v242h171v-129q221 -104 221 -233q0 -41 -18.5 -73.5t-45.5 -53t-70.5 -35t-79 -21.5t-87 -11
t-78.5 -4.5t-69 -0.5z" />
    <glyph glyph-name="uni00B9" unicode="&#xb9;" horiz-adv-x="562" 
d="M198 648v583h-129v153q175 88 266 199h86v-935h-223z" />
    <glyph glyph-name="ordmasculine" unicode="&#xba;" horiz-adv-x="965" 
d="M594 471v239q0 7 0.5 33t0 38t-1.5 36.5t-4.5 38t-8.5 33.5t-14 31t-20.5 22.5t-29 16.5t-38.5 5q-29 0 -51 -10t-34.5 -31.5t-20 -41t-10.5 -52t-3.5 -51t-0.5 -51.5v-6v-5v-6v-239v-17v-43.5t2 -44t6.5 -46t13 -39.5t21 -34.5t32.5 -21.5t45 -9q21 0 38.5 5t29 16.5
t20.5 22.5t14 31.5t8.5 33.5t4.5 38t1.5 37t0 38t-0.5 33zM114 430v322q0 102 17.5 179t58.5 139t114.5 94t178.5 32q98 0 171 -35t115.5 -97t62.5 -140t20 -172v-322q0 -95 -20 -173.5t-62.5 -140.5t-115 -96.5t-171.5 -34.5q-105 0 -178.5 32t-114.5 94t-58.5 139.5
t-17.5 179.5z" />
    <glyph glyph-name="guillemotright" unicode="&#xbb;" horiz-adv-x="1054" 
d="M79 64v320l256 257l-256 255v320l448 -512v-128zM527 64v320l256 257l-256 255v320l448 -512v-128z" />
    <glyph glyph-name="onequarter" unicode="&#xbc;" horiz-adv-x="1695" 
d="M1167 402h93v184zM936 244v148l351 593h195v-583h130v-158h-130v-259h-222v259h-324zM424 0l577 1835h180l-578 -1835h-179zM198 648v583h-129v153q175 88 266 199h86v-935h-223z" />
    <glyph glyph-name="onehalf" unicode="&#xbd;" horiz-adv-x="1694" 
d="M1615 647q0 -44 -23 -99.5t-64 -115.5t-77.5 -107.5t-83.5 -104.5t-62 -76h310v-159h-547v148q2 2 66.5 80.5t114 143.5t96.5 151.5t47 138.5v13.5v16.5t-0.5 16t-2 17t-3.5 15.5t-6 15t-9 11t-12.5 8t-16.5 2.5t-17 -3t-13 -9t-9 -12.5t-6 -17t-3.5 -18t-2 -19.5
t-0.5 -18v-17.5v-14.5h-223q0 132 71 209.5t203 77.5q128 0 200.5 -72.5t72.5 -200.5zM424 0l577 1835h180l-578 -1835h-179zM198 648v583h-129v153q175 88 266 199h86v-935h-223z" />
    <glyph glyph-name="threequarters" unicode="&#xbe;" horiz-adv-x="1895" 
d="M587 0l577 1835h180l-578 -1835h-179zM1300 402h93v184zM1069 244v148l351 593h195v-583h130v-158h-130v-259h-222v259h-324zM136 935h222v-14.5v-18t0.5 -18t2 -19.5t4 -18t6 -17t9 -12t13 -9t16.5 -3q18 0 29.5 10t15.5 29.5t5 32.5t1 34v9q0 69 -28.5 92.5
t-101.5 23.5v158q74 0 102 23.5t28 91.5v9q0 22 -1 35t-5 32.5t-15.5 29.5t-29.5 10q-9 0 -16.5 -3t-13 -9.5t-9 -12.5t-6 -17t-4 -18t-2 -20t-0.5 -18.5v-17.5v-14h-222q0 132 70.5 209.5t202.5 77.5q129 0 201.5 -72.5t72.5 -200.5q0 -142 -132 -195q132 -54 132 -194
q0 -128 -72.5 -200.5t-201.5 -72.5q-132 0 -202.5 77t-70.5 210z" />
    <glyph glyph-name="questiondown" unicode="&#xbf;" horiz-adv-x="1182" 
d="M825 1305v-324h-334v324h334zM825 825v-388q-66 -45 -125.5 -101.5t-111.5 -124.5t-82.5 -148.5t-30.5 -159.5q0 -69 32.5 -104t93.5 -35q56 0 84.5 45.5t28.5 113.5q0 62 -19 124l314 60q29 -111 29 -210q0 -192 -109 -309.5t-328 -117.5q-221 0 -342 117.5t-121 335.5
q0 194 93.5 360t259.5 262v280h334z" />
    <glyph glyph-name="Agrave" unicode="&#xc0;" horiz-adv-x="1135" 
d="M465 609h186l-91 668zM9 0l389 1800h322l388 -1800h-359l-74 385h-235l-70 -385h-361zM465 1937l-277 442h346l136 -442h-205z" />
    <glyph glyph-name="Aacute" unicode="&#xc1;" horiz-adv-x="1135" 
d="M465 609h186l-91 668zM9 0l389 1800h322l388 -1800h-359l-74 385h-235l-70 -385h-361zM465 1937l136 442h345l-277 -442h-204z" />
    <glyph glyph-name="Acircumflex" unicode="&#xc2;" horiz-adv-x="1135" 
d="M465 609h186l-91 668zM9 0l389 1800h322l388 -1800h-359l-74 385h-235l-70 -385h-361zM219 1937l201 406h290l206 -406h-275l-75 202l-73 -202h-274z" />
    <glyph glyph-name="Atilde" unicode="&#xc3;" horiz-adv-x="1135" 
d="M465 609h186l-91 668zM9 0l389 1800h322l388 -1800h-359l-74 385h-235l-70 -385h-361zM396 1948h-167q0 51 3.5 90t15.5 80t31.5 68t53.5 44t81 17q73 0 175.5 -29t125.5 -29q16 0 24.5 7.5t9.5 15t1 23.5h155q0 -298 -156 -298q-50 0 -153.5 36.5t-150.5 36.5
q-15 0 -25 -4.5t-14.5 -8.5t-7 -16t-2.5 -15v-18z" />
    <glyph glyph-name="Adieresis" unicode="&#xc4;" horiz-adv-x="1135" 
d="M465 609h186l-91 668zM9 0l389 1800h322l388 -1800h-359l-74 385h-235l-70 -385h-361zM642 1937v308h304v-308h-304zM189 1937v308h303v-308h-303z" />
    <glyph glyph-name="Aring" unicode="&#xc5;" horiz-adv-x="1135" 
d="M465 609h186l-91 668zM9 0l389 1800h322l388 -1800h-359l-74 385h-235l-70 -385h-361zM335 2088q0 109 71.5 174t181.5 65t181.5 -65t71.5 -174t-71.5 -174t-181.5 -65t-181.5 65t-71.5 174zM588 1970q39 0 58.5 37t19.5 80t-19.5 81t-58.5 38q-40 0 -60.5 -37t-20.5 -80
q0 -45 20 -82t61 -37z" />
    <glyph glyph-name="AE" unicode="&#xc6;" horiz-adv-x="1609" 
d="M643 609h211v574zM44 0l773 1800h761v-250h-387v-490h274v-256h-274v-554h387v-250h-724v385h-284l-142 -385h-384z" />
    <glyph glyph-name="Ccedilla" unicode="&#xc7;" horiz-adv-x="1174" 
d="M84 601v596q0 638 522 638q110 0 195.5 -29.5t143.5 -81.5t95.5 -128t54 -165t16.5 -196v-155h-358v166q0 49 -2 84.5t-10.5 81t-23 74t-43 48.5t-68.5 20q-158 0 -158 -266v-777q0 -265 158 -265q47 0 79 27t46 76.5t19 97t5 108.5v185h356v-152q-2 -103 -17 -190
t-51 -169t-91.5 -138.5t-143.5 -91t-202 -34.5q-117 0 -207.5 33.5t-149 90t-96.5 139t-53.5 173.5t-15.5 200zM456 -577v161q3 0 21.5 -0.5t36 -0.5t42 0.5t44.5 3.5t38 7t28.5 12.5t10.5 19.5q0 10 -4 19.5t-12.5 18t-16.5 16t-22 15t-23 12.5t-25.5 11.5t-23 9.5t-21.5 8
t-17 6v242h171v-129q221 -104 221 -233q0 -41 -18.5 -73.5t-45.5 -53t-70.5 -35t-79 -21.5t-87 -11t-78.5 -4.5t-69 -0.5z" />
    <glyph glyph-name="Egrave" unicode="&#xc8;" horiz-adv-x="889" 
d="M107 0v1800h751v-250h-387v-490h274v-256h-274v-554h387v-250h-751zM380 1937l-277 442h346l136 -442h-205z" />
    <glyph glyph-name="Eacute" unicode="&#xc9;" horiz-adv-x="889" 
d="M107 0v1800h751v-250h-387v-490h274v-256h-274v-554h387v-250h-751zM381 1937l136 442h345l-277 -442h-204z" />
    <glyph glyph-name="Ecircumflex" unicode="&#xca;" horiz-adv-x="889" 
d="M107 0v1800h751v-250h-387v-490h274v-256h-274v-554h387v-250h-751zM134 1937l201 406h290l206 -406h-275l-75 202l-73 -202h-274z" />
    <glyph glyph-name="Edieresis" unicode="&#xcb;" horiz-adv-x="889" 
d="M107 0v1800h751v-250h-387v-490h274v-256h-274v-554h387v-250h-751zM557 1937v308h304v-308h-304zM104 1937v308h303v-308h-303z" />
    <glyph glyph-name="Igrave" unicode="&#xcc;" horiz-adv-x="578" 
d="M107 0v1800h364v-1800h-364zM187 1937l-277 442h346l136 -442h-205z" />
    <glyph glyph-name="Iacute" unicode="&#xcd;" horiz-adv-x="578" 
d="M107 0v1800h364v-1800h-364zM187 1937l136 442h345l-277 -442h-204z" />
    <glyph glyph-name="Icircumflex" unicode="&#xce;" horiz-adv-x="578" 
d="M107 0v1800h364v-1800h-364zM-59 1937l201 406h290l206 -406h-275l-75 202l-73 -202h-274z" />
    <glyph glyph-name="Idieresis" unicode="&#xcf;" horiz-adv-x="578" 
d="M107 0v1800h364v-1800h-364zM363 1937v308h304v-308h-304zM-90 1937v308h303v-308h-303z" />
    <glyph glyph-name="Eth" unicode="&#xd0;" horiz-adv-x="1156" 
d="M461 255h15q50 0 80 2t59 8t44 16.5t27 30.5t16 47t4 68v969q0 90 -53.5 118.5t-180.5 29.5h-11v-532h124v-183h-124v-574zM97 0v829h-92v183h92v788h376q180 0 296.5 -32.5t183 -107t92 -178.5t25.5 -265v-590q0 -96 -6 -167.5t-22.5 -140t-45 -116t-73.5 -88.5
t-108.5 -65t-149 -37t-196.5 -13h-372z" />
    <glyph glyph-name="Ntilde" unicode="&#xd1;" horiz-adv-x="1173" 
d="M107 0v1801h262l395 -942v942h302v-1801h-252l-394 999v-999h-313zM416 1948h-167q0 51 3.5 90t15.5 80t31.5 68t53.5 44t81 17q73 0 175.5 -29t125.5 -29q16 0 24.5 7.5t9.5 15t1 23.5h155q0 -298 -156 -298q-50 0 -153.5 36.5t-150.5 36.5q-15 0 -25 -4.5t-14.5 -8.5
t-7 -16t-2.5 -15v-18z" />
    <glyph glyph-name="Ograve" unicode="&#xd2;" horiz-adv-x="1221" 
d="M84 592v605q0 638 526 638q527 0 527 -638v-596q0 -108 -16 -199.5t-54.5 -173.5t-98 -139.5t-150.5 -90.5t-208 -33q-116 0 -207 32.5t-150 88t-97.5 136t-55 171.5t-16.5 199zM773 510v778q0 266 -163 266q-49 0 -83 -24.5t-50 -67t-22.5 -84t-6.5 -90.5v-778
q0 -265 162 -265q163 0 163 265zM508 1937l-277 442h346l136 -442h-205z" />
    <glyph glyph-name="Oacute" unicode="&#xd3;" horiz-adv-x="1221" 
d="M84 592v605q0 638 526 638q527 0 527 -638v-596q0 -108 -16 -199.5t-54.5 -173.5t-98 -139.5t-150.5 -90.5t-208 -33q-116 0 -207 32.5t-150 88t-97.5 136t-55 171.5t-16.5 199zM773 510v778q0 266 -163 266q-49 0 -83 -24.5t-50 -67t-22.5 -84t-6.5 -90.5v-778
q0 -265 162 -265q163 0 163 265zM509 1937l136 442h345l-277 -442h-204z" />
    <glyph glyph-name="Ocircumflex" unicode="&#xd4;" horiz-adv-x="1221" 
d="M84 592v605q0 638 526 638q527 0 527 -638v-596q0 -108 -16 -199.5t-54.5 -173.5t-98 -139.5t-150.5 -90.5t-208 -33q-116 0 -207 32.5t-150 88t-97.5 136t-55 171.5t-16.5 199zM773 510v778q0 266 -163 266q-49 0 -83 -24.5t-50 -67t-22.5 -84t-6.5 -90.5v-778
q0 -265 162 -265q163 0 163 265zM262 1937l201 406h290l206 -406h-275l-75 202l-73 -202h-274z" />
    <glyph glyph-name="Otilde" unicode="&#xd5;" horiz-adv-x="1221" 
d="M84 592v605q0 638 526 638q527 0 527 -638v-596q0 -108 -16 -199.5t-54.5 -173.5t-98 -139.5t-150.5 -90.5t-208 -33q-116 0 -207 32.5t-150 88t-97.5 136t-55 171.5t-16.5 199zM773 510v778q0 266 -163 266q-49 0 -83 -24.5t-50 -67t-22.5 -84t-6.5 -90.5v-778
q0 -265 162 -265q163 0 163 265zM440 1948h-167q0 51 3.5 90t15.5 80t31.5 68t53.5 44t81 17q73 0 175.5 -29t125.5 -29q16 0 24.5 7.5t9.5 15t1 23.5h155q0 -298 -156 -298q-50 0 -153.5 36.5t-150.5 36.5q-15 0 -25 -4.5t-14.5 -8.5t-7 -16t-2.5 -15v-18z" />
    <glyph glyph-name="Odieresis" unicode="&#xd6;" horiz-adv-x="1221" 
d="M84 592v605q0 638 526 638q527 0 527 -638v-596q0 -108 -16 -199.5t-54.5 -173.5t-98 -139.5t-150.5 -90.5t-208 -33q-116 0 -207 32.5t-150 88t-97.5 136t-55 171.5t-16.5 199zM773 510v778q0 266 -163 266q-49 0 -83 -24.5t-50 -67t-22.5 -84t-6.5 -90.5v-778
q0 -265 162 -265q163 0 163 265zM685 1937v308h304v-308h-304zM232 1937v308h303v-308h-303z" />
    <glyph glyph-name="multiply" unicode="&#xd7;" horiz-adv-x="829" 
d="M65 468l194 194l-194 194l150 151l194 -195l195 195l149 -151l-194 -194q129 -131 194 -194l-149 -150l-195 195l-194 -195z" />
    <glyph glyph-name="Oslash" unicode="&#xd8;" horiz-adv-x="1221" 
d="M773 501l-1 787q0 49 -6.5 90.5t-22.5 84t-50 67t-83 24.5t-83 -24.5t-50 -67t-22.5 -84t-6.5 -90.5v-787q0 -265 163 -265q162 0 162 265zM258 -250l76 277q-250 139 -250 565v605q0 638 526 638q119 0 212 -34l73 266l97 -20l-80 -290q225 -147 225 -560v-596
q0 -108 -16 -199.5t-54.5 -173.5t-98 -139.5t-150.5 -90.5t-208 -33q-101 0 -185 25l-71 -260z" />
    <glyph glyph-name="Ugrave" unicode="&#xd9;" 
d="M99 669v1131h364v-1120q0 -96 1 -139.5t5 -106t14 -87.5t27.5 -54t45.5 -38t68 -9t68 9t45.5 37.5t27.5 53.5t14 86.5t5 104t1 137.5v6v1120h364v-1131q0 -86 -5 -156t-19 -145t-38 -132.5t-64 -110t-94.5 -86.5t-131.5 -54t-173 -20t-173 20t-131 54t-94 86.5t-64 110
t-38.5 132.5t-19.5 145t-5 156zM521 1937l-277 442h346l136 -442h-205z" />
    <glyph glyph-name="Uacute" unicode="&#xda;" 
d="M99 669v1131h364v-1120q0 -96 1 -139.5t5 -106t14 -87.5t27.5 -54t45.5 -38t68 -9t68 9t45.5 37.5t27.5 53.5t14 86.5t5 104t1 137.5v6v1120h364v-1131q0 -86 -5 -156t-19 -145t-38 -132.5t-64 -110t-94.5 -86.5t-131.5 -54t-173 -20t-173 20t-131 54t-94 86.5t-64 110
t-38.5 132.5t-19.5 145t-5 156zM522 1937l136 442h345l-277 -442h-204z" />
    <glyph glyph-name="Ucircumflex" unicode="&#xdb;" 
d="M99 669v1131h364v-1120q0 -96 1 -139.5t5 -106t14 -87.5t27.5 -54t45.5 -38t68 -9t68 9t45.5 37.5t27.5 53.5t14 86.5t5 104t1 137.5v6v1120h364v-1131q0 -86 -5 -156t-19 -145t-38 -132.5t-64 -110t-94.5 -86.5t-131.5 -54t-173 -20t-173 20t-131 54t-94 86.5t-64 110
t-38.5 132.5t-19.5 145t-5 156zM275 1937l201 406h290l206 -406h-275l-75 202l-73 -202h-274z" />
    <glyph glyph-name="Udieresis" unicode="&#xdc;" 
d="M99 669v1131h364v-1120q0 -96 1 -139.5t5 -106t14 -87.5t27.5 -54t45.5 -38t68 -9t68 9t45.5 37.5t27.5 53.5t14 86.5t5 104t1 137.5v6v1120h364v-1131q0 -86 -5 -156t-19 -145t-38 -132.5t-64 -110t-94.5 -86.5t-131.5 -54t-173 -20t-173 20t-131 54t-94 86.5t-64 110
t-38.5 132.5t-19.5 145t-5 156zM699 1937v308h304v-308h-304zM246 1937v308h303v-308h-303z" />
    <glyph glyph-name="Yacute" unicode="&#xdd;" horiz-adv-x="1035" 
d="M337 0v595l-338 1205h343l168 -791q31 130 93 395.5t92 395.5h333l-339 -1205v-595h-352zM415 1937l136 442h345l-277 -442h-204z" />
    <glyph glyph-name="Thorn" unicode="&#xde;" horiz-adv-x="1020" 
d="M481 791q23 0 42 2t34 8.5t26 12t19.5 18.5t14 22t9.5 29t6 32.5t3 39.5t1 43v50v13q0 34 -0.5 51.5t-2 46t-6 43t-11.5 34.5t-18.5 30t-27.5 20.5t-38.5 14.5t-50.5 4v-514zM97 0v1800h383v-236h52q235 0 342 -131t107 -379q0 -120 -23 -209.5t-64 -148t-105.5 -94.5
t-139.5 -51t-174 -17v-534h-378z" />
    <glyph glyph-name="germandbls" unicode="&#xdf;" horiz-adv-x="1193" 
d="M99 0v1358q0 78 17 147.5t53.5 130t89.5 104.5t130 69t171 25q228 0 344.5 -127t116.5 -358q0 -275 -255 -372q73 -20 133.5 -57t101 -84t68.5 -104t40.5 -116t12.5 -121q0 -269 -146 -399.5t-448 -130.5v250q75 0 122.5 18.5t72.5 61t34 97.5t9 143q0 128 -60.5 203.5
t-176.5 76.5v253q44 0 77 26.5t50 70t25 89.5t8 95q0 32 -1 55.5t-4 53.5t-10.5 50t-19 39t-30 28.5t-43.5 9.5q-27 0 -47.5 -9t-33 -27t-20 -36.5t-10.5 -48t-4 -49.5t-1 -52v-1363h-366z" />
    <glyph glyph-name="agrave" unicode="&#xe0;" horiz-adv-x="976" 
d="M552 295v321q-166 -134 -166 -294q0 -40 15.5 -68.5t52.5 -28.5q21 0 41.5 13.5t29.5 23.5t27 33zM620 0l-33 135q-29 -91 -95 -127.5t-164 -36.5q-72 0 -126 28t-84.5 75.5t-45 102t-14.5 114.5q0 68 14 126t35.5 102.5t60 85.5t75 69.5t93.5 59t102 51t113 48.5v110
q0 69 -17 103t-58 34q-28 0 -45.5 -11.5t-24.5 -34.5t-9 -41.5t-2 -49.5v-74h-327q0 225 113 345.5t328 120.5q150 0 263 -109t113 -259v-620q0 -161 43 -347h-308zM391 1437l-277 442h346l136 -442h-205z" />
    <glyph glyph-name="aacute" unicode="&#xe1;" horiz-adv-x="976" 
d="M552 295v321q-166 -134 -166 -294q0 -40 15.5 -68.5t52.5 -28.5q21 0 41.5 13.5t29.5 23.5t27 33zM620 0l-33 135q-29 -91 -95 -127.5t-164 -36.5q-72 0 -126 28t-84.5 75.5t-45 102t-14.5 114.5q0 68 14 126t35.5 102.5t60 85.5t75 69.5t93.5 59t102 51t113 48.5v110
q0 69 -17 103t-58 34q-28 0 -45.5 -11.5t-24.5 -34.5t-9 -41.5t-2 -49.5v-74h-327q0 225 113 345.5t328 120.5q150 0 263 -109t113 -259v-620q0 -161 43 -347h-308zM391 1437l136 442h345l-277 -442h-204z" />
    <glyph glyph-name="acircumflex" unicode="&#xe2;" horiz-adv-x="976" 
d="M552 295v321q-166 -134 -166 -294q0 -40 15.5 -68.5t52.5 -28.5q21 0 41.5 13.5t29.5 23.5t27 33zM620 0l-33 135q-29 -91 -95 -127.5t-164 -36.5q-72 0 -126 28t-84.5 75.5t-45 102t-14.5 114.5q0 68 14 126t35.5 102.5t60 85.5t75 69.5t93.5 59t102 51t113 48.5v110
q0 69 -17 103t-58 34q-28 0 -45.5 -11.5t-24.5 -34.5t-9 -41.5t-2 -49.5v-74h-327q0 225 113 345.5t328 120.5q150 0 263 -109t113 -259v-620q0 -161 43 -347h-308zM145 1437l201 406h290l206 -406h-275l-75 202l-73 -202h-274z" />
    <glyph glyph-name="atilde" unicode="&#xe3;" horiz-adv-x="976" 
d="M552 295v321q-166 -134 -166 -294q0 -40 15.5 -68.5t52.5 -28.5q21 0 41.5 13.5t29.5 23.5t27 33zM620 0l-33 135q-29 -91 -95 -127.5t-164 -36.5q-72 0 -126 28t-84.5 75.5t-45 102t-14.5 114.5q0 68 14 126t35.5 102.5t60 85.5t75 69.5t93.5 59t102 51t113 48.5v110
q0 69 -17 103t-58 34q-28 0 -45.5 -11.5t-24.5 -34.5t-9 -41.5t-2 -49.5v-74h-327q0 225 113 345.5t328 120.5q150 0 263 -109t113 -259v-620q0 -161 43 -347h-308zM322 1448h-167q0 51 3.5 90t15.5 80t31.5 68t53.5 44t81 17q73 0 175.5 -29t125.5 -29q16 0 24.5 7.5
t9.5 15t1 23.5h155q0 -298 -156 -298q-50 0 -153.5 36.5t-150.5 36.5q-15 0 -25 -4.5t-14.5 -8.5t-7 -16t-2.5 -15v-18z" />
    <glyph glyph-name="adieresis" unicode="&#xe4;" horiz-adv-x="976" 
d="M552 295v321q-166 -134 -166 -294q0 -40 15.5 -68.5t52.5 -28.5q21 0 41.5 13.5t29.5 23.5t27 33zM620 0l-33 135q-29 -91 -95 -127.5t-164 -36.5q-72 0 -126 28t-84.5 75.5t-45 102t-14.5 114.5q0 68 14 126t35.5 102.5t60 85.5t75 69.5t93.5 59t102 51t113 48.5v110
q0 69 -17 103t-58 34q-28 0 -45.5 -11.5t-24.5 -34.5t-9 -41.5t-2 -49.5v-74h-327q0 225 113 345.5t328 120.5q150 0 263 -109t113 -259v-620q0 -161 43 -347h-308zM567 1437v308h304v-308h-304zM114 1437v308h303v-308h-303z" />
    <glyph glyph-name="aring" unicode="&#xe5;" horiz-adv-x="976" 
d="M552 295v321q-166 -134 -166 -294q0 -40 15.5 -68.5t52.5 -28.5q21 0 41.5 13.5t29.5 23.5t27 33zM620 0l-33 135q-29 -91 -95 -127.5t-164 -36.5q-72 0 -126 28t-84.5 75.5t-45 102t-14.5 114.5q0 68 14 126t35.5 102.5t60 85.5t75 69.5t93.5 59t102 51t113 48.5v110
q0 69 -17 103t-58 34q-28 0 -45.5 -11.5t-24.5 -34.5t-9 -41.5t-2 -49.5v-74h-327q0 225 113 345.5t328 120.5q150 0 263 -109t113 -259v-620q0 -161 43 -347h-308zM240 1676q0 109 71.5 174t181.5 65t181.5 -65t71.5 -174t-71.5 -174t-181.5 -65t-181.5 65t-71.5 174z
M493 1558q39 0 58.5 37t19.5 80t-19.5 81t-58.5 38q-40 0 -60.5 -37t-20.5 -80q0 -45 20 -82t61 -37z" />
    <glyph glyph-name="ae" unicode="&#xe6;" horiz-adv-x="1427" 
d="M894 964v-160q8 2 21.5 5t48 16.5t60.5 30.5t47.5 47t21.5 65q0 46 -28.5 78t-86.5 32q-36 0 -60 -38.5t-24 -75.5zM581 421l-6 165q-67 -23 -111.5 -51.5t-64.5 -60t-26.5 -58.5t-6.5 -62q0 -50 24 -89.5t69 -39.5q61 0 91.5 57t30.5 139zM400 869h-327q0 218 109 342.5
t304 124.5q4 0 14 -0.5t14 -0.5q55 -2 112 -30.5t92 -71.5q45 46 115.5 74t144.5 28q82 0 156.5 -31.5t124.5 -80.5t79.5 -108.5t29.5 -116.5q0 -55 -19 -101t-43 -77.5t-71.5 -59t-77.5 -41.5t-89 -29t-78.5 -18.5t-73.5 -12.5q-7 -2 -12 -2.5t-10 -1.5v-309
q0 -110 64 -110q70 0 70 148q0 23 -1.5 58t-1.5 44h334v-147q0 -164 -103 -261.5t-268 -106.5q-92 0 -177 49.5t-108 124.5q-44 -80 -134 -127t-178 -47t-161 34t-120 108.5t-47 177.5q0 68 13.5 123t34 95.5t58.5 74t73.5 55.5t93 43t103.5 34t117 30v135q0 189 -87 189
q-72 0 -72 -120q0 -16 1.5 -43.5t1.5 -37.5z" />
    <glyph glyph-name="ccedilla" unicode="&#xe7;" horiz-adv-x="928" 
d="M78 334v560q0 208 99 324.5t302 116.5q204 0 302.5 -116t98.5 -325v-114h-331v149q0 78 -13.5 114.5t-56.5 36.5q-64 0 -64 -99v-646q0 -110 64 -110q24 0 38.5 10t21 34t8.5 49.5t2 71.5v139h331v-195q0 -108 -56 -192.5t-147 -127.5t-198 -43q-165 0 -283 100.5
t-118 262.5zM338 -571v161q3 0 21.5 -0.5t36 -0.5t42 0.5t44.5 3.5t38 7t28.5 12.5t10.5 19.5q0 10 -4 19.5t-12.5 18t-16.5 16t-22 15t-23 12.5t-25.5 11.5t-23 9.5t-21.5 8t-17 6v242h171v-129q221 -104 221 -233q0 -41 -18.5 -73.5t-45.5 -53t-70.5 -35t-79 -21.5
t-87 -11t-78.5 -4.5t-69 -0.5z" />
    <glyph glyph-name="egrave" unicode="&#xe8;" horiz-adv-x="940" 
d="M415 801h131v180q0 99 -67 99q-64 0 -64 -99v-180zM78 339v555q0 208 99 324.5t302 116.5q204 0 302.5 -116t98.5 -325v-270h-465v-289q0 -110 64 -110q70 0 70 118v143h331v-147q0 -163 -118 -265.5t-283 -102.5t-283 103t-118 265zM377 1437l-277 442h346l136 -442
h-205z" />
    <glyph glyph-name="eacute" unicode="&#xe9;" horiz-adv-x="940" 
d="M415 801h131v180q0 99 -67 99q-64 0 -64 -99v-180zM78 339v555q0 208 99 324.5t302 116.5q204 0 302.5 -116t98.5 -325v-270h-465v-289q0 -110 64 -110q70 0 70 118v143h331v-147q0 -163 -118 -265.5t-283 -102.5t-283 103t-118 265zM377 1437l136 442h345l-277 -442
h-204z" />
    <glyph glyph-name="ecircumflex" unicode="&#xea;" horiz-adv-x="940" 
d="M415 801h131v180q0 99 -67 99q-64 0 -64 -99v-180zM78 339v555q0 208 99 324.5t302 116.5q204 0 302.5 -116t98.5 -325v-270h-465v-289q0 -110 64 -110q70 0 70 118v143h331v-147q0 -163 -118 -265.5t-283 -102.5t-283 103t-118 265zM131 1437l201 406h290l206 -406h-275
l-75 202l-73 -202h-274z" />
    <glyph glyph-name="edieresis" unicode="&#xeb;" horiz-adv-x="940" 
d="M415 801h131v180q0 99 -67 99q-64 0 -64 -99v-180zM78 339v555q0 208 99 324.5t302 116.5q204 0 302.5 -116t98.5 -325v-270h-465v-289q0 -110 64 -110q70 0 70 118v143h331v-147q0 -163 -118 -265.5t-283 -102.5t-283 103t-118 265zM553 1437v308h304v-308h-304z
M100 1437v308h303v-308h-303z" />
    <glyph glyph-name="igrave" unicode="&#xec;" horiz-adv-x="532" 
d="M124 0v1305h337v-1305h-337zM190 1436l-277 442h346l136 -442h-205z" />
    <glyph glyph-name="iacute" unicode="&#xed;" horiz-adv-x="532" 
d="M124 0v1305h337v-1305h-337zM191 1436l136 442h345l-277 -442h-204z" />
    <glyph glyph-name="icircumflex" unicode="&#xee;" horiz-adv-x="532" 
d="M124 0v1305h337v-1305h-337zM-56 1436l201 406h290l206 -406h-275l-75 202l-73 -202h-274z" />
    <glyph glyph-name="idieresis" unicode="&#xef;" horiz-adv-x="532" 
d="M124 0v1305h337v-1305h-337zM367 1436v308h304v-308h-304zM-86 1436v308h303v-308h-303z" />
    <glyph glyph-name="eth" unicode="&#xf0;" horiz-adv-x="988" 
d="M552 340v534q0 32 -19 50t-46 18t-46 -19t-19 -55v-528q0 -21 1.5 -35.5t7 -32t19 -27t33.5 -9.5q69 0 69 104zM87 341v551q0 142 88 228t205 86q99 0 173 -58q0 144 -12 212l-154 -78l-66 140l155 79q-70 69 -260 69l48 265q351 0 501 -187l143 73l66 -140l-134 -68
q49 -133 49 -325v-847q0 -108 -57.5 -194t-149.5 -131t-199 -45q-164 0 -280 103.5t-116 266.5z" />
    <glyph glyph-name="ntilde" unicode="&#xf1;" horiz-adv-x="1005" 
d="M94 0v1305h337v-92q48 55 115.5 88t140.5 33q69 0 123.5 -43.5t81 -107t26.5 -131.5v-1052h-337v993q0 87 -56 87q-6 0 -12.5 -1.5t-13 -5t-11.5 -6t-12 -8.5l-10.5 -9t-10.5 -10.5t-9 -10t-8 -9.5l-7 -8v-1012h-337zM335 1447h-167q0 51 3.5 90t15.5 80t31.5 68t53.5 44
t81 17q73 0 175.5 -29t125.5 -29q16 0 24.5 7.5t9.5 15t1 23.5h155q0 -298 -156 -298q-50 0 -153.5 36.5t-150.5 36.5q-15 0 -25 -4.5t-14.5 -8.5t-7 -16t-2.5 -15v-18z" />
    <glyph glyph-name="ograve" unicode="&#xf2;" horiz-adv-x="973" 
d="M561 335v646q0 99 -77 99q-69 0 -69 -99v-646q0 -22 1.5 -36.5t7.5 -34t21 -29.5t39 -10q77 0 77 110zM78 339v555q0 209 98.5 324.5t307.5 115.5t310 -115.5t101 -324.5v-555q0 -163 -121 -265.5t-290 -102.5q-109 0 -201 44.5t-148.5 130t-56.5 193.5zM384 1436
l-277 442h346l136 -442h-205z" />
    <glyph glyph-name="oacute" unicode="&#xf3;" horiz-adv-x="973" 
d="M561 335v646q0 99 -77 99q-69 0 -69 -99v-646q0 -22 1.5 -36.5t7.5 -34t21 -29.5t39 -10q77 0 77 110zM78 339v555q0 209 98.5 324.5t307.5 115.5t310 -115.5t101 -324.5v-555q0 -163 -121 -265.5t-290 -102.5q-109 0 -201 44.5t-148.5 130t-56.5 193.5zM385 1436
l136 442h345l-277 -442h-204z" />
    <glyph glyph-name="ocircumflex" unicode="&#xf4;" horiz-adv-x="973" 
d="M561 335v646q0 99 -77 99q-69 0 -69 -99v-646q0 -22 1.5 -36.5t7.5 -34t21 -29.5t39 -10q77 0 77 110zM78 339v555q0 209 98.5 324.5t307.5 115.5t310 -115.5t101 -324.5v-555q0 -163 -121 -265.5t-290 -102.5q-109 0 -201 44.5t-148.5 130t-56.5 193.5zM138 1436
l201 406h290l206 -406h-275l-75 202l-73 -202h-274z" />
    <glyph glyph-name="otilde" unicode="&#xf5;" horiz-adv-x="973" 
d="M561 335v646q0 99 -77 99q-69 0 -69 -99v-646q0 -22 1.5 -36.5t7.5 -34t21 -29.5t39 -10q77 0 77 110zM78 339v555q0 209 98.5 324.5t307.5 115.5t310 -115.5t101 -324.5v-555q0 -163 -121 -265.5t-290 -102.5q-109 0 -201 44.5t-148.5 130t-56.5 193.5zM302 1444h-167
q0 51 3.5 90t15.5 80t31.5 68t53.5 44t81 17q73 0 175.5 -29t125.5 -29q16 0 24.5 7.5t9.5 15t1 23.5h155q0 -298 -156 -298q-50 0 -153.5 36.5t-150.5 36.5q-15 0 -25 -4.5t-14.5 -8.5t-7 -16t-2.5 -15v-18z" />
    <glyph glyph-name="odieresis" unicode="&#xf6;" horiz-adv-x="973" 
d="M561 335v646q0 99 -77 99q-69 0 -69 -99v-646q0 -22 1.5 -36.5t7.5 -34t21 -29.5t39 -10q77 0 77 110zM78 339v555q0 209 98.5 324.5t307.5 115.5t310 -115.5t101 -324.5v-555q0 -163 -121 -265.5t-290 -102.5q-109 0 -201 44.5t-148.5 130t-56.5 193.5zM561 1436v308
h304v-308h-304zM108 1436v308h303v-308h-303z" />
    <glyph glyph-name="divide" unicode="&#xf7;" horiz-adv-x="696" 
d="M200 236v287h287v-287h-287zM200 890v287h287v-287h-287zM6 583v223h676v-223h-676z" />
    <glyph glyph-name="oslash" unicode="&#xf8;" horiz-adv-x="983" 
d="M566 346v618q0 99 -77 99q-69 0 -69 -99v-618q0 -22 1.5 -36.5t7.5 -34t21 -29.5t39 -10q77 0 77 110zM208 -233l73 254q-91 47 -144.5 129.5t-53.5 188.5v555q0 209 98.5 324.5t307.5 115.5q91 0 163 -23l73 253l77 -20l-77 -266q175 -103 175 -384v-555
q0 -163 -121 -265t-290 -102q-69 0 -135 20l-70 -245z" />
    <glyph glyph-name="ugrave" unicode="&#xf9;" horiz-adv-x="1006" 
d="M87 253v1052h337v-970q0 -110 46 -110q45 0 105 74v1006h337v-1305h-337v113q-51 -62 -119 -102t-138 -40q-103 0 -167 87.5t-64 194.5zM397 1436l-277 442h346l136 -442h-205z" />
    <glyph glyph-name="uacute" unicode="&#xfa;" horiz-adv-x="1006" 
d="M87 253v1052h337v-970q0 -110 46 -110q45 0 105 74v1006h337v-1305h-337v113q-51 -62 -119 -102t-138 -40q-103 0 -167 87.5t-64 194.5zM397 1436l136 442h345l-277 -442h-204z" />
    <glyph glyph-name="ucircumflex" unicode="&#xfb;" horiz-adv-x="1006" 
d="M87 253v1052h337v-970q0 -110 46 -110q45 0 105 74v1006h337v-1305h-337v113q-51 -62 -119 -102t-138 -40q-103 0 -167 87.5t-64 194.5zM151 1436l201 406h290l206 -406h-275l-75 202l-73 -202h-274z" />
    <glyph glyph-name="udieresis" unicode="&#xfc;" horiz-adv-x="1006" 
d="M87 253v1052h337v-970q0 -110 46 -110q45 0 105 74v1006h337v-1305h-337v113q-51 -62 -119 -102t-138 -40q-103 0 -167 87.5t-64 194.5zM574 1436v308h304v-308h-304zM121 1436v308h303v-308h-303z" />
    <glyph glyph-name="yacute" unicode="&#xfd;" horiz-adv-x="872" 
d="M270 117q0 131 -53 381.5t-123 514.5t-76 292h307l121 -728l106 728h309l-285 -1340q-15 -68 -46 -118.5t-70.5 -80t-95 -47.5t-110 -24t-124.5 -6h-43v233q100 2 141.5 47.5t41.5 147.5zM316 1393l136 442h345l-277 -442h-204z" />
    <glyph glyph-name="thorn" unicode="&#xfe;" horiz-adv-x="988" 
d="M99 -371v2171h337v-583q39 53 93 85.5t114 32.5q110 0 184.5 -86t74.5 -198v-801q0 -112 -74.5 -195.5t-184.5 -83.5q-61 0 -115.5 34t-91.5 93v-469h-337zM567 310v687q0 86 -46 86q-5 0 -10.5 -1.5t-10 -4t-10 -7t-9.5 -7.5t-9.5 -9.5t-8.5 -10t-8 -11t-7 -10t-7 -9.5
t-5 -8v-708q39 -61 64 -75q11 -6 21 -6q20 0 31 16t13 33.5t2 44.5z" />
    <glyph glyph-name="ydieresis" unicode="&#xff;" horiz-adv-x="872" 
d="M270 117q0 131 -53 381.5t-123 514.5t-76 292h307l121 -728l106 728h309l-285 -1340q-15 -68 -46 -118.5t-70.5 -80t-95 -47.5t-110 -24t-124.5 -6h-43v233q100 2 141.5 47.5t41.5 147.5zM505 1492v308h304v-308h-304zM52 1492v308h303v-308h-303z" />
    <glyph glyph-name="Amacron" unicode="&#x100;" horiz-adv-x="1135" 
d="M465 609h186l-91 668zM9 0l389 1800h322l388 -1800h-359l-74 385h-235l-70 -385h-361zM314 1937v193h507v-193h-507z" />
    <glyph glyph-name="amacron" unicode="&#x101;" horiz-adv-x="976" 
d="M552 295v321q-166 -134 -166 -294q0 -40 15.5 -68.5t52.5 -28.5q21 0 41.5 13.5t29.5 23.5t27 33zM620 0l-33 135q-29 -91 -95 -127.5t-164 -36.5q-72 0 -126 28t-84.5 75.5t-45 102t-14.5 114.5q0 68 14 126t35.5 102.5t60 85.5t75 69.5t93.5 59t102 51t113 48.5v110
q0 69 -17 103t-58 34q-28 0 -45.5 -11.5t-24.5 -34.5t-9 -41.5t-2 -49.5v-74h-327q0 225 113 345.5t328 120.5q150 0 263 -109t113 -259v-620q0 -161 43 -347h-308zM240 1437v193h507v-193h-507z" />
    <glyph glyph-name="Abreve" unicode="&#x102;" horiz-adv-x="1135" 
d="M465 609h186l-91 668zM9 0l389 1800h322l388 -1800h-359l-74 385h-235l-70 -385h-361zM315 2185h172q0 -28 7 -55t26 -49.5t48 -22.5t48 22.5t26 49.5t7 55h172q0 -110 -71 -179t-182 -69t-182 69t-71 179z" />
    <glyph glyph-name="abreve" unicode="&#x103;" horiz-adv-x="976" 
d="M552 295v321q-166 -134 -166 -294q0 -40 15.5 -68.5t52.5 -28.5q21 0 41.5 13.5t29.5 23.5t27 33zM620 0l-33 135q-29 -91 -95 -127.5t-164 -36.5q-72 0 -126 28t-84.5 75.5t-45 102t-14.5 114.5q0 68 14 126t35.5 102.5t60 85.5t75 69.5t93.5 59t102 51t113 48.5v110
q0 69 -17 103t-58 34q-28 0 -45.5 -11.5t-24.5 -34.5t-9 -41.5t-2 -49.5v-74h-327q0 225 113 345.5t328 120.5q150 0 263 -109t113 -259v-620q0 -161 43 -347h-308zM240 1685h172q0 -28 7 -55t26 -49.5t48 -22.5t48 22.5t26 49.5t7 55h172q0 -110 -71 -179t-182 -69t-182 69
t-71 179z" />
    <glyph glyph-name="Aogonek" unicode="&#x104;" horiz-adv-x="1135" 
d="M465 609h186l-91 668zM9 0l389 1800h322l388 -1800h-359l-74 385h-235l-70 -385h-361zM1046 -356l-21 -160q-41 -3 -86.5 0t-89.5 7.5t-84.5 20.5t-71.5 39t-49 63.5t-18 92.5q0 78 44 164.5t107 146.5h148q-7 -20 -23 -61.5t-25 -66t-16.5 -61t-7.5 -68.5q0 -28 8 -49.5
t25.5 -33.5t33 -19.5t43 -10.5t41.5 -3.5t42 -0.5z" />
    <glyph glyph-name="aogonek" unicode="&#x105;" horiz-adv-x="976" 
d="M552 295v321q-166 -134 -166 -294q0 -40 15.5 -68.5t52.5 -28.5q21 0 41.5 13.5t29.5 23.5t27 33zM620 0l-33 135q-29 -91 -95 -127.5t-164 -36.5q-72 0 -126 28t-84.5 75.5t-45 102t-14.5 114.5q0 68 14 126t35.5 102.5t60 85.5t75 69.5t93.5 59t102 51t113 48.5v110
q0 69 -17 103t-58 34q-28 0 -45.5 -11.5t-24.5 -34.5t-9 -41.5t-2 -49.5v-74h-327q0 225 113 345.5t328 120.5q150 0 263 -109t113 -259v-620q0 -161 43 -347h-308zM902 -365l-21 -160q-41 -3 -86.5 0t-89.5 7.5t-84.5 20.5t-71.5 39t-49 63.5t-18 92.5q0 78 44 164.5
t107 146.5h148q-7 -20 -23 -61.5t-25 -66t-16.5 -61t-7.5 -68.5q0 -28 8 -49.5t25.5 -33.5t33 -19.5t43 -10.5t41.5 -3.5t42 -0.5z" />
    <glyph glyph-name="Cacute" unicode="&#x106;" horiz-adv-x="1174" 
d="M84 601v596q0 638 522 638q110 0 195.5 -29.5t143.5 -81.5t95.5 -128t54 -165t16.5 -196v-155h-358v166q0 49 -2 84.5t-10.5 81t-23 74t-43 48.5t-68.5 20q-158 0 -158 -266v-777q0 -265 158 -265q47 0 79 27t46 76.5t19 97t5 108.5v185h356v-152q-2 -103 -17 -190
t-51 -169t-91.5 -138.5t-143.5 -91t-202 -34.5q-117 0 -207.5 33.5t-149 90t-96.5 139t-53.5 173.5t-15.5 200zM495 1937l136 442h345l-277 -442h-204z" />
    <glyph glyph-name="cacute" unicode="&#x107;" horiz-adv-x="928" 
d="M78 334v560q0 208 99 324.5t302 116.5q204 0 302.5 -116t98.5 -325v-114h-331v149q0 78 -13.5 114.5t-56.5 36.5q-64 0 -64 -99v-646q0 -110 64 -110q24 0 38.5 10t21 34t8.5 49.5t2 71.5v139h331v-195q0 -108 -56 -192.5t-147 -127.5t-198 -43q-165 0 -283 100.5
t-118 262.5zM377 1437l136 442h345l-277 -442h-204z" />
    <glyph glyph-name="Ccircumflex" unicode="&#x108;" horiz-adv-x="1174" 
d="M84 601v596q0 638 522 638q110 0 195.5 -29.5t143.5 -81.5t95.5 -128t54 -165t16.5 -196v-155h-358v166q0 49 -2 84.5t-10.5 81t-23 74t-43 48.5t-68.5 20q-158 0 -158 -266v-777q0 -265 158 -265q47 0 79 27t46 76.5t19 97t5 108.5v185h356v-152q-2 -103 -17 -190
t-51 -169t-91.5 -138.5t-143.5 -91t-202 -34.5q-117 0 -207.5 33.5t-149 90t-96.5 139t-53.5 173.5t-15.5 200zM249 1937l201 406h290l206 -406h-275l-75 202l-73 -202h-274z" />
    <glyph glyph-name="ccircumflex" unicode="&#x109;" horiz-adv-x="928" 
d="M78 334v560q0 208 99 324.5t302 116.5q204 0 302.5 -116t98.5 -325v-114h-331v149q0 78 -13.5 114.5t-56.5 36.5q-64 0 -64 -99v-646q0 -110 64 -110q24 0 38.5 10t21 34t8.5 49.5t2 71.5v139h331v-195q0 -108 -56 -192.5t-147 -127.5t-198 -43q-165 0 -283 100.5
t-118 262.5zM131 1437l201 406h290l206 -406h-275l-75 202l-73 -202h-274z" />
    <glyph glyph-name="Cdotaccent" unicode="&#x10a;" horiz-adv-x="1174" 
d="M84 601v596q0 638 522 638q110 0 195.5 -29.5t143.5 -81.5t95.5 -128t54 -165t16.5 -196v-155h-358v166q0 49 -2 84.5t-10.5 81t-23 74t-43 48.5t-68.5 20q-158 0 -158 -266v-777q0 -265 158 -265q47 0 79 27t46 76.5t19 97t5 108.5v185h356v-152q-2 -103 -17 -190
t-51 -169t-91.5 -138.5t-143.5 -91t-202 -34.5q-117 0 -207.5 33.5t-149 90t-96.5 139t-53.5 173.5t-15.5 200zM436 1937v318h323v-318h-323z" />
    <glyph glyph-name="cdotaccent" unicode="&#x10b;" horiz-adv-x="928" 
d="M78 334v560q0 208 99 324.5t302 116.5q204 0 302.5 -116t98.5 -325v-114h-331v149q0 78 -13.5 114.5t-56.5 36.5q-64 0 -64 -99v-646q0 -110 64 -110q24 0 38.5 10t21 34t8.5 49.5t2 71.5v139h331v-195q0 -108 -56 -192.5t-147 -127.5t-198 -43q-165 0 -283 100.5
t-118 262.5zM318 1437v318h323v-318h-323z" />
    <glyph glyph-name="Ccaron" unicode="&#x10c;" horiz-adv-x="1174" 
d="M84 601v596q0 638 522 638q110 0 195.5 -29.5t143.5 -81.5t95.5 -128t54 -165t16.5 -196v-155h-358v166q0 49 -2 84.5t-10.5 81t-23 74t-43 48.5t-68.5 20q-158 0 -158 -266v-777q0 -265 158 -265q47 0 79 27t46 76.5t19 97t5 108.5v185h356v-152q-2 -103 -17 -190
t-51 -169t-91.5 -138.5t-143.5 -91t-202 -34.5q-117 0 -207.5 33.5t-149 90t-96.5 139t-53.5 173.5t-15.5 200zM450 1937l-201 406h274l73 -201l75 201h275l-206 -406h-290z" />
    <glyph glyph-name="ccaron" unicode="&#x10d;" horiz-adv-x="928" 
d="M78 334v560q0 208 99 324.5t302 116.5q204 0 302.5 -116t98.5 -325v-114h-331v149q0 78 -13.5 114.5t-56.5 36.5q-64 0 -64 -99v-646q0 -110 64 -110q24 0 38.5 10t21 34t8.5 49.5t2 71.5v139h331v-195q0 -108 -56 -192.5t-147 -127.5t-198 -43q-165 0 -283 100.5
t-118 262.5zM331 1437l-201 406h274l73 -201l75 201h275l-206 -406h-290z" />
    <glyph glyph-name="Dcaron" unicode="&#x10e;" horiz-adv-x="1164" 
d="M107 0v1800h376q180 0 296.5 -32.5t183 -107t92 -178.5t25.5 -265v-590q0 -96 -6 -167.5t-22.5 -140t-45 -116t-73.5 -88.5t-108.5 -65t-149 -37t-196.5 -13h-372zM485 255q52 0 82 1.5t60 7.5t44 16.5t26 30.5t15.5 47.5t3.5 68.5v969q0 89 -53 118t-178 30v-1289z
M446 1937l-201 406h274l73 -201l75 201h275l-206 -406h-290z" />
    <glyph glyph-name="dcaron" unicode="&#x10f;" horiz-adv-x="999" 
d="M79 250v771q0 124 78 219t193 95q63 0 119.5 -32.5t97.5 -85.5v583h337v-1800h-337v98q-40 -59 -100 -93t-127 -34q-111 0 -186 83.5t-75 195.5zM567 297v708q-57 75 -95 75q-56 0 -56 -86v-675q0 -27 2.5 -44.5t16 -33.5t37.5 -16q43 0 95 72zM1126 1239l-40 166h15
q26 0 35.5 0.5t18.5 9t10.5 22.5t1.5 45h-110v318h323v-88q1 -115 -0.5 -170t-13.5 -132.5t-38 -109t-76.5 -52t-125.5 -9.5z" />
    <glyph glyph-name="Dcroat" unicode="&#x110;" horiz-adv-x="1156" 
d="M461 255h15q50 0 80 2t59 8t44 16.5t27 30.5t16 47t4 68v969q0 90 -53.5 118.5t-180.5 29.5h-11v-532h124v-183h-124v-574zM97 0v829h-92v183h92v788h376q180 0 296.5 -32.5t183 -107t92 -178.5t25.5 -265v-590q0 -96 -6 -167.5t-22.5 -140t-45 -116t-73.5 -88.5
t-108.5 -65t-149 -37t-196.5 -13h-372z" />
    <glyph glyph-name="dcroat" unicode="&#x111;" horiz-adv-x="999" 
d="M567 297v708q-57 75 -95 75q-56 0 -56 -86v-675q0 -27 2.5 -44.5t16 -33.5t37.5 -16q43 0 95 72zM79 250v771q0 124 78 219t193 95q63 0 119.5 -32.5t97.5 -85.5v287h-283v133h283v163h337v-163h95v-133h-95v-1504h-337v98q-40 -59 -100 -93t-127 -34q-111 0 -186 83.5
t-75 195.5z" />
    <glyph glyph-name="Emacron" unicode="&#x112;" horiz-adv-x="889" 
d="M107 0v1800h751v-250h-387v-490h274v-256h-274v-554h387v-250h-751zM229 1937v193h507v-193h-507z" />
    <glyph glyph-name="emacron" unicode="&#x113;" horiz-adv-x="940" 
d="M415 801h131v180q0 99 -67 99q-64 0 -64 -99v-180zM78 339v555q0 208 99 324.5t302 116.5q204 0 302.5 -116t98.5 -325v-270h-465v-289q0 -110 64 -110q70 0 70 118v143h331v-147q0 -163 -118 -265.5t-283 -102.5t-283 103t-118 265zM216 1457v193h507v-193h-507z" />
    <glyph glyph-name="Edotaccent" unicode="&#x116;" horiz-adv-x="881" 
d="M321 1957v318h323v-318h-323zM107 0v1800h751v-250h-387v-490h274v-256h-274v-554h387v-250h-751z" />
    <glyph glyph-name="edotaccent" unicode="&#x117;" horiz-adv-x="940" 
d="M318 1457v318h323v-318h-323zM415 801h131v180q0 99 -67 99q-64 0 -64 -99v-180zM78 339v555q0 208 99 324.5t302 116.5q204 0 302.5 -116t98.5 -325v-270h-465v-289q0 -110 64 -110q70 0 70 118v143h331v-147q0 -163 -118 -265.5t-283 -102.5t-283 103t-118 265z" />
    <glyph glyph-name="Eogonek" unicode="&#x118;" horiz-adv-x="889" 
d="M107 0v1800h751v-250h-387v-490h274v-256h-274v-554h387v-250h-751zM752 -356l-21 -160q-41 -3 -86.5 0t-89.5 7.5t-84.5 20.5t-71.5 39t-49 63.5t-18 92.5q0 78 44 164.5t107 146.5h148q-7 -20 -23 -61.5t-25 -66t-16.5 -61t-7.5 -68.5q0 -28 8 -49.5t25.5 -33.5
t33 -19.5t43 -10.5t41.5 -3.5t42 -0.5z" />
    <glyph glyph-name="eogonek" unicode="&#x119;" horiz-adv-x="940" 
d="M415 801h131v180q0 99 -67 99q-64 0 -64 -99v-180zM78 339v555q0 208 99 324.5t302 116.5q204 0 302.5 -116t98.5 -325v-270h-465v-289q0 -110 64 -110q70 0 70 118v143h331v-147q0 -163 -118 -265.5t-283 -102.5t-283 103t-118 265zM659 -366l-21 -160q-41 -3 -86.5 0
t-89.5 7.5t-84.5 20.5t-71.5 39t-49 63.5t-18 92.5q0 78 44 164.5t107 146.5h148q-7 -20 -23 -61.5t-25 -66t-16.5 -61t-7.5 -68.5q0 -28 8 -49.5t25.5 -33.5t33 -19.5t43 -10.5t41.5 -3.5t42 -0.5z" />
    <glyph glyph-name="Ecaron" unicode="&#x11a;" horiz-adv-x="889" 
d="M107 0v1800h751v-250h-387v-490h274v-256h-274v-554h387v-250h-751zM335 1937l-201 406h274l73 -201l75 201h275l-206 -406h-290z" />
    <glyph glyph-name="ecaron" unicode="&#x11b;" horiz-adv-x="940" 
d="M415 801h131v180q0 99 -67 99q-64 0 -64 -99v-180zM78 339v555q0 208 99 324.5t302 116.5q204 0 302.5 -116t98.5 -325v-270h-465v-289q0 -110 64 -110q70 0 70 118v143h331v-147q0 -163 -118 -265.5t-283 -102.5t-283 103t-118 265zM331 1437l-201 406h274l73 -201
l75 201h275l-206 -406h-290z" />
    <glyph glyph-name="Gcircumflex" unicode="&#x11c;" horiz-adv-x="1238" 
d="M84 563v634q0 638 531 638q112 0 199.5 -29.5t146.5 -81.5t97 -128t55 -165t17 -196v-106h-348v126q0 47 -2.5 82.5t-12.5 79t-27 71.5t-49 47t-76 19q-167 0 -167 -266v-777q0 -265 167 -265q166 0 166 275v144h-206v261h570v-926h-250l-46 126q-46 -72 -131 -116.5
t-175 -44.5q-97 0 -176.5 35.5t-131 94t-86.5 137.5t-50 161.5t-15 169.5zM266 1937l201 406h290l206 -406h-275l-75 202l-73 -202h-274z" />
    <glyph glyph-name="gcircumflex" unicode="&#x11d;" horiz-adv-x="965" 
d="M358 79h-24q-45 -71 -45 -125q0 -59 222 -59h6q114 -1 114 68q0 24 -13 43.5t-38.5 31.5t-50.5 20t-61 12t-57.5 6t-52.5 3zM462 632q82 0 82 232q0 238 -77 238q-19 0 -33.5 -10t-23 -30.5t-14 -42t-8 -54t-3 -56t-0.5 -58.5q0 -219 77 -219zM328 339q0 -24 34.5 -40
t89.5 -26.5t121.5 -21.5t133.5 -28.5t122 -42.5t89.5 -70t34.5 -105q0 -83 -24.5 -145.5t-65 -100t-100.5 -60.5t-122 -31.5t-138 -8.5q-481 0 -481 235q0 69 38 137.5t99 112.5q-41 21 -79 49.5t-38 54.5q0 57 133 226q-102 186 -102 374q0 96 22.5 180.5t68.5 154.5
t124.5 111t181.5 41q154 0 232 -83q73 83 245 83h42l-28 -241q-99 0 -143 -44q42 -75 42 -227q0 -89 -26.5 -169t-76 -142t-127 -98t-171.5 -36q-18 0 -45 4t-45 8l-18 3q-23 -45 -23 -54zM157 1437l201 406h290l206 -406h-275l-75 202l-73 -202h-274z" />
    <glyph glyph-name="Gbreve" unicode="&#x11e;" horiz-adv-x="1238" 
d="M84 563v634q0 638 531 638q112 0 199.5 -29.5t146.5 -81.5t97 -128t55 -165t17 -196v-106h-348v126q0 47 -2.5 82.5t-12.5 79t-27 71.5t-49 47t-76 19q-167 0 -167 -266v-777q0 -265 167 -265q166 0 166 275v144h-206v261h570v-926h-250l-46 126q-46 -72 -131 -116.5
t-175 -44.5q-97 0 -176.5 35.5t-131 94t-86.5 137.5t-50 161.5t-15 169.5zM361 2185h172q0 -28 7 -55t26 -49.5t48 -22.5t48 22.5t26 49.5t7 55h172q0 -110 -71 -179t-182 -69t-182 69t-71 179z" />
    <glyph glyph-name="gbreve" unicode="&#x11f;" horiz-adv-x="965" 
d="M358 79h-24q-45 -71 -45 -125q0 -59 222 -59h6q114 -1 114 68q0 24 -13 43.5t-38.5 31.5t-50.5 20t-61 12t-57.5 6t-52.5 3zM462 632q82 0 82 232q0 238 -77 238q-19 0 -33.5 -10t-23 -30.5t-14 -42t-8 -54t-3 -56t-0.5 -58.5q0 -219 77 -219zM328 339q0 -24 34.5 -40
t89.5 -26.5t121.5 -21.5t133.5 -28.5t122 -42.5t89.5 -70t34.5 -105q0 -83 -24.5 -145.5t-65 -100t-100.5 -60.5t-122 -31.5t-138 -8.5q-481 0 -481 235q0 69 38 137.5t99 112.5q-41 21 -79 49.5t-38 54.5q0 57 133 226q-102 186 -102 374q0 96 22.5 180.5t68.5 154.5
t124.5 111t181.5 41q154 0 232 -83q73 83 245 83h42l-28 -241q-99 0 -143 -44q42 -75 42 -227q0 -89 -26.5 -169t-76 -142t-127 -98t-171.5 -36q-18 0 -45 4t-45 8l-18 3q-23 -45 -23 -54zM253 1685h172q0 -28 7 -55t26 -49.5t48 -22.5t48 22.5t26 49.5t7 55h172
q0 -110 -71 -179t-182 -69t-182 69t-71 179z" />
    <glyph glyph-name="Gdotaccent" unicode="&#x120;" horiz-adv-x="1238" 
d="M84 563v634q0 638 531 638q112 0 199.5 -29.5t146.5 -81.5t97 -128t55 -165t17 -196v-106h-348v126q0 47 -2.5 82.5t-12.5 79t-27 71.5t-49 47t-76 19q-167 0 -167 -266v-777q0 -265 167 -265q166 0 166 275v144h-206v261h570v-926h-250l-46 126q-46 -72 -131 -116.5
t-175 -44.5q-97 0 -176.5 35.5t-131 94t-86.5 137.5t-50 161.5t-15 169.5zM453 1937v318h323v-318h-323z" />
    <glyph glyph-name="gdotaccent" unicode="&#x121;" horiz-adv-x="965" 
d="M358 79h-24q-45 -71 -45 -125q0 -59 222 -59h6q114 -1 114 68q0 24 -13 43.5t-38.5 31.5t-50.5 20t-61 12t-57.5 6t-52.5 3zM462 632q82 0 82 232q0 238 -77 238q-19 0 -33.5 -10t-23 -30.5t-14 -42t-8 -54t-3 -56t-0.5 -58.5q0 -219 77 -219zM328 339q0 -24 34.5 -40
t89.5 -26.5t121.5 -21.5t133.5 -28.5t122 -42.5t89.5 -70t34.5 -105q0 -83 -24.5 -145.5t-65 -100t-100.5 -60.5t-122 -31.5t-138 -8.5q-481 0 -481 235q0 69 38 137.5t99 112.5q-41 21 -79 49.5t-38 54.5q0 57 133 226q-102 186 -102 374q0 96 22.5 180.5t68.5 154.5
t124.5 111t181.5 41q154 0 232 -83q73 83 245 83h42l-28 -241q-99 0 -143 -44q42 -75 42 -227q0 -89 -26.5 -169t-76 -142t-127 -98t-171.5 -36q-18 0 -45 4t-45 8l-18 3q-23 -45 -23 -54zM344 1437v318h323v-318h-323z" />
    <glyph glyph-name="uni0122" unicode="&#x122;" horiz-adv-x="1238" 
d="M84 563v634q0 638 531 638q112 0 199.5 -29.5t146.5 -81.5t97 -128t55 -165t17 -196v-106h-348v126q0 47 -2.5 82.5t-12.5 79t-27 71.5t-49 47t-76 19q-167 0 -167 -266v-777q0 -265 167 -265q166 0 166 275v144h-206v261h570v-926h-250l-46 126q-46 -72 -131 -116.5
t-175 -44.5q-97 0 -176.5 35.5t-131 94t-86.5 137.5t-50 161.5t-15 169.5zM521 -698l-40 166h15q26 0 35.5 0.5t18.5 9t10.5 22.5t1.5 45h-110v318h323q0 -39 1 -114v-149t-10 -125t-31.5 -95t-63.5 -60.5t-106 -21.5q-16 0 -44 4z" />
    <glyph glyph-name="uni0123" unicode="&#x123;" horiz-adv-x="965" 
d="M574 1980l40 -166h-15q-26 0 -35.5 -0.5t-18.5 -9t-10.5 -22.5t-1.5 -45h110v-318h-323q-5 130 -0.5 234t23.5 176.5t75.5 111.5t155.5 39zM358 79h-24q-45 -71 -45 -125q0 -59 222 -59h6q114 -1 114 68q0 24 -13 43.5t-38.5 31.5t-50.5 20t-61 12t-57.5 6t-52.5 3z
M462 632q82 0 82 232q0 238 -77 238q-19 0 -33.5 -10t-23 -30.5t-14 -42t-8 -54t-3 -56t-0.5 -58.5q0 -219 77 -219zM328 339q0 -24 34.5 -40t89.5 -26.5t121.5 -21.5t133.5 -28.5t122 -42.5t89.5 -70t34.5 -105q0 -83 -24.5 -145.5t-65 -100t-100.5 -60.5t-122 -31.5
t-138 -8.5q-481 0 -481 235q0 69 38 137.5t99 112.5q-41 21 -79 49.5t-38 54.5q0 57 133 226q-102 186 -102 374q0 96 22.5 180.5t68.5 154.5t124.5 111t181.5 41q154 0 232 -83q73 83 245 83h42l-28 -241q-99 0 -143 -44q42 -75 42 -227q0 -89 -26.5 -169t-76 -142
t-127 -98t-171.5 -36q-18 0 -45 4t-45 8l-18 3q-23 -45 -23 -54z" />
    <glyph glyph-name="Hcircumflex" unicode="&#x124;" horiz-adv-x="1257" 
d="M165 0v1797h324v-741h280v741h325v-1797h-325v801h-280v-801h-324zM281 1859l204 441h289l206 -441h-278l-73 171l-73 -171h-275z" />
    <glyph glyph-name="hcircumflex" unicode="&#x125;" horiz-adv-x="1005" 
d="M94 0v1800h337v-588q49 55 116.5 89t139.5 34q69 0 123.5 -44t81 -108t26.5 -132v-1051h-337v963q0 4 0.5 17.5t0 22t-1 22t-3.5 21.5t-8 17t-13.5 13t-20.5 4q-20 0 -43 -16t-33 -27t-28 -32v-1005h-337zM157 1902l201 406h290l206 -406h-275l-75 202l-73 -202h-274z
" />
    <glyph glyph-name="Hbar" unicode="&#x126;" horiz-adv-x="1185" 
d="M461 1062h261v273h-261v-273zM97 0v1335h-101v115h101v350h364v-350h261v350h366v-350h100v-115h-100v-1335h-366v803h-261v-803h-364z" />
    <glyph glyph-name="hbar" unicode="&#x127;" horiz-adv-x="983" 
d="M99 0v1460h-99v183h99v157h337v-157h282v-183h-282v-248q49 55 116.5 89t139.5 34q69 0 123.5 -44t81 -108t26.5 -132v-1051h-337v963q0 4 0.5 17.5t0 22t-1 22t-3.5 21.5t-8 17t-13.5 13t-20.5 4q-20 0 -43 -16t-33 -27t-28 -32v-1005h-337z" />
    <glyph glyph-name="Itilde" unicode="&#x128;" horiz-adv-x="578" 
d="M107 0v1800h364v-1800h-364zM118 1948h-167q0 51 3.5 90t15.5 80t31.5 68t53.5 44t81 17q73 0 175.5 -29t125.5 -29q16 0 24.5 7.5t9.5 15t1 23.5h155q0 -298 -156 -298q-50 0 -153.5 36.5t-150.5 36.5q-15 0 -25 -4.5t-14.5 -8.5t-7 -16t-2.5 -15v-18z" />
    <glyph glyph-name="itilde" unicode="&#x129;" horiz-adv-x="532" 
d="M124 0v1305h337v-1305h-337zM92 1430h-167q0 51 3.5 90t15.5 80t31.5 68t53.5 44t81 17q73 0 175.5 -29t125.5 -29q16 0 24.5 7.5t9.5 15t1 23.5h155q0 -298 -156 -298q-50 0 -153.5 36.5t-150.5 36.5q-15 0 -25 -4.5t-14.5 -8.5t-7 -16t-2.5 -15v-18z" />
    <glyph glyph-name="Imacron" unicode="&#x12a;" horiz-adv-x="578" 
d="M107 0v1800h364v-1800h-364zM36 1937v193h507v-193h-507z" />
    <glyph glyph-name="imacron" unicode="&#x12b;" horiz-adv-x="532" 
d="M124 0v1305h337v-1305h-337zM12 1457v193h507v-193h-507z" />
    <glyph glyph-name="Ibreve" unicode="&#x12c;" horiz-adv-x="578" 
d="M107 0v1800h364v-1800h-364zM36 2185h172q0 -28 7 -55t26 -49.5t48 -22.5t48 22.5t26 49.5t7 55h172q0 -110 -71 -179t-182 -69t-182 69t-71 179z" />
    <glyph glyph-name="ibreve" unicode="&#x12d;" horiz-adv-x="532" 
d="M124 0v1305h337v-1305h-337zM39 1684h172q0 -28 7 -55t26 -49.5t48 -22.5t48 22.5t26 49.5t7 55h172q0 -110 -71 -179t-182 -69t-182 69t-71 179z" />
    <glyph glyph-name="Iogonek" unicode="&#x12e;" horiz-adv-x="578" 
d="M107 0v1800h364v-1800h-364zM484 -356l-21 -160q-41 -3 -86.5 0t-89.5 7.5t-84.5 20.5t-71.5 39t-49 63.5t-18 92.5q0 78 44 164.5t107 146.5h148q-7 -20 -23 -61.5t-25 -66t-16.5 -61t-7.5 -68.5q0 -28 8 -49.5t25.5 -33.5t33 -19.5t43 -10.5t41.5 -3.5t42 -0.5z" />
    <glyph glyph-name="iogonek" unicode="&#x12f;" horiz-adv-x="529" 
d="M96 1419v315h337v-315h-337zM96 0v1305h337v-1305h-337zM520 -358l-21 -160q-41 -3 -86.5 0t-89.5 7.5t-84.5 20.5t-71.5 39t-49 63.5t-18 92.5q0 78 44 164.5t107 146.5h148q-7 -20 -23 -61.5t-25 -66t-16.5 -61t-7.5 -68.5q0 -28 8 -49.5t25.5 -33.5t33 -19.5t43 -10.5
t41.5 -3.5t42 -0.5z" />
    <glyph glyph-name="Idotaccent" unicode="&#x130;" horiz-adv-x="578" 
d="M107 0v1800h364v-1800h-364zM128 1937v318h323v-318h-323z" />
    <glyph glyph-name="dotlessi" unicode="&#x131;" horiz-adv-x="532" 
d="M124 0v1305h337v-1305h-337z" />
    <glyph glyph-name="IJ" unicode="&#x132;" horiz-adv-x="1269" 
d="M578 -34v256q132 -2 176 39.5t44 173.5v1365h364v-1368q0 -99 -9.5 -168.5t-35.5 -129t-71 -94.5t-116.5 -54.5t-172.5 -19.5h-179zM107 0v1800h364v-1800h-364z" />
    <glyph glyph-name="ij" unicode="&#x133;" horiz-adv-x="1101" 
d="M672 1419v315h335v-315h-335zM508 -284v244q56 -16 88 -16q76 0 76 111v1250h335v-1279q0 -157 -82.5 -247t-237.5 -90q-75 0 -179 27zM96 1419v315h337v-315h-337zM96 0v1305h337v-1305h-337z" />
    <glyph glyph-name="Jcircumflex" unicode="&#x134;" horiz-adv-x="691" 
d="M0 -34v256q132 -2 176 39.5t44 173.5v1365h364v-1368q0 -99 -9.5 -168.5t-35.5 -129t-71 -94.5t-116.5 -54.5t-172.5 -19.5h-179zM43 1937l201 406h290l206 -406h-275l-75 202l-73 -202h-274z" />
    <glyph glyph-name="jcircumflex" unicode="&#x135;" horiz-adv-x="641" 
d="M48 -284v244q56 -16 88 -16q76 0 76 111v1250h335v-1279q0 -157 -82.5 -247t-237.5 -90q-75 0 -179 27zM31 1380l201 406h290l206 -406h-275l-75 202l-73 -202h-274z" />
    <glyph glyph-name="uni0136" unicode="&#x136;" horiz-adv-x="1187" 
d="M107 0v1800h364v-683l282 683h407l-367 -737l394 -1063h-378l-272 823l-66 -170v-653h-364zM554 -663l-40 166h15q26 0 35.5 0.5t18.5 9t10.5 22.5t1.5 45h-110v318h323q0 -39 1 -114v-149t-10 -125t-31.5 -95t-63.5 -60.5t-106 -21.5q-16 0 -44 4z" />
    <glyph glyph-name="uni0137" unicode="&#x137;" horiz-adv-x="1001" 
d="M99 0v1800h337v-948l206 453h361l-321 -551l320 -754h-349l-172 582l-45 -76v-506h-337z" />
    <glyph glyph-name="kgreenlandic" unicode="&#x138;" horiz-adv-x="1011" 
d="M99 0v1305h337v-423l206 423h331l-271 -561l270 -744h-339l-162 502l-35 -59v-443h-337z" />
    <glyph glyph-name="Lacute" unicode="&#x139;" horiz-adv-x="852" 
d="M107 0v1800h364v-1550h358v-250h-722zM366 1937l136 442h345l-277 -442h-204z" />
    <glyph glyph-name="lacute" unicode="&#x13a;" horiz-adv-x="529" 
d="M96 0v1800h337v-1800h-337zM163 1902l136 442h345l-277 -442h-204z" />
    <glyph glyph-name="uni013B" unicode="&#x13b;" horiz-adv-x="852" 
d="M107 0v1800h364v-1550h358v-250h-722zM375 -663l-40 166h15q26 0 35.5 0.5t18.5 9t10.5 22.5t1.5 45h-110v318h323q0 -39 1 -114v-149t-10 -125t-31.5 -95t-63.5 -60.5t-106 -21.5q-16 0 -44 4z" />
    <glyph glyph-name="uni013C" unicode="&#x13c;" horiz-adv-x="529" 
d="M96 0v1800h337v-1800h-337zM171 -663l-40 166h15q26 0 35.5 0.5t18.5 9t10.5 22.5t1.5 45h-110v318h323q0 -39 1 -114v-149t-10 -125t-31.5 -95t-63.5 -60.5t-106 -21.5q-16 0 -44 4z" />
    <glyph glyph-name="Lcaron" unicode="&#x13d;" horiz-adv-x="852" 
d="M107 0v1800h364v-1550h358v-250h-722zM731 1274l-40 166h15q26 0 35.5 0.5t18.5 9t10.5 22.5t1.5 45h-110v318h323v-88q1 -115 -0.5 -170t-13.5 -132.5t-38 -109t-76.5 -52t-125.5 -9.5z" />
    <glyph glyph-name="lcaron" unicode="&#x13e;" horiz-adv-x="529" 
d="M96 0v1800h337v-1800h-337zM655 1239l-40 166h15q26 0 35.5 0.5t18.5 9t10.5 22.5t1.5 45h-110v318h323v-88q1 -115 -0.5 -170t-13.5 -132.5t-38 -109t-76.5 -52t-125.5 -9.5z" />
    <glyph glyph-name="Ldot" unicode="&#x13f;" horiz-adv-x="852" 
d="M107 0v1800h364v-1550h358v-250h-722zM627 760v315h323v-315h-323z" />
    <glyph glyph-name="ldot" unicode="&#x140;" horiz-adv-x="529" 
d="M96 0v1800h337v-1800h-337zM600 679v315h323v-315h-323z" />
    <glyph glyph-name="Lslash" unicode="&#x141;" horiz-adv-x="855" 
d="M97 0v887l-82 -31v183l82 31v730h364v-593l257 98v-183l-257 -98v-774h358v-250h-722z" />
    <glyph glyph-name="lslash" unicode="&#x142;" horiz-adv-x="629" 
d="M163 0v924l-181 -68v183l181 68v693h337v-565l186 70v-183l-186 -70v-1052h-337z" />
    <glyph glyph-name="Nacute" unicode="&#x143;" horiz-adv-x="1173" 
d="M107 0v1801h262l395 -942v942h302v-1801h-252l-394 999v-999h-313zM485 1937l136 442h345l-277 -442h-204z" />
    <glyph glyph-name="nacute" unicode="&#x144;" horiz-adv-x="1005" 
d="M94 0v1305h337v-92q48 55 115.5 88t140.5 33q69 0 123.5 -43.5t81 -107t26.5 -131.5v-1052h-337v993q0 87 -56 87q-6 0 -12.5 -1.5t-13 -5t-11.5 -6t-12 -8.5l-10.5 -9t-10.5 -10.5t-9 -10t-8 -9.5l-7 -8v-1012h-337zM404 1436l136 442h345l-277 -442h-204z" />
    <glyph glyph-name="uni0145" unicode="&#x145;" horiz-adv-x="1173" 
d="M107 0v1801h262l395 -942v942h302v-1801h-252l-394 999v-999h-313zM493 -663l-40 166h15q26 0 35.5 0.5t18.5 9t10.5 22.5t1.5 45h-110v318h323q0 -39 1 -114v-149t-10 -125t-31.5 -95t-63.5 -60.5t-106 -21.5q-16 0 -44 4z" />
    <glyph glyph-name="uni0146" unicode="&#x146;" horiz-adv-x="1005" 
d="M94 0v1305h337v-92q48 55 115.5 88t140.5 33q69 0 123.5 -43.5t81 -107t26.5 -131.5v-1052h-337v993q0 87 -56 87q-6 0 -12.5 -1.5t-13 -5t-11.5 -6t-12 -8.5l-10.5 -9t-10.5 -10.5t-9 -10t-8 -9.5l-7 -8v-1012h-337zM413 -663l-40 166h15q26 0 35.5 0.5t18.5 9
t10.5 22.5t1.5 45h-110v318h323q0 -39 1 -114v-149t-10 -125t-31.5 -95t-63.5 -60.5t-106 -21.5q-16 0 -44 4z" />
    <glyph glyph-name="Ncaron" unicode="&#x147;" horiz-adv-x="1173" 
d="M107 0v1801h262l395 -942v942h302v-1801h-252l-394 999v-999h-313zM439 1937l-201 406h274l73 -201l75 201h275l-206 -406h-290z" />
    <glyph glyph-name="ncaron" unicode="&#x148;" horiz-adv-x="1005" 
d="M94 0v1305h337v-92q48 55 115.5 88t140.5 33q69 0 123.5 -43.5t81 -107t26.5 -131.5v-1052h-337v993q0 87 -56 87q-6 0 -12.5 -1.5t-13 -5t-11.5 -6t-12 -8.5l-10.5 -9t-10.5 -10.5t-9 -10t-8 -9.5l-7 -8v-1012h-337zM359 1436l-201 406h274l73 -201l75 201h275
l-206 -406h-290z" />
    <glyph glyph-name="Omacron" unicode="&#x14c;" horiz-adv-x="1221" 
d="M84 592v605q0 638 526 638q527 0 527 -638v-596q0 -108 -16 -199.5t-54.5 -173.5t-98 -139.5t-150.5 -90.5t-208 -33q-116 0 -207 32.5t-150 88t-97.5 136t-55 171.5t-16.5 199zM773 510v778q0 266 -163 266q-49 0 -83 -24.5t-50 -67t-22.5 -84t-6.5 -90.5v-778
q0 -265 162 -265q163 0 163 265zM357 1937v193h507v-193h-507z" />
    <glyph glyph-name="omacron" unicode="&#x14d;" horiz-adv-x="973" 
d="M561 335v646q0 99 -77 99q-69 0 -69 -99v-646q0 -22 1.5 -36.5t7.5 -34t21 -29.5t39 -10q77 0 77 110zM78 339v555q0 209 98.5 324.5t307.5 115.5t310 -115.5t101 -324.5v-555q0 -163 -121 -265.5t-290 -102.5q-109 0 -201 44.5t-148.5 130t-56.5 193.5zM233 1436v193
h507v-193h-507z" />
    <glyph glyph-name="Obreve" unicode="&#x14e;" horiz-adv-x="1221" 
d="M84 592v605q0 638 526 638q527 0 527 -638v-596q0 -108 -16 -199.5t-54.5 -173.5t-98 -139.5t-150.5 -90.5t-208 -33q-116 0 -207 32.5t-150 88t-97.5 136t-55 171.5t-16.5 199zM773 510v778q0 266 -163 266q-49 0 -83 -24.5t-50 -67t-22.5 -84t-6.5 -90.5v-778
q0 -265 162 -265q163 0 163 265zM357 2185h172q0 -28 7 -55t26 -49.5t48 -22.5t48 22.5t26 49.5t7 55h172q0 -110 -71 -179t-182 -69t-182 69t-71 179z" />
    <glyph glyph-name="obreve" unicode="&#x14f;" horiz-adv-x="973" 
d="M561 335v646q0 99 -77 99q-69 0 -69 -99v-646q0 -22 1.5 -36.5t7.5 -34t21 -29.5t39 -10q77 0 77 110zM78 339v555q0 209 98.5 324.5t307.5 115.5t310 -115.5t101 -324.5v-555q0 -163 -121 -265.5t-290 -102.5q-109 0 -201 44.5t-148.5 130t-56.5 193.5zM233 1684h172
q0 -28 7 -55t26 -49.5t48 -22.5t48 22.5t26 49.5t7 55h172q0 -110 -71 -179t-182 -69t-182 69t-71 179z" />
    <glyph glyph-name="Ohungarumlaut" unicode="&#x150;" horiz-adv-x="1221" 
d="M84 592v605q0 638 526 638q527 0 527 -638v-596q0 -108 -16 -199.5t-54.5 -173.5t-98 -139.5t-150.5 -90.5t-208 -33q-116 0 -207 32.5t-150 88t-97.5 136t-55 171.5t-16.5 199zM773 510v778q0 266 -163 266q-49 0 -83 -24.5t-50 -67t-22.5 -84t-6.5 -90.5v-778
q0 -265 162 -265q163 0 163 265zM665 1937l137 442h285l-215 -442h-207zM349 1937l137 442h283l-215 -442h-205z" />
    <glyph glyph-name="ohungarumlaut" unicode="&#x151;" horiz-adv-x="973" 
d="M561 335v646q0 99 -77 99q-69 0 -69 -99v-646q0 -22 1.5 -36.5t7.5 -34t21 -29.5t39 -10q77 0 77 110zM78 339v555q0 209 98.5 324.5t307.5 115.5t310 -115.5t101 -324.5v-555q0 -163 -121 -265.5t-290 -102.5q-109 0 -201 44.5t-148.5 130t-56.5 193.5zM541 1436
l137 442h285l-215 -442h-207zM225 1436l137 442h283l-215 -442h-205z" />
    <glyph glyph-name="OE" unicode="&#x152;" horiz-adv-x="1555" 
d="M610 253h163v1284h-163q-49 0 -83 -24.5t-50 -67t-22.5 -84t-6.5 -90.5v-753q0 -265 162 -265zM84 609v571q0 106 16 195t54 169t97 135t150.5 87.5t208.5 32.5h914v-249h-387v-490h274v-256h-274v-554h387v-250h-914q-526 0 -526 609z" />
    <glyph glyph-name="oe" unicode="&#x153;" horiz-adv-x="1436" 
d="M903 801h131v163q0 99 -67 99q-64 0 -64 -99v-163zM566 339v625q0 99 -77 99q-69 0 -69 -99v-618q0 -22 1.5 -36.5t7.5 -34t21 -29.5t39 -10q75 0 77 103zM83 339v555q0 209 98.5 324.5t307.5 115.5q144 0 242 -79q104 79 256 79q194 0 287.5 -115.5t93.5 -324.5v-270
h-465v-278q0 -110 64 -110q70 0 70 148q0 23 -1.5 58t-1.5 44h334v-147q0 -163 -115 -266t-276 -103q-134 0 -246 87q-119 -87 -262 -87q-160 0 -273 103t-113 266z" />
    <glyph glyph-name="Racute" unicode="&#x154;" horiz-adv-x="1134" 
d="M471 1051h104q42 0 72 28t43.5 71t19 79t5.5 68t-4.5 66t-16 75.5t-38 68t-64.5 26.5h-121v-482zM107 0v1800h396q135 0 237.5 -25.5t179.5 -80t117 -147t40 -221.5q0 -56 -4 -100t-18.5 -100.5t-39.5 -100t-72 -85.5t-111 -70q162 -514 282 -870h-377l-206 829h-60v-829
h-364zM509 1937l136 442h345l-277 -442h-204z" />
    <glyph glyph-name="racute" unicode="&#x155;" horiz-adv-x="714" 
d="M94 0v1305h335v-106q77 125 180 125q29 0 91 -10v-284q-93 10 -131 10q-69 0 -104.5 -42.5t-35.5 -121.5v-876h-335zM295 1436l136 442h345l-277 -442h-204z" />
    <glyph glyph-name="uni0156" unicode="&#x156;" horiz-adv-x="1134" 
d="M471 1051h104q42 0 72 28t43.5 71t19 79t5.5 68t-4.5 66t-16 75.5t-38 68t-64.5 26.5h-121v-482zM107 0v1800h396q135 0 237.5 -25.5t179.5 -80t117 -147t40 -221.5q0 -56 -4 -100t-18.5 -100.5t-39.5 -100t-72 -85.5t-111 -70q162 -514 282 -870h-377l-206 829h-60v-829
h-364zM517 -663l-40 166h15q26 0 35.5 0.5t18.5 9t10.5 22.5t1.5 45h-110v318h323q0 -39 1 -114v-149t-10 -125t-31.5 -95t-63.5 -60.5t-106 -21.5q-16 0 -44 4z" />
    <glyph glyph-name="uni0157" unicode="&#x157;" horiz-adv-x="714" 
d="M94 0v1305h335v-106q77 125 180 125q29 0 91 -10v-284q-93 10 -131 10q-69 0 -104.5 -42.5t-35.5 -121.5v-876h-335zM244 -663l-40 166h15q26 0 35.5 0.5t18.5 9t10.5 22.5t1.5 45h-110v318h323q0 -39 1 -114v-149t-10 -125t-31.5 -95t-63.5 -60.5t-106 -21.5
q-16 0 -44 4z" />
    <glyph glyph-name="Rcaron" unicode="&#x158;" horiz-adv-x="1134" 
d="M471 1051h104q42 0 72 28t43.5 71t19 79t5.5 68t-4.5 66t-16 75.5t-38 68t-64.5 26.5h-121v-482zM107 0v1800h396q135 0 237.5 -25.5t179.5 -80t117 -147t40 -221.5q0 -56 -4 -100t-18.5 -100.5t-39.5 -100t-72 -85.5t-111 -70q162 -514 282 -870h-377l-206 829h-60v-829
h-364zM463 1937l-201 406h274l73 -201l75 201h275l-206 -406h-290z" />
    <glyph glyph-name="rcaron" unicode="&#x159;" horiz-adv-x="714" 
d="M94 0v1305h335v-106q77 125 180 125q29 0 91 -10v-284q-93 10 -131 10q-69 0 -104.5 -42.5t-35.5 -121.5v-876h-335zM249 1436l-201 406h274l73 -201l75 201h275l-206 -406h-290z" />
    <glyph glyph-name="Sacute" unicode="&#x15a;" horiz-adv-x="1073" 
d="M45 515l369 71q0 -55 2 -97t10.5 -91.5t23 -81t41 -53t62.5 -21.5q108 0 108 138q0 189 -213 376l-113 96q-54 45 -86 75t-75.5 81t-68 98.5t-42 114.5t-17.5 142q0 219 139 346.5t369 127.5q191 0 325 -136t134 -328l-1 -13v-30l-376 -52q0 11 1.5 34.5t1.5 38.5
q0 36 -5 69t-16.5 66t-35.5 52.5t-58 19.5q-60 0 -90 -47t-30 -111q0 -56 17.5 -105t53 -91.5t65.5 -70.5t80 -68.5t71 -59.5q77 -68 130 -127.5t100 -134.5t70.5 -162t23.5 -188q0 -189 -135 -309.5t-328 -120.5q-125 0 -222 46t-156.5 125t-91.5 175t-37 206zM440 1939
l136 442h345l-277 -442h-204z" />
    <glyph glyph-name="sacute" unicode="&#x15b;" horiz-adv-x="874" 
d="M38 315l258 92q10 -30 16 -46.5t20.5 -48t28 -48.5t35 -31.5t45.5 -14.5q63 0 63 74q0 27 -12.5 55.5t-26 49t-47 53.5t-51.5 49t-63 54l-55 47q-107 93 -168 183t-61 200q0 85 35.5 153.5t95.5 110.5t134.5 64.5t156.5 22.5q73 0 140 -31t117.5 -82.5t87.5 -116
t57 -135.5l-242 -83q-12 30 -20 49.5t-25.5 51t-34 50.5t-40.5 33.5t-50 14.5q-35 0 -54.5 -25t-19.5 -57q0 -44 48.5 -98.5t133.5 -125.5l62 -55q50 -45 86.5 -84.5t73 -89.5t56 -105t19.5 -110q0 -158 -111.5 -261t-269.5 -103q-153 0 -264 95t-154 249zM315 1392l136 442
h345l-277 -442h-204z" />
    <glyph glyph-name="Scircumflex" unicode="&#x15c;" horiz-adv-x="1073" 
d="M45 515l369 71q0 -55 2 -97t10.5 -91.5t23 -81t41 -53t62.5 -21.5q108 0 108 138q0 189 -213 376l-113 96q-54 45 -86 75t-75.5 81t-68 98.5t-42 114.5t-17.5 142q0 219 139 346.5t369 127.5q191 0 325 -136t134 -328l-1 -13v-30l-376 -52q0 11 1.5 34.5t1.5 38.5
q0 36 -5 69t-16.5 66t-35.5 52.5t-58 19.5q-60 0 -90 -47t-30 -111q0 -56 17.5 -105t53 -91.5t65.5 -70.5t80 -68.5t71 -59.5q77 -68 130 -127.5t100 -134.5t70.5 -162t23.5 -188q0 -189 -135 -309.5t-328 -120.5q-125 0 -222 46t-156.5 125t-91.5 175t-37 206zM193 1939
l201 406h290l206 -406h-275l-75 202l-73 -202h-274z" />
    <glyph glyph-name="scircumflex" unicode="&#x15d;" horiz-adv-x="874" 
d="M38 315l258 92q10 -30 16 -46.5t20.5 -48t28 -48.5t35 -31.5t45.5 -14.5q63 0 63 74q0 27 -12.5 55.5t-26 49t-47 53.5t-51.5 49t-63 54l-55 47q-107 93 -168 183t-61 200q0 85 35.5 153.5t95.5 110.5t134.5 64.5t156.5 22.5q73 0 140 -31t117.5 -82.5t87.5 -116
t57 -135.5l-242 -83q-12 30 -20 49.5t-25.5 51t-34 50.5t-40.5 33.5t-50 14.5q-35 0 -54.5 -25t-19.5 -57q0 -44 48.5 -98.5t133.5 -125.5l62 -55q50 -45 86.5 -84.5t73 -89.5t56 -105t19.5 -110q0 -158 -111.5 -261t-269.5 -103q-153 0 -264 95t-154 249zM97 1436l201 406
h290l206 -406h-275l-75 202l-73 -202h-274z" />
    <glyph glyph-name="Scedilla" unicode="&#x15e;" horiz-adv-x="1073" 
d="M45 515l369 71q0 -55 2 -97t10.5 -91.5t23 -81t41 -53t62.5 -21.5q108 0 108 138q0 189 -213 376l-113 96q-54 45 -86 75t-75.5 81t-68 98.5t-42 114.5t-17.5 142q0 219 139 346.5t369 127.5q191 0 325 -136t134 -328l-1 -13v-30l-376 -52q0 11 1.5 34.5t1.5 38.5
q0 36 -5 69t-16.5 66t-35.5 52.5t-58 19.5q-60 0 -90 -47t-30 -111q0 -56 17.5 -105t53 -91.5t65.5 -70.5t80 -68.5t71 -59.5q77 -68 130 -127.5t100 -134.5t70.5 -162t23.5 -188q0 -189 -135 -309.5t-328 -120.5q-125 0 -222 46t-156.5 125t-91.5 175t-37 206zM400 -579
v161q3 0 21.5 -0.5t36 -0.5t42 0.5t44.5 3.5t38 7t28.5 12.5t10.5 19.5q0 10 -4 19.5t-12.5 18t-16.5 16t-22 15t-23 12.5t-25.5 11.5t-23 9.5t-21.5 8t-17 6v242h171v-129q221 -104 221 -233q0 -41 -18.5 -73.5t-45.5 -53t-70.5 -35t-79 -21.5t-87 -11t-78.5 -4.5t-69 -0.5
z" />
    <glyph glyph-name="scedilla" unicode="&#x15f;" horiz-adv-x="874" 
d="M38 315l258 92q10 -30 16 -46.5t20.5 -48t28 -48.5t35 -31.5t45.5 -14.5q63 0 63 74q0 27 -12.5 55.5t-26 49t-47 53.5t-51.5 49t-63 54l-55 47q-107 93 -168 183t-61 200q0 85 35.5 153.5t95.5 110.5t134.5 64.5t156.5 22.5q73 0 140 -31t117.5 -82.5t87.5 -116
t57 -135.5l-242 -83q-12 30 -20 49.5t-25.5 51t-34 50.5t-40.5 33.5t-50 14.5q-35 0 -54.5 -25t-19.5 -57q0 -44 48.5 -98.5t133.5 -125.5l62 -55q50 -45 86.5 -84.5t73 -89.5t56 -105t19.5 -110q0 -158 -111.5 -261t-269.5 -103q-153 0 -264 95t-154 249zM304 -571v161
q3 0 21.5 -0.5t36 -0.5t42 0.5t44.5 3.5t38 7t28.5 12.5t10.5 19.5q0 10 -4 19.5t-12.5 18t-16.5 16t-22 15t-23 12.5t-25.5 11.5t-23 9.5t-21.5 8t-17 6v242h171v-129q221 -104 221 -233q0 -41 -18.5 -73.5t-45.5 -53t-70.5 -35t-79 -21.5t-87 -11t-78.5 -4.5t-69 -0.5z
" />
    <glyph glyph-name="Scaron" unicode="&#x160;" horiz-adv-x="1073" 
d="M45 515l369 71q0 -55 2 -97t10.5 -91.5t23 -81t41 -53t62.5 -21.5q108 0 108 138q0 189 -213 376l-113 96q-54 45 -86 75t-75.5 81t-68 98.5t-42 114.5t-17.5 142q0 219 139 346.5t369 127.5q191 0 325 -136t134 -328l-1 -13v-30l-376 -52q0 11 1.5 34.5t1.5 38.5
q0 36 -5 69t-16.5 66t-35.5 52.5t-58 19.5q-60 0 -90 -47t-30 -111q0 -56 17.5 -105t53 -91.5t65.5 -70.5t80 -68.5t71 -59.5q77 -68 130 -127.5t100 -134.5t70.5 -162t23.5 -188q0 -189 -135 -309.5t-328 -120.5q-125 0 -222 46t-156.5 125t-91.5 175t-37 206zM395 1939
l-201 406h274l73 -201l75 201h275l-206 -406h-290z" />
    <glyph glyph-name="scaron" unicode="&#x161;" horiz-adv-x="874" 
d="M38 315l258 92q10 -30 16 -46.5t20.5 -48t28 -48.5t35 -31.5t45.5 -14.5q63 0 63 74q0 27 -12.5 55.5t-26 49t-47 53.5t-51.5 49t-63 54l-55 47q-107 93 -168 183t-61 200q0 85 35.5 153.5t95.5 110.5t134.5 64.5t156.5 22.5q73 0 140 -31t117.5 -82.5t87.5 -116
t57 -135.5l-242 -83q-12 30 -20 49.5t-25.5 51t-34 50.5t-40.5 33.5t-50 14.5q-35 0 -54.5 -25t-19.5 -57q0 -44 48.5 -98.5t133.5 -125.5l62 -55q50 -45 86.5 -84.5t73 -89.5t56 -105t19.5 -110q0 -158 -111.5 -261t-269.5 -103q-153 0 -264 95t-154 249zM280 1370
l-201 406h274l73 -201l75 201h275l-206 -406h-290z" />
    <glyph glyph-name="Tcaron" unicode="&#x164;" horiz-adv-x="921" 
d="M278 0v1528h-264v272h887v-272h-259v-1528h-364zM313 1937l-201 406h274l73 -201l75 201h275l-206 -406h-290z" />
    <glyph glyph-name="tcaron" unicode="&#x165;" horiz-adv-x="668" 
d="M117 448v632h-96v225h96v429h337v-429h162v-225h-162v-713q0 -54 20 -80.5t71 -26.5q58 0 98 6v-261q-66 -20 -213 -20q-59 0 -106.5 14t-80 37.5t-56 59.5t-37 73.5t-21 87.5t-10 93t-2.5 98zM765 1173l-40 166h15q26 0 35.5 0.5t18.5 9t10.5 22.5t1.5 45h-110v318h323
v-88q1 -115 -0.5 -170t-13.5 -132.5t-38 -109t-76.5 -52t-125.5 -9.5z" />
    <glyph glyph-name="Utilde" unicode="&#x168;" 
d="M453 1968h-167q0 51 3.5 90t15.5 80t31.5 68t53.5 44t81 17q73 0 175.5 -29t125.5 -29q16 0 24.5 7.5t9.5 15t1 23.5h155q0 -298 -156 -298q-50 0 -153.5 36.5t-150.5 36.5q-15 0 -25 -4.5t-14.5 -8.5t-7 -16t-2.5 -15v-18zM99 669v1131h364v-1120q0 -96 1 -139.5t5 -106
t14 -87.5t27.5 -54t45.5 -38t68 -9t68 9t45.5 37.5t27.5 53.5t14 86.5t5 104t1 137.5v6v1120h364v-1131q0 -86 -5 -156t-19 -145t-38 -132.5t-64 -110t-94.5 -86.5t-131.5 -54t-173 -20t-173 20t-131 54t-94 86.5t-64 110t-38.5 132.5t-19.5 145t-5 156z" />
    <glyph glyph-name="utilde" unicode="&#x169;" horiz-adv-x="1006" 
d="M328 1467h-167q0 51 3.5 90t15.5 80t31.5 68t53.5 44t81 17q73 0 175.5 -29t125.5 -29q16 0 24.5 7.5t9.5 15t1 23.5h155q0 -298 -156 -298q-50 0 -153.5 36.5t-150.5 36.5q-15 0 -25 -4.5t-14.5 -8.5t-7 -16t-2.5 -15v-18zM87 253v1052h337v-970q0 -110 46 -110
q45 0 105 74v1006h337v-1305h-337v113q-51 -62 -119 -102t-138 -40q-103 0 -167 87.5t-64 194.5z" />
    <glyph glyph-name="Umacron" unicode="&#x16a;" 
d="M99 669v1131h364v-1120q0 -96 1 -139.5t5 -106t14 -87.5t27.5 -54t45.5 -38t68 -9t68 9t45.5 37.5t27.5 53.5t14 86.5t5 104t1 137.5v6v1120h364v-1131q0 -86 -5 -156t-19 -145t-38 -132.5t-64 -110t-94.5 -86.5t-131.5 -54t-173 -20t-173 20t-131 54t-94 86.5t-64 110
t-38.5 132.5t-19.5 145t-5 156zM370 1937v193h507v-193h-507z" />
    <glyph glyph-name="umacron" unicode="&#x16b;" horiz-adv-x="1006" 
d="M87 253v1052h337v-970q0 -110 46 -110q45 0 105 74v1006h337v-1305h-337v113q-51 -62 -119 -102t-138 -40q-103 0 -167 87.5t-64 194.5zM247 1457v193h507v-193h-507z" />
    <glyph glyph-name="Ubreve" unicode="&#x16c;" 
d="M99 669v1131h364v-1120q0 -96 1 -139.5t5 -106t14 -87.5t27.5 -54t45.5 -38t68 -9t68 9t45.5 37.5t27.5 53.5t14 86.5t5 104t1 137.5v6v1120h364v-1131q0 -86 -5 -156t-19 -145t-38 -132.5t-64 -110t-94.5 -86.5t-131.5 -54t-173 -20t-173 20t-131 54t-94 86.5t-64 110
t-38.5 132.5t-19.5 145t-5 156zM371 2185h172q0 -28 7 -55t26 -49.5t48 -22.5t48 22.5t26 49.5t7 55h172q0 -110 -71 -179t-182 -69t-182 69t-71 179z" />
    <glyph glyph-name="ubreve" unicode="&#x16d;" horiz-adv-x="1006" 
d="M87 253v1052h337v-970q0 -110 46 -110q45 0 105 74v1006h337v-1305h-337v113q-51 -62 -119 -102t-138 -40q-103 0 -167 87.5t-64 194.5zM247 1684h172q0 -28 7 -55t26 -49.5t48 -22.5t48 22.5t26 49.5t7 55h172q0 -110 -71 -179t-182 -69t-182 69t-71 179z" />
    <glyph glyph-name="Uring" unicode="&#x16e;" 
d="M99 669v1131h364v-1120q0 -96 1 -139.5t5 -106t14 -87.5t27.5 -54t45.5 -38t68 -9t68 9t45.5 37.5t27.5 53.5t14 86.5t5 104t1 137.5v6v1120h364v-1131q0 -86 -5 -156t-19 -145t-38 -132.5t-64 -110t-94.5 -86.5t-131.5 -54t-173 -20t-173 20t-131 54t-94 86.5t-64 110
t-38.5 132.5t-19.5 145t-5 156zM371 2176q0 109 71.5 174t181.5 65t181.5 -65t71.5 -174t-71.5 -174t-181.5 -65t-181.5 65t-71.5 174zM624 2058q39 0 58.5 37t19.5 80t-19.5 81t-58.5 38q-40 0 -60.5 -37t-20.5 -80q0 -45 20 -82t61 -37z" />
    <glyph glyph-name="uring" unicode="&#x16f;" horiz-adv-x="1006" 
d="M87 253v1052h337v-970q0 -110 46 -110q45 0 105 74v1006h337v-1305h-337v113q-51 -62 -119 -102t-138 -40q-103 0 -167 87.5t-64 194.5zM247 1675q0 109 71.5 174t181.5 65t181.5 -65t71.5 -174t-71.5 -174t-181.5 -65t-181.5 65t-71.5 174zM500 1557q39 0 58.5 37
t19.5 80t-19.5 81t-58.5 38q-40 0 -60.5 -37t-20.5 -80q0 -45 20 -82t61 -37z" />
    <glyph glyph-name="Uhungarumlaut" unicode="&#x170;" 
d="M99 669v1131h364v-1120q0 -96 1 -139.5t5 -106t14 -87.5t27.5 -54t45.5 -38t68 -9t68 9t45.5 37.5t27.5 53.5t14 86.5t5 104t1 137.5v6v1120h364v-1131q0 -86 -5 -156t-19 -145t-38 -132.5t-64 -110t-94.5 -86.5t-131.5 -54t-173 -20t-173 20t-131 54t-94 86.5t-64 110
t-38.5 132.5t-19.5 145t-5 156zM679 1937l137 442h285l-215 -442h-207zM363 1937l137 442h283l-215 -442h-205z" />
    <glyph glyph-name="uhungarumlaut" unicode="&#x171;" horiz-adv-x="1006" 
d="M87 253v1052h337v-970q0 -110 46 -110q45 0 105 74v1006h337v-1305h-337v113q-51 -62 -119 -102t-138 -40q-103 0 -167 87.5t-64 194.5zM554 1436l137 442h285l-215 -442h-207zM238 1436l137 442h283l-215 -442h-205z" />
    <glyph glyph-name="Uogonek" unicode="&#x172;" 
d="M99 669v1131h364v-1120q0 -96 1 -139.5t5 -106t14 -87.5t27.5 -54t45.5 -38t68 -9t68 9t45.5 37.5t27.5 53.5t14 86.5t5 104t1 137.5v6v1120h364v-1131q0 -86 -5 -156t-19 -145t-38 -132.5t-64 -110t-94.5 -86.5t-131.5 -54t-173 -20t-173 20t-131 54t-94 86.5t-64 110
t-38.5 132.5t-19.5 145t-5 156zM819 -391l-21 -160q-41 -3 -86.5 0t-89.5 7.5t-84.5 20.5t-71.5 39t-49 63.5t-18 92.5q0 78 44 164.5t107 146.5h148q-7 -20 -23 -61.5t-25 -66t-16.5 -61t-7.5 -68.5q0 -28 8 -49.5t25.5 -33.5t33 -19.5t43 -10.5t41.5 -3.5t42 -0.5z" />
    <glyph glyph-name="uogonek" unicode="&#x173;" horiz-adv-x="1006" 
d="M87 253v1052h337v-970q0 -110 46 -110q45 0 105 74v1006h337v-1305h-337v113q-51 -62 -119 -102t-138 -40q-103 0 -167 87.5t-64 194.5zM903 -366l-21 -160q-41 -3 -86.5 0t-89.5 7.5t-84.5 20.5t-71.5 39t-49 63.5t-18 92.5q0 78 44 164.5t107 146.5h148
q-7 -20 -23 -61.5t-25 -66t-16.5 -61t-7.5 -68.5q0 -28 8 -49.5t25.5 -33.5t33 -19.5t43 -10.5t41.5 -3.5t42 -0.5z" />
    <glyph glyph-name="Wcircumflex" unicode="&#x174;" horiz-adv-x="1486" 
d="M270 0l-249 1800h310l112 -1192l154 1192h267l151 -1185l117 1185h311l-252 -1800h-311l-151 1178l-148 -1178h-311zM395 1937l201 406h290l206 -406h-275l-75 202l-73 -202h-274z" />
    <glyph glyph-name="wcircumflex" unicode="&#x175;" horiz-adv-x="1273" 
d="M218 0l-191 1305h281l104 -805l108 805h254l98 -821l114 821h260l-193 -1305h-290l-123 771l-132 -771h-290zM288 1436l201 406h290l206 -406h-275l-75 202l-73 -202h-274z" />
    <glyph glyph-name="Ycircumflex" unicode="&#x176;" horiz-adv-x="1035" 
d="M337 0v595l-338 1205h343l168 -791q31 130 93 395.5t92 395.5h333l-339 -1205v-595h-352zM169 1937l201 406h290l206 -406h-275l-75 202l-73 -202h-274z" />
    <glyph glyph-name="ycircumflex" unicode="&#x177;" horiz-adv-x="872" 
d="M270 117q0 131 -53 381.5t-123 514.5t-76 292h307l121 -728l106 728h309l-285 -1340q-15 -68 -46 -118.5t-70.5 -80t-95 -47.5t-110 -24t-124.5 -6h-43v233q100 2 141.5 47.5t41.5 147.5zM91 1436l201 406h290l206 -406h-275l-75 202l-73 -202h-274z" />
    <glyph glyph-name="Ydieresis" unicode="&#x178;" horiz-adv-x="1035" 
d="M337 0v595l-338 1205h343l168 -791q31 130 93 395.5t92 395.5h333l-339 -1205v-595h-352zM592 1937v308h304v-308h-304zM139 1937v308h303v-308h-303z" />
    <glyph glyph-name="Zacute" unicode="&#x179;" horiz-adv-x="998" 
d="M80 0v228l475 1321h-420v250h776v-229l-477 -1320h477v-250h-831zM393 1937l136 442h345l-277 -442h-204z" />
    <glyph glyph-name="zacute" unicode="&#x17a;" horiz-adv-x="813" 
d="M57 0v228l359 834h-303v243h651v-223l-362 -838h362v-244h-707zM282 1393l136 442h345l-277 -442h-204z" />
    <glyph glyph-name="Zdotaccent" unicode="&#x17b;" horiz-adv-x="998" 
d="M80 0v228l475 1321h-420v250h776v-229l-477 -1320h477v-250h-831zM384 1937v318h323v-318h-323z" />
    <glyph glyph-name="zdotaccent" unicode="&#x17c;" horiz-adv-x="813" 
d="M57 0v228l359 834h-303v243h651v-223l-362 -838h362v-244h-707zM245 1499v318h323v-318h-323z" />
    <glyph glyph-name="Zcaron" unicode="&#x17d;" horiz-adv-x="998" 
d="M80 0v228l475 1321h-420v250h776v-229l-477 -1320h477v-250h-831zM408 1937l-201 406h274l73 -201l75 201h275l-206 -406h-290z" />
    <glyph glyph-name="zcaron" unicode="&#x17e;" horiz-adv-x="813" 
d="M57 0v228l359 834h-303v243h651v-223l-362 -838h362v-244h-707zM309 1385l-201 406h274l73 -201l75 201h275l-206 -406h-290z" />
    <glyph glyph-name="florin" unicode="&#x192;" horiz-adv-x="734" 
d="M15 -244v190q62 -10 86 -10q28 0 48 9t31 22.5t17.5 36t8 43t1.5 49.5v984h-142v225h142v39q0 55 0.5 83t6 76t16 74t31.5 59.5t51.5 50t77 29t107.5 12.5q62 0 158 -12v-190q-13 1 -44 5.5t-42 4.5q-28 0 -48 -9t-31 -22.5t-17.5 -36t-8 -43t-1.5 -49.5v-71h178v-225
h-178v-952q0 -55 -0.5 -83t-6 -76t-16 -74t-31.5 -59.5t-51.5 -50t-77 -29t-107.5 -12.5q-62 0 -158 12z" />
    <glyph glyph-name="uni01C4" unicode="&#x1c4;" horiz-adv-x="2162" 
d="M1244 0v228l475 1321h-420v250h776v-229l-477 -1320h477v-250h-831zM1572 1937l-201 406h274l73 -201l75 201h275l-206 -406h-290zM107 0v1800h376q180 0 296.5 -32.5t183 -107t92 -178.5t25.5 -265v-590q0 -96 -6 -167.5t-22.5 -140t-45 -116t-73.5 -88.5t-108.5 -65
t-149 -37t-196.5 -13h-372zM485 255q52 0 82 1.5t60 7.5t44 16.5t26 30.5t15.5 47.5t3.5 68.5v969q0 89 -53 118t-178 30v-1289z" />
    <glyph glyph-name="uni01C5" unicode="&#x1c5;" horiz-adv-x="1977" 
d="M1221 0v228l359 834h-303v243h651v-223l-362 -838h362v-244h-707zM1473 1385l-201 406h274l73 -201l75 201h275l-206 -406h-290zM107 0v1800h376q180 0 296.5 -32.5t183 -107t92 -178.5t25.5 -265v-590q0 -96 -6 -167.5t-22.5 -140t-45 -116t-73.5 -88.5t-108.5 -65
t-149 -37t-196.5 -13h-372zM485 255q52 0 82 1.5t60 7.5t44 16.5t26 30.5t15.5 47.5t3.5 68.5v969q0 89 -53 118t-178 30v-1289z" />
    <glyph glyph-name="uni01C6" unicode="&#x1c6;" horiz-adv-x="1812" 
d="M1056 0v228l359 834h-303v243h651v-223l-362 -838h362v-244h-707zM1308 1385l-201 406h274l73 -201l75 201h275l-206 -406h-290zM79 250v771q0 124 78 219t193 95q63 0 119.5 -32.5t97.5 -85.5v583h337v-1800h-337v98q-40 -59 -100 -93t-127 -34q-111 0 -186 83.5
t-75 195.5zM567 297v708q-57 75 -95 75q-56 0 -56 -86v-675q0 -27 2.5 -44.5t16 -33.5t37.5 -16q43 0 95 72z" />
    <glyph glyph-name="uni01C7" unicode="&#x1c7;" horiz-adv-x="1529" 
d="M838 -34v256q132 -2 176 39.5t44 173.5v1365h364v-1368q0 -99 -9.5 -168.5t-35.5 -129t-71 -94.5t-116.5 -54.5t-172.5 -19.5h-179zM107 0v1800h364v-1550h358v-250h-722z" />
    <glyph glyph-name="uni01C8" unicode="&#x1c8;" horiz-adv-x="1410" 
d="M981 1419v315h335v-315h-335zM817 -284v244q56 -16 88 -16q76 0 76 111v1250h335v-1279q0 -157 -82.5 -247t-237.5 -90q-75 0 -179 27zM107 0v1800h364v-1550h358v-250h-722z" />
    <glyph glyph-name="uni01C9" unicode="&#x1c9;" horiz-adv-x="1101" 
d="M672 1419v315h335v-315h-335zM508 -284v244q56 -16 88 -16q76 0 76 111v1250h335v-1279q0 -157 -82.5 -247t-237.5 -90q-75 0 -179 27zM96 0v1800h337v-1800h-337z" />
    <glyph glyph-name="uni01CA" unicode="&#x1ca;" horiz-adv-x="1864" 
d="M1173 -34v256q132 -2 176 39.5t44 173.5v1365h364v-1368q0 -99 -9.5 -168.5t-35.5 -129t-71 -94.5t-116.5 -54.5t-172.5 -19.5h-179zM107 0v1801h262l395 -942v942h302v-1801h-252l-394 999v-999h-313z" />
    <glyph glyph-name="uni01CB" unicode="&#x1cb;" horiz-adv-x="1745" 
d="M1316 1419v315h335v-315h-335zM1152 -284v244q56 -16 88 -16q76 0 76 111v1250h335v-1279q0 -157 -82.5 -247t-237.5 -90q-75 0 -179 27zM107 0v1801h262l395 -942v942h302v-1801h-252l-394 999v-999h-313z" />
    <glyph glyph-name="uni01CC" unicode="&#x1cc;" horiz-adv-x="1577" 
d="M1148 1419v315h335v-315h-335zM984 -284v244q56 -16 88 -16q76 0 76 111v1250h335v-1279q0 -157 -82.5 -247t-237.5 -90q-75 0 -179 27zM94 0v1305h337v-92q48 55 115.5 88t140.5 33q69 0 123.5 -43.5t81 -107t26.5 -131.5v-1052h-337v993q0 87 -56 87q-6 0 -12.5 -1.5
t-13 -5t-11.5 -6t-12 -8.5l-10.5 -9t-10.5 -10.5t-9 -10t-8 -9.5l-7 -8v-1012h-337z" />
    <glyph glyph-name="uni01F1" unicode="&#x1f1;" horiz-adv-x="2162" 
d="M1244 0v228l475 1321h-420v250h776v-229l-477 -1320h477v-250h-831zM107 0v1800h376q180 0 296.5 -32.5t183 -107t92 -178.5t25.5 -265v-590q0 -96 -6 -167.5t-22.5 -140t-45 -116t-73.5 -88.5t-108.5 -65t-149 -37t-196.5 -13h-372zM485 255q52 0 82 1.5t60 7.5t44 16.5
t26 30.5t15.5 47.5t3.5 68.5v969q0 89 -53 118t-178 30v-1289z" />
    <glyph glyph-name="uni01F2" unicode="&#x1f2;" horiz-adv-x="1977" 
d="M1221 0v228l359 834h-303v243h651v-223l-362 -838h362v-244h-707zM107 0v1800h376q180 0 296.5 -32.5t183 -107t92 -178.5t25.5 -265v-590q0 -96 -6 -167.5t-22.5 -140t-45 -116t-73.5 -88.5t-108.5 -65t-149 -37t-196.5 -13h-372zM485 255q52 0 82 1.5t60 7.5t44 16.5
t26 30.5t15.5 47.5t3.5 68.5v969q0 89 -53 118t-178 30v-1289z" />
    <glyph glyph-name="uni01F3" unicode="&#x1f3;" horiz-adv-x="1812" 
d="M1056 0v228l359 834h-303v243h651v-223l-362 -838h362v-244h-707zM79 250v771q0 124 78 219t193 95q63 0 119.5 -32.5t97.5 -85.5v583h337v-1800h-337v98q-40 -59 -100 -93t-127 -34q-111 0 -186 83.5t-75 195.5zM567 297v708q-57 75 -95 75q-56 0 -56 -86v-675
q0 -27 2.5 -44.5t16 -33.5t37.5 -16q43 0 95 72z" />
    <glyph glyph-name="uni01F4" unicode="&#x1f4;" horiz-adv-x="1238" 
d="M84 563v634q0 638 531 638q112 0 199.5 -29.5t146.5 -81.5t97 -128t55 -165t17 -196v-106h-348v126q0 47 -2.5 82.5t-12.5 79t-27 71.5t-49 47t-76 19q-167 0 -167 -266v-777q0 -265 167 -265q166 0 166 275v144h-206v261h570v-926h-250l-46 126q-46 -72 -131 -116.5
t-175 -44.5q-97 0 -176.5 35.5t-131 94t-86.5 137.5t-50 161.5t-15 169.5zM513 1937l136 442h345l-277 -442h-204z" />
    <glyph glyph-name="uni01F5" unicode="&#x1f5;" horiz-adv-x="965" 
d="M358 79h-24q-45 -71 -45 -125q0 -59 222 -59h6q114 -1 114 68q0 24 -13 43.5t-38.5 31.5t-50.5 20t-61 12t-57.5 6t-52.5 3zM462 632q82 0 82 232q0 238 -77 238q-19 0 -33.5 -10t-23 -30.5t-14 -42t-8 -54t-3 -56t-0.5 -58.5q0 -219 77 -219zM328 339q0 -24 34.5 -40
t89.5 -26.5t121.5 -21.5t133.5 -28.5t122 -42.5t89.5 -70t34.5 -105q0 -83 -24.5 -145.5t-65 -100t-100.5 -60.5t-122 -31.5t-138 -8.5q-481 0 -481 235q0 69 38 137.5t99 112.5q-41 21 -79 49.5t-38 54.5q0 57 133 226q-102 186 -102 374q0 96 22.5 180.5t68.5 154.5
t124.5 111t181.5 41q154 0 232 -83q73 83 245 83h42l-28 -241q-99 0 -143 -44q42 -75 42 -227q0 -89 -26.5 -169t-76 -142t-127 -98t-171.5 -36q-18 0 -45 4t-45 8l-18 3q-23 -45 -23 -54zM403 1437l136 442h345l-277 -442h-204z" />
    <glyph glyph-name="uni0200" unicode="&#x200;" horiz-adv-x="1135" 
d="M465 609h186l-91 668zM9 0l389 1800h322l388 -1800h-359l-74 385h-235l-70 -385h-361zM624 1937l-215 442h283l137 -442h-205zM306 1937l-215 442h285l137 -442h-207z" />
    <glyph glyph-name="uni0201" unicode="&#x201;" horiz-adv-x="976" 
d="M552 295v321q-166 -134 -166 -294q0 -40 15.5 -68.5t52.5 -28.5q21 0 41.5 13.5t29.5 23.5t27 33zM620 0l-33 135q-29 -91 -95 -127.5t-164 -36.5q-72 0 -126 28t-84.5 75.5t-45 102t-14.5 114.5q0 68 14 126t35.5 102.5t60 85.5t75 69.5t93.5 59t102 51t113 48.5v110
q0 69 -17 103t-58 34q-28 0 -45.5 -11.5t-24.5 -34.5t-9 -41.5t-2 -49.5v-74h-327q0 225 113 345.5t328 120.5q150 0 263 -109t113 -259v-620q0 -161 43 -347h-308zM550 1437l-215 442h283l137 -442h-205zM232 1437l-215 442h285l137 -442h-207z" />
    <glyph glyph-name="uni0202" unicode="&#x202;" horiz-adv-x="1135" 
d="M465 609h186l-91 668zM9 0l389 1800h322l388 -1800h-359l-74 385h-235l-70 -385h-361zM487 1937h-172q0 110 71 179t182 69t182 -69t71 -179h-172q0 28 -7 55t-26 49.5t-48 22.5t-48 -22.5t-26 -49.5t-7 -55z" />
    <glyph glyph-name="uni0203" unicode="&#x203;" horiz-adv-x="976" 
d="M552 295v321q-166 -134 -166 -294q0 -40 15.5 -68.5t52.5 -28.5q21 0 41.5 13.5t29.5 23.5t27 33zM620 0l-33 135q-29 -91 -95 -127.5t-164 -36.5q-72 0 -126 28t-84.5 75.5t-45 102t-14.5 114.5q0 68 14 126t35.5 102.5t60 85.5t75 69.5t93.5 59t102 51t113 48.5v110
q0 69 -17 103t-58 34q-28 0 -45.5 -11.5t-24.5 -34.5t-9 -41.5t-2 -49.5v-74h-327q0 225 113 345.5t328 120.5q150 0 263 -109t113 -259v-620q0 -161 43 -347h-308zM412 1437h-172q0 110 71 179t182 69t182 -69t71 -179h-172q0 28 -7 55t-26 49.5t-48 22.5t-48 -22.5
t-26 -49.5t-7 -55z" />
    <glyph glyph-name="uni0204" unicode="&#x204;" horiz-adv-x="889" 
d="M107 0v1800h751v-250h-387v-490h274v-256h-274v-554h387v-250h-751zM539 1937l-215 442h283l137 -442h-205zM221 1937l-215 442h285l137 -442h-207z" />
    <glyph glyph-name="uni0205" unicode="&#x205;" horiz-adv-x="940" 
d="M415 801h131v180q0 99 -67 99q-64 0 -64 -99v-180zM78 339v555q0 208 99 324.5t302 116.5q204 0 302.5 -116t98.5 -325v-270h-465v-289q0 -110 64 -110q70 0 70 118v143h331v-147q0 -163 -118 -265.5t-283 -102.5t-283 103t-118 265zM536 1437l-215 442h283l137 -442
h-205zM218 1437l-215 442h285l137 -442h-207z" />
    <glyph glyph-name="uni0206" unicode="&#x206;" horiz-adv-x="889" 
d="M107 0v1800h751v-250h-387v-490h274v-256h-274v-554h387v-250h-751zM401 1937h-172q0 110 71 179t182 69t182 -69t71 -179h-172q0 28 -7 55t-26 49.5t-48 22.5t-48 -22.5t-26 -49.5t-7 -55z" />
    <glyph glyph-name="uni0207" unicode="&#x207;" horiz-adv-x="940" 
d="M415 801h131v180q0 99 -67 99q-64 0 -64 -99v-180zM78 339v555q0 208 99 324.5t302 116.5q204 0 302.5 -116t98.5 -325v-270h-465v-289q0 -110 64 -110q70 0 70 118v143h331v-147q0 -163 -118 -265.5t-283 -102.5t-283 103t-118 265zM398 1437h-172q0 110 71 179t182 69
t182 -69t71 -179h-172q0 28 -7 55t-26 49.5t-48 22.5t-48 -22.5t-26 -49.5t-7 -55z" />
    <glyph glyph-name="uni0208" unicode="&#x208;" horiz-adv-x="578" 
d="M107 0v1800h364v-1800h-364zM346 1937l-215 442h283l137 -442h-205zM28 1937l-215 442h285l137 -442h-207z" />
    <glyph glyph-name="uni0209" unicode="&#x209;" horiz-adv-x="532" 
d="M124 0v1305h337v-1305h-337zM349 1436l-215 442h283l137 -442h-205zM31 1436l-215 442h285l137 -442h-207z" />
    <glyph glyph-name="uni020A" unicode="&#x20a;" horiz-adv-x="578" 
d="M107 0v1800h364v-1800h-364zM208 1937h-172q0 110 71 179t182 69t182 -69t71 -179h-172q0 28 -7 55t-26 49.5t-48 22.5t-48 -22.5t-26 -49.5t-7 -55z" />
    <glyph glyph-name="uni020B" unicode="&#x20b;" horiz-adv-x="529" 
d="M96 1419v315h337v-315h-337zM96 0v1305h337v-1305h-337z" />
    <glyph glyph-name="uni020C" unicode="&#x20c;" horiz-adv-x="1221" 
d="M84 592v605q0 638 526 638q527 0 527 -638v-596q0 -108 -16 -199.5t-54.5 -173.5t-98 -139.5t-150.5 -90.5t-208 -33q-116 0 -207 32.5t-150 88t-97.5 136t-55 171.5t-16.5 199zM773 510v778q0 266 -163 266q-49 0 -83 -24.5t-50 -67t-22.5 -84t-6.5 -90.5v-778
q0 -265 162 -265q163 0 163 265zM667 1937l-215 442h283l137 -442h-205zM349 1937l-215 442h285l137 -442h-207z" />
    <glyph glyph-name="uni020D" unicode="&#x20d;" horiz-adv-x="973" 
d="M561 335v646q0 99 -77 99q-69 0 -69 -99v-646q0 -22 1.5 -36.5t7.5 -34t21 -29.5t39 -10q77 0 77 110zM78 339v555q0 209 98.5 324.5t307.5 115.5t310 -115.5t101 -324.5v-555q0 -163 -121 -265.5t-290 -102.5q-109 0 -201 44.5t-148.5 130t-56.5 193.5zM543 1436
l-215 442h283l137 -442h-205zM225 1436l-215 442h285l137 -442h-207z" />
    <glyph glyph-name="uni020E" unicode="&#x20e;" horiz-adv-x="1221" 
d="M84 592v605q0 638 526 638q527 0 527 -638v-596q0 -108 -16 -199.5t-54.5 -173.5t-98 -139.5t-150.5 -90.5t-208 -33q-116 0 -207 32.5t-150 88t-97.5 136t-55 171.5t-16.5 199zM773 510v778q0 266 -163 266q-49 0 -83 -24.5t-50 -67t-22.5 -84t-6.5 -90.5v-778
q0 -265 162 -265q163 0 163 265zM531 1932h-172q0 110 71 179t182 69t182 -69t71 -179h-172q0 28 -7 55t-26 49.5t-48 22.5t-48 -22.5t-26 -49.5t-7 -55z" />
    <glyph glyph-name="uni020F" unicode="&#x20f;" horiz-adv-x="973" 
d="M561 335v646q0 99 -77 99q-69 0 -69 -99v-646q0 -22 1.5 -36.5t7.5 -34t21 -29.5t39 -10q77 0 77 110zM78 339v555q0 209 98.5 324.5t307.5 115.5t310 -115.5t101 -324.5v-555q0 -163 -121 -265.5t-290 -102.5q-109 0 -201 44.5t-148.5 130t-56.5 193.5zM418 1450h-172
q0 110 71 179t182 69t182 -69t71 -179h-172q0 28 -7 55t-26 49.5t-48 22.5t-48 -22.5t-26 -49.5t-7 -55z" />
    <glyph glyph-name="uni0210" unicode="&#x210;" horiz-adv-x="1134" 
d="M471 1051h104q42 0 72 28t43.5 71t19 79t5.5 68t-4.5 66t-16 75.5t-38 68t-64.5 26.5h-121v-482zM107 0v1800h396q135 0 237.5 -25.5t179.5 -80t117 -147t40 -221.5q0 -56 -4 -100t-18.5 -100.5t-39.5 -100t-72 -85.5t-111 -70q162 -514 282 -870h-377l-206 829h-60v-829
h-364zM603 1901l-215 442h283l137 -442h-205zM285 1901l-215 442h285l137 -442h-207z" />
    <glyph glyph-name="uni0211" unicode="&#x211;" horiz-adv-x="714" 
d="M94 0v1305h335v-106q77 125 180 125q29 0 91 -10v-284q-93 10 -131 10q-69 0 -104.5 -42.5t-35.5 -121.5v-876h-335zM529 1406l-215 442h283l137 -442h-205zM211 1406l-215 442h285l137 -442h-207z" />
    <glyph glyph-name="uni0212" unicode="&#x212;" horiz-adv-x="1134" 
d="M471 1051h104q42 0 72 28t43.5 71t19 79t5.5 68t-4.5 66t-16 75.5t-38 68t-64.5 26.5h-121v-482zM107 0v1800h396q135 0 237.5 -25.5t179.5 -80t117 -147t40 -221.5q0 -56 -4 -100t-18.5 -100.5t-39.5 -100t-72 -85.5t-111 -70q162 -514 282 -870h-377l-206 829h-60v-829
h-364zM423 1932h-172q0 110 71 179t182 69t182 -69t71 -179h-172q0 28 -7 55t-26 49.5t-48 22.5t-48 -22.5t-26 -49.5t-7 -55z" />
    <glyph glyph-name="uni0213" unicode="&#x213;" horiz-adv-x="714" 
d="M94 0v1305h335v-106q77 125 180 125q29 0 91 -10v-284q-93 10 -131 10q-69 0 -104.5 -42.5t-35.5 -121.5v-876h-335zM349 1437h-172q0 110 71 179t182 69t182 -69t71 -179h-172q0 28 -7 55t-26 49.5t-48 22.5t-48 -22.5t-26 -49.5t-7 -55z" />
    <glyph glyph-name="uni0214" unicode="&#x214;" 
d="M99 669v1131h364v-1120q0 -96 1 -139.5t5 -106t14 -87.5t27.5 -54t45.5 -38t68 -9t68 9t45.5 37.5t27.5 53.5t14 86.5t5 104t1 137.5v6v1120h364v-1131q0 -86 -5 -156t-19 -145t-38 -132.5t-64 -110t-94.5 -86.5t-131.5 -54t-173 -20t-173 20t-131 54t-94 86.5t-64 110
t-38.5 132.5t-19.5 145t-5 156zM727 1901l-215 442h283l137 -442h-205zM409 1901l-215 442h285l137 -442h-207z" />
    <glyph glyph-name="uni0215" unicode="&#x215;" horiz-adv-x="1006" 
d="M87 253v1052h337v-970q0 -110 46 -110q45 0 105 74v1006h337v-1305h-337v113q-51 -62 -119 -102t-138 -40q-103 0 -167 87.5t-64 194.5zM594 1405l-215 442h283l137 -442h-205zM276 1405l-215 442h285l137 -442h-207z" />
    <glyph glyph-name="uni0216" unicode="&#x216;" 
d="M99 669v1131h364v-1120q0 -96 1 -139.5t5 -106t14 -87.5t27.5 -54t45.5 -38t68 -9t68 9t45.5 37.5t27.5 53.5t14 86.5t5 104t1 137.5v6v1120h364v-1131q0 -86 -5 -156t-19 -145t-38 -132.5t-64 -110t-94.5 -86.5t-131.5 -54t-173 -20t-173 20t-131 54t-94 86.5t-64 110
t-38.5 132.5t-19.5 145t-5 156zM547 1932h-172q0 110 71 179t182 69t182 -69t71 -179h-172q0 28 -7 55t-26 49.5t-48 22.5t-48 -22.5t-26 -49.5t-7 -55z" />
    <glyph glyph-name="uni0217" unicode="&#x217;" horiz-adv-x="1006" 
d="M87 253v1052h337v-970q0 -110 46 -110q45 0 105 74v1006h337v-1305h-337v113q-51 -62 -119 -102t-138 -40q-103 0 -167 87.5t-64 194.5zM414 1436h-172q0 110 71 179t182 69t182 -69t71 -179h-172q0 28 -7 55t-26 49.5t-48 22.5t-48 -22.5t-26 -49.5t-7 -55z" />
    <glyph glyph-name="uni0218" unicode="&#x218;" horiz-adv-x="1073" 
d="M45 515l369 71q0 -55 2 -97t10.5 -91.5t23 -81t41 -53t62.5 -21.5q108 0 108 138q0 189 -213 376l-113 96q-54 45 -86 75t-75.5 81t-68 98.5t-42 114.5t-17.5 142q0 219 139 346.5t369 127.5q191 0 325 -136t134 -328l-1 -13v-30l-376 -52q0 11 1.5 34.5t1.5 38.5
q0 36 -5 69t-16.5 66t-35.5 52.5t-58 19.5q-60 0 -90 -47t-30 -111q0 -56 17.5 -105t53 -91.5t65.5 -70.5t80 -68.5t71 -59.5q77 -68 130 -127.5t100 -134.5t70.5 -162t23.5 -188q0 -189 -135 -309.5t-328 -120.5q-125 0 -222 46t-156.5 125t-91.5 175t-37 206zM449 -700
l-40 166h15q26 0 35.5 0.5t18.5 9t10.5 22.5t1.5 45h-110v318h323q0 -39 1 -114v-149t-10 -125t-31.5 -95t-63.5 -60.5t-106 -21.5q-16 0 -44 4z" />
    <glyph glyph-name="uni0219" unicode="&#x219;" horiz-adv-x="874" 
d="M38 315l258 92q10 -30 16 -46.5t20.5 -48t28 -48.5t35 -31.5t45.5 -14.5q63 0 63 74q0 27 -12.5 55.5t-26 49t-47 53.5t-51.5 49t-63 54l-55 47q-107 93 -168 183t-61 200q0 85 35.5 153.5t95.5 110.5t134.5 64.5t156.5 22.5q73 0 140 -31t117.5 -82.5t87.5 -116
t57 -135.5l-242 -83q-12 30 -20 49.5t-25.5 51t-34 50.5t-40.5 33.5t-50 14.5q-35 0 -54.5 -25t-19.5 -57q0 -44 48.5 -98.5t133.5 -125.5l62 -55q50 -45 86.5 -84.5t73 -89.5t56 -105t19.5 -110q0 -158 -111.5 -261t-269.5 -103q-153 0 -264 95t-154 249zM352 -692l-40 166
h15q26 0 35.5 0.5t18.5 9t10.5 22.5t1.5 45h-110v318h323q0 -39 1 -114v-149t-10 -125t-31.5 -95t-63.5 -60.5t-106 -21.5q-16 0 -44 4z" />
    <glyph glyph-name="uni021A" unicode="&#x21a;" horiz-adv-x="921" 
d="M278 0v1528h-264v272h887v-272h-259v-1528h-364zM367 -663l-40 166h15q26 0 35.5 0.5t18.5 9t10.5 22.5t1.5 45h-110v318h323q0 -39 1 -114v-149t-10 -125t-31.5 -95t-63.5 -60.5t-106 -21.5q-16 0 -44 4z" />
    <glyph glyph-name="uni021B" unicode="&#x21b;" horiz-adv-x="668" 
d="M117 448v632h-96v225h96v429h337v-429h162v-225h-162v-713q0 -54 20 -80.5t71 -26.5q58 0 98 6v-261q-66 -20 -213 -20q-59 0 -106.5 14t-80 37.5t-56 59.5t-37 73.5t-21 87.5t-10 93t-2.5 98zM279 -678l-40 166h15q26 0 35.5 0.5t18.5 9t10.5 22.5t1.5 45h-110v318h323
q0 -39 1 -114v-149t-10 -125t-31.5 -95t-63.5 -60.5t-106 -21.5q-16 0 -44 4z" />
    <glyph glyph-name="uni0237" unicode="&#x237;" horiz-adv-x="641" 
d="M48 -284v244q56 -16 88 -16q76 0 76 111v1250h335v-1279q0 -157 -82.5 -247t-237.5 -90q-75 0 -179 27z" />
    <glyph glyph-name="circumflex" unicode="&#x2c6;" horiz-adv-x="894" 
d="M107 1393l201 406h290l206 -406h-275l-75 202l-73 -202h-274z" />
    <glyph glyph-name="caron" unicode="&#x2c7;" horiz-adv-x="859" 
d="M281 1385l-201 406h274l73 -201l75 201h275l-206 -406h-290z" />
    <glyph glyph-name="breve" unicode="&#x2d8;" horiz-adv-x="728" 
d="M95 1686h172q0 -28 7 -55t26 -49.5t48 -22.5t48 22.5t26 49.5t7 55h172q0 -110 -71 -179t-182 -69t-182 69t-71 179z" />
    <glyph glyph-name="dotaccent" unicode="&#x2d9;" horiz-adv-x="579" 
d="M146 1499v318h323v-318h-323z" />
    <glyph glyph-name="ring" unicode="&#x2da;" horiz-adv-x="757" 
d="M119 1677q0 109 71.5 174t181.5 65t181.5 -65t71.5 -174t-71.5 -174t-181.5 -65t-181.5 65t-71.5 174zM372 1559q39 0 58.5 37t19.5 80t-19.5 81t-58.5 38q-40 0 -60.5 -37t-20.5 -80q0 -45 20 -82t61 -37z" />
    <glyph glyph-name="ogonek" unicode="&#x2db;" horiz-adv-x="575" 
d="M468 -358l-21 -160q-41 -3 -86.5 0t-89.5 7.5t-84.5 20.5t-71.5 39t-49 63.5t-18 92.5q0 78 44 164.5t107 146.5h148q-7 -20 -23 -61.5t-25 -66t-16.5 -61t-7.5 -68.5q0 -28 8 -49.5t25.5 -33.5t33 -19.5t43 -10.5t41.5 -3.5t42 -0.5z" />
    <glyph glyph-name="tilde" unicode="&#x2dc;" horiz-adv-x="900" 
d="M288 1430h-167q0 51 3.5 90t15.5 80t31.5 68t53.5 44t81 17q73 0 175.5 -29t125.5 -29q16 0 24.5 7.5t9.5 15t1 23.5h155q0 -298 -156 -298q-50 0 -153.5 36.5t-150.5 36.5q-15 0 -25 -4.5t-14.5 -8.5t-7 -16t-2.5 -15v-18z" />
    <glyph glyph-name="hungarumlaut" unicode="&#x2dd;" horiz-adv-x="984" 
d="M429 1405l137 442h285l-215 -442h-207zM113 1405l137 442h283l-215 -442h-205z" />
    <glyph glyph-name="uni030F" unicode="&#x30f;" horiz-adv-x="984" 
d="M646 1405l-215 442h283l137 -442h-205zM328 1405l-215 442h285l137 -442h-207z" />
    <glyph glyph-name="uni0311" unicode="&#x311;" horiz-adv-x="728" 
d="M267 1438h-172q0 110 71 179t182 69t182 -69t71 -179h-172q0 28 -7 55t-26 49.5t-48 22.5t-48 -22.5t-26 -49.5t-7 -55z" />
    <glyph glyph-name="uni0326" unicode="&#x326;" horiz-adv-x="506" 
d="M153 -639l-40 166h15q26 0 35.5 0.5t18.5 9t10.5 22.5t1.5 45h-110v318h323q0 -39 1 -114v-149t-10 -125t-31.5 -95t-63.5 -60.5t-106 -21.5q-16 0 -44 4z" />
    <glyph glyph-name="uni0394" unicode="&#x394;" horiz-adv-x="1054" 
d="M79 0l320 1643h258l320 -1643h-898zM376 192h303l-152 1067z" />
    <glyph glyph-name="uni03BC" unicode="&#x3bc;" horiz-adv-x="1083" 
d="M134 -179v1484h336v-1003q0 -83 46 -83q20 0 44 17t33.5 28.5l28.5 34.5v1006h335v-1305h-336v113q-68 -83 -152 -119v-173h-335z" />
    <glyph glyph-name="uni1E02" unicode="&#x1e02;" horiz-adv-x="1140" 
d="M431 1957v318h323v-318h-323zM471 257h34q71 0 115 16.5t67 56.5t30.5 90.5t7.5 135.5q0 141 -49.5 219t-168.5 78h-36v-596zM469 1092h62q50 0 84 19t51.5 55.5t24.5 78.5t7 99q0 45 -6.5 79t-14.5 56.5t-27 38t-33.5 23t-44 11t-47.5 4t-56 0.5v-464zM107 0v1800h371
q100 0 176.5 -10.5t150 -41t121 -81.5t76 -134.5t28.5 -197.5q0 -141 -66.5 -222t-206.5 -128q321 -78 321 -454q0 -271 -130 -401t-397 -130h-444z" />
    <glyph glyph-name="uni1E03" unicode="&#x1e03;" horiz-adv-x="999" 
d="M346 1922v318h323v-318h-323zM95 0v1800h337v-583q41 53 97.5 85.5t119.5 32.5q115 0 193 -95t78 -219v-771q0 -112 -75 -195.5t-186 -83.5q-67 0 -127 34t-100 93v-98h-337zM583 319v675q0 86 -56 86q-18 0 -39.5 -17t-29.5 -27t-26 -34v-696l6 -8q5 -8 7 -10t8 -10
t9 -11.5l9 -10.5t10.5 -10t10.5 -8t11.5 -7t11.5 -4t12 -2q24 0 37.5 16t16 33.5t2.5 44.5z" />
    <glyph glyph-name="uni1E0A" unicode="&#x1e0a;" horiz-adv-x="1164" 
d="M432 1957v318h323v-318h-323zM107 0v1800h376q180 0 296.5 -32.5t183 -107t92 -178.5t25.5 -265v-590q0 -96 -6 -167.5t-22.5 -140t-45 -116t-73.5 -88.5t-108.5 -65t-149 -37t-196.5 -13h-372zM485 255q52 0 82 1.5t60 7.5t44 16.5t26 30.5t15.5 47.5t3.5 68.5v969
q0 89 -53 118t-178 30v-1289z" />
    <glyph glyph-name="uni1E0B" unicode="&#x1e0b;" horiz-adv-x="999" 
d="M330 1922v318h323v-318h-323zM79 250v771q0 124 78 219t193 95q63 0 119.5 -32.5t97.5 -85.5v583h337v-1800h-337v98q-40 -59 -100 -93t-127 -34q-111 0 -186 83.5t-75 195.5zM567 297v708q-57 75 -95 75q-56 0 -56 -86v-675q0 -27 2.5 -44.5t16 -33.5t37.5 -16
q43 0 95 72z" />
    <glyph glyph-name="uni1E1E" unicode="&#x1e1e;" horiz-adv-x="856" 
d="M321 1957v318h323v-318h-323zM107 0v1800h751v-250h-387v-490h274v-256h-274v-804h-364z" />
    <glyph glyph-name="uni1E1F" unicode="&#x1e1f;" horiz-adv-x="647" 
d="M193 1857v318h323v-318h-323zM141 0v1080h-76v225h76v2q1 60 5 106t14.5 98t31 89.5t51.5 69.5t79 48.5t110 16.5q42 0 95 -3.5t85 -7.5l32 -3v-252q-69 6 -88 6q-42 0 -60 -23.5t-18 -85.5v-61h163v-225h-163v-1080h-337z" />
    <glyph glyph-name="uni1E40" unicode="&#x1e40;" horiz-adv-x="1470" 
d="M574 1957v318h323v-318h-323zM107 0v1800h436l192 -1200l207 1200h421v-1800h-268l-8 1266q-30 -195 -105 -633t-105 -633h-272l-221 1274l-8 -1274h-269z" />
    <glyph glyph-name="uni1E41" unicode="&#x1e41;" horiz-adv-x="1473" 
d="M578 1457v318h323v-318h-323zM94 0v1305h337v-93q47 55 112 89t134 34q65 0 120 -42t83 -105q49 66 120.5 106.5t151.5 40.5q69 0 124 -44t82.5 -108.5t27.5 -131.5v-1051h-337v984q0 18 -1 29.5t-5 29.5t-15 27.5t-28 9.5q-36 0 -92 -74v-1006h-337v986q0 94 -46 94
q-38 0 -95 -75v-1005h-336z" />
    <glyph glyph-name="uni1E56" unicode="&#x1e56;" horiz-adv-x="1022" 
d="M388 1957v318h323v-318h-323zM474 1027q29 0 51.5 3.5t39.5 8t30 16.5t21.5 21t14.5 29.5t9 33.5t4.5 42t1.5 46.5v54.5v15q0 39 -0.5 59t-3.5 51t-9.5 46.5t-19 35.5t-30.5 29t-45.5 16t-63.5 7v-514zM107 0v1800h435q235 0 342 -131t107 -379q0 -122 -23.5 -212
t-65.5 -148.5t-108 -94t-143 -50t-178 -15.5v-770h-366z" />
    <glyph glyph-name="uni1E57" unicode="&#x1e57;" horiz-adv-x="999" 
d="M346 1457v318h323v-318h-323zM95 -371v1676h337v-88q41 53 97.5 85.5t119.5 32.5q115 0 193 -95t78 -219v-771q0 -112 -75 -195.5t-186 -83.5q-67 0 -127 34t-100 93v-469h-337zM583 319v675q0 86 -56 86q-38 0 -95 -75v-708q52 -72 95 -72q24 0 37.5 16t16 33.5
t2.5 44.5z" />
    <glyph glyph-name="uni1E60" unicode="&#x1e60;" horiz-adv-x="1053" 
d="M368 1959v318h323v-318h-323zM45 515l369 71q0 -55 2 -97t10.5 -91.5t23 -81t41 -53t62.5 -21.5q108 0 108 138q0 189 -213 376l-113 96q-54 45 -86 75t-75.5 81t-68 98.5t-42 114.5t-17.5 142q0 219 139 346.5t369 127.5q191 0 325 -136t134 -328l-1 -13v-30l-376 -52
q0 11 1.5 34.5t1.5 38.5q0 36 -5 69t-16.5 66t-35.5 52.5t-58 19.5q-60 0 -90 -47t-30 -111q0 -56 17.5 -105t53 -91.5t65.5 -70.5t80 -68.5t71 -59.5q77 -68 130 -127.5t100 -134.5t70.5 -162t23.5 -188q0 -189 -135 -309.5t-328 -120.5q-125 0 -222 46t-156.5 125
t-91.5 175t-37 206z" />
    <glyph glyph-name="uni1E61" unicode="&#x1e61;" horiz-adv-x="867" 
d="M270 1456v318h323v-318h-323zM38 315l258 92q10 -30 16 -46.5t20.5 -48t28 -48.5t35 -31.5t45.5 -14.5q63 0 63 74q0 27 -12.5 55.5t-26 49t-47 53.5t-51.5 49t-63 54l-55 47q-107 93 -168 183t-61 200q0 85 35.5 153.5t95.5 110.5t134.5 64.5t156.5 22.5q73 0 140 -31
t117.5 -82.5t87.5 -116t57 -135.5l-242 -83q-12 30 -20 49.5t-25.5 51t-34 50.5t-40.5 33.5t-50 14.5q-35 0 -54.5 -25t-19.5 -57q0 -44 48.5 -98.5t133.5 -125.5l62 -55q50 -45 86.5 -84.5t73 -89.5t56 -105t19.5 -110q0 -158 -111.5 -261t-269.5 -103q-153 0 -264 95
t-154 249z" />
    <glyph glyph-name="uni1E6A" unicode="&#x1e6a;" horiz-adv-x="915" 
d="M296 1957v318h323v-318h-323zM278 0v1528h-264v272h887v-272h-259v-1528h-364z" />
    <glyph glyph-name="uni1E6B" unicode="&#x1e6b;" horiz-adv-x="668" 
d="M170 1856v318h323v-318h-323zM117 448v632h-96v225h96v429h337v-429h162v-225h-162v-713q0 -54 20 -80.5t71 -26.5q58 0 98 6v-261q-66 -20 -213 -20q-59 0 -106.5 14t-80 37.5t-56 59.5t-37 73.5t-21 87.5t-10 93t-2.5 98z" />
    <glyph glyph-name="Wgrave" unicode="&#x1e80;" horiz-adv-x="1486" 
d="M270 0l-249 1800h310l112 -1192l154 1192h267l151 -1185l117 1185h311l-252 -1800h-311l-151 1178l-148 -1178h-311zM641 1937l-277 442h346l136 -442h-205z" />
    <glyph glyph-name="wgrave" unicode="&#x1e81;" horiz-adv-x="1273" 
d="M218 0l-191 1305h281l104 -805l108 805h254l98 -821l114 821h260l-193 -1305h-290l-123 771l-132 -771h-290zM534 1436l-277 442h346l136 -442h-205z" />
    <glyph glyph-name="Wacute" unicode="&#x1e82;" horiz-adv-x="1486" 
d="M270 0l-249 1800h310l112 -1192l154 1192h267l151 -1185l117 1185h311l-252 -1800h-311l-151 1178l-148 -1178h-311zM641 1937l136 442h345l-277 -442h-204z" />
    <glyph glyph-name="wacute" unicode="&#x1e83;" horiz-adv-x="1273" 
d="M218 0l-191 1305h281l104 -805l108 805h254l98 -821l114 821h260l-193 -1305h-290l-123 771l-132 -771h-290zM535 1436l136 442h345l-277 -442h-204z" />
    <glyph glyph-name="Wdieresis" unicode="&#x1e84;" horiz-adv-x="1486" 
d="M270 0l-249 1800h310l112 -1192l154 1192h267l151 -1185l117 1185h311l-252 -1800h-311l-151 1178l-148 -1178h-311zM817 1937v308h304v-308h-304zM364 1937v308h303v-308h-303z" />
    <glyph glyph-name="wdieresis" unicode="&#x1e85;" horiz-adv-x="1273" 
d="M218 0l-191 1305h281l104 -805l108 805h254l98 -821l114 821h260l-193 -1305h-290l-123 771l-132 -771h-290zM711 1436v308h304v-308h-304zM258 1436v308h303v-308h-303z" />
    <glyph glyph-name="Ygrave" unicode="&#x1ef2;" horiz-adv-x="1035" 
d="M337 0v595l-338 1205h343l168 -791q31 130 93 395.5t92 395.5h333l-339 -1205v-595h-352zM415 1937l-277 442h346l136 -442h-205z" />
    <glyph glyph-name="ygrave" unicode="&#x1ef3;" horiz-adv-x="872" 
d="M337 1456l-277 442h346l136 -442h-205zM270 117q0 131 -53 381.5t-123 514.5t-76 292h307l121 -728l106 728h309l-285 -1340q-15 -68 -46 -118.5t-70.5 -80t-95 -47.5t-110 -24t-124.5 -6h-43v233q100 2 141.5 47.5t41.5 147.5z" />
    <glyph glyph-name="endash" unicode="&#x2013;" horiz-adv-x="528" 
d="M4 453v223h517v-223h-517z" />
    <glyph glyph-name="emdash" unicode="&#x2014;" horiz-adv-x="827" 
d="M4 453v223h817v-223h-817z" />
    <glyph glyph-name="quoteleft" unicode="&#x2018;" horiz-adv-x="562" 
d="M426 1281h-297q0 27 -2 79.5t-3 90.5t1.5 91t9.5 90.5t23 78t40.5 66t64 41.5t91.5 16l83 -169q-33 1 -61.5 -5.5t-52.5 -27.5t-25 -54h128v-297z" />
    <glyph glyph-name="quoteright" unicode="&#x2019;" horiz-adv-x="562" 
d="M199 1281l-84 169q55 -1 96.5 18.5t44.5 68.5h-128v297h296q0 -27 2 -79.5t3 -90.5t-1.5 -91t-9.5 -90.5t-23 -78t-40.5 -66t-64 -41.5t-91.5 -16z" />
    <glyph glyph-name="quotesinglbase" unicode="&#x201a;" horiz-adv-x="429" 
d="M127 -321l-70 424h304l-71 -424h-163z" />
    <glyph glyph-name="quotedblleft" unicode="&#x201c;" horiz-adv-x="962" 
d="M814 1281h-297q0 27 -2 80t-3 91t1.5 90.5t9.5 90t23.5 78.5t41 66t64 41t91.5 16l82 -169q-54 1 -95 -19t-44 -68h128v-297zM429 1281h-297q0 27 -2 80t-3 91t1.5 90.5t9.5 90t23.5 78.5t41 66t64 41t91.5 16l83 -169q-34 1 -62.5 -5.5t-52 -27t-25.5 -54.5h128v-297z
" />
    <glyph glyph-name="quotedblright" unicode="&#x201d;" horiz-adv-x="962" 
d="M587 1281l-84 169q55 -1 96.5 18.5t44.5 68.5h-128v297h297q0 -27 2 -80t3 -91t-1.5 -90.5t-9.5 -90t-23.5 -78.5t-41 -66t-64 -41t-91.5 -16zM203 1281l-84 169q33 -1 61.5 5t53 27t25.5 55h-128v297h297q0 -27 2 -79.5t3 -90.5t-1.5 -91t-9.5 -90.5t-23 -78t-40.5 -66
t-64 -41.5t-91.5 -16z" />
    <glyph glyph-name="quotedblbase" unicode="&#x201e;" horiz-adv-x="762" 
d="M454 -320l-71 424h305l-72 -424h-162zM130 -320l-70 424h304l-71 -424h-163z" />
    <glyph glyph-name="dagger" unicode="&#x2020;" horiz-adv-x="798" 
d="M271 0v944h-192v256h192v336h256v-336h192v-256h-192v-944h-256z" />
    <glyph glyph-name="daggerdbl" unicode="&#x2021;" horiz-adv-x="798" 
d="M271 0v448h-192v256h192v320h-192v256h192v256h256v-256h192v-256h-192v-320h192v-256h-192v-448h-256z" />
    <glyph glyph-name="bullet" unicode="&#x2022;" horiz-adv-x="990" 
d="M494 335q-72 0 -137.5 24.5t-119 71t-85 121t-31.5 166.5q0 93 32 168.5t85 122t119 71.5t137 25q72 0 138 -25t119.5 -71.5t85.5 -122t32 -168.5q0 -92 -32 -166.5t-85.5 -121t-119.5 -71t-138 -24.5z" />
    <glyph glyph-name="ellipsis" unicode="&#x2026;" horiz-adv-x="1566" 
d="M1143 0v317h325v-317h-325zM621 0v317h325v-317h-325zM99 0v317h325v-317h-325z" />
    <glyph glyph-name="guilsinglleft" unicode="&#x2039;" horiz-adv-x="618" 
d="M527 64l-448 512v128l448 512v-320l-256 -255l256 -257v-320z" />
    <glyph glyph-name="guilsinglright" unicode="&#x203a;" horiz-adv-x="600" 
d="M79 64v320l256 257l-256 255v320l448 -512v-128z" />
    <glyph glyph-name="fraction" unicode="&#x2044;" horiz-adv-x="618" 
d="M29 0l257 1801h199l-260 -1801h-196z" />
    <glyph glyph-name="uni2074" unicode="&#x2074;" horiz-adv-x="829" 
d="M302 1000h93v184zM71 842v148l351 593h195v-583h130v-158h-130v-259h-222v259h-324z" />
    <glyph glyph-name="Euro" unicode="&#x20ac;" horiz-adv-x="1040" 
d="M7 514v196h69v127h-69v197h72v7q5 94 18 168.5t43.5 146.5t77.5 120t122 77.5t174 29.5t175.5 -29t124.5 -78t79 -120.5t43.5 -148.5t13.5 -170v-6h-282v7q0 35 -2.5 67t-12 74.5t-24.5 72.5t-43.5 51.5t-66.5 21.5q-32 0 -57.5 -9.5t-42 -22.5t-28 -37.5t-17 -43.5
t-9 -52.5t-4 -52t-0.5 -54.5v-13v-6h199v-197h-199v-127h199v-196h-196v-5q2 -34 3 -52t5.5 -51.5t11 -53t18.5 -44.5t28 -38.5t40.5 -23.5t55.5 -10q151 0 151 334v6h278v-8q0 -97 -10.5 -176.5t-39.5 -160t-75.5 -135t-125.5 -89t-183 -34.5q-124 0 -211 40.5
t-135.5 116.5t-70.5 166.5t-27 209.5v8h-70z" />
    <glyph glyph-name="trademark" unicode="&#x2122;" horiz-adv-x="2234" 
d="M756 686v832h242l104 -453l107 453h242v-832h-160v555l-137 -555h-103l-137 555v-555h-158zM330 686v678h-163v154h497v-154h-164v-678h-170z" />
    <glyph glyph-name="product" unicode="&#x220f;" horiz-adv-x="1246" 
d="M143 0v1792h960v-1792h-256v1600h-448v-1600h-256z" />
    <glyph glyph-name="minus" unicode="&#x2212;" horiz-adv-x="895" 
d="M137 531v223h610v-223h-610z" />
    <glyph glyph-name="uni2215" unicode="&#x2215;" horiz-adv-x="618" 
d="M29 0l257 1801h199l-260 -1801h-196z" />
    <glyph glyph-name="uni2219" unicode="&#x2219;" horiz-adv-x="579" 
d="M146 1499v318h323v-318h-323z" />
    <glyph glyph-name="integral" unicode="&#x222b;" horiz-adv-x="734" 
d="M15 -244v190q62 -10 86 -10q28 0 48 9t31 22.5t17.5 36t8 43t1.5 49.5v1248q0 55 0.5 83t6 76t16 74t31.5 59.5t51.5 50t77 29t107.5 12.5q62 0 158 -12v-190q-13 1 -44 5.5t-42 4.5q-28 0 -48 -9t-31 -22.5t-17.5 -36t-8 -43t-1.5 -49.5v-1248q0 -55 -0.5 -83t-6 -76
t-16 -74t-31.5 -59.5t-51.5 -50t-77 -29t-107.5 -12.5q-62 0 -158 12z" />
    <glyph glyph-name="glyph418" horiz-adv-x="1620" 
d="M346 277l168 542l-459 338l572 11l178 542l188 -542h572l-461 -349l170 -542l-469 327z" />
    <glyph glyph-name="glyph419" horiz-adv-x="1263" 
d="M117 448v632h-96v225h96v429h336v-429h266v429h336v-429h163v-225h-163v-713q0 -54 20.5 -80.5t71.5 -26.5q58 0 98 6v-261q-66 -20 -213 -20q-59 0 -106.5 14t-80 37.5t-56 59.5t-37 73.5t-21 87.5t-10 93t-2.5 98v632h-266v-713q0 -54 20.5 -80.5t71.5 -26.5q58 0 98 6
v-261q-66 -20 -213 -20q-59 0 -106.5 14t-80 37.5t-56 59.5t-37 73.5t-21 87.5t-10 93t-2.5 98z" />
    <glyph glyph-name="glyph420" horiz-adv-x="1977" 
d="M920 0v1800h376q180 0 296.5 -32.5t183 -107t92 -178.5t25.5 -265v-590q0 -96 -6 -167.5t-22.5 -140t-45 -116t-73.5 -88.5t-108.5 -65t-149 -37t-196.5 -13h-372zM1298 255q52 0 82 1.5t60 7.5t44 16.5t26 30.5t15.5 47.5t3.5 68.5v969q0 89 -53 118t-178 30v-1289z
M57 0v228l359 834h-303v243h651v-223l-362 -838h362v-244h-707z" />
    <glyph glyph-name="glyph421" horiz-adv-x="1073" 
d="M45 515l369 71q0 -55 2 -97t10.5 -91.5t23 -81t41 -53t62.5 -21.5q108 0 108 138q0 189 -213 376l-113 96q-54 45 -86 75t-75.5 81t-68 98.5t-42 114.5t-17.5 142q0 219 139 346.5t369 127.5q191 0 325 -136t134 -328l-1 -13v-30l-376 -52q0 11 1.5 34.5t1.5 38.5
q0 36 -5 69t-16.5 66t-35.5 52.5t-58 19.5q-60 0 -90 -47t-30 -111q0 -56 17.5 -105t53 -91.5t65.5 -70.5t80 -68.5t71 -59.5q77 -68 130 -127.5t100 -134.5t70.5 -162t23.5 -188q0 -189 -135 -309.5t-328 -120.5q-125 0 -222 46t-156.5 125t-91.5 175t-37 206zM425 -639
l-40 166h15q26 0 35.5 0.5t18.5 9t10.5 22.5t1.5 45h-110v318h323q0 -39 1 -114v-149t-10 -125t-31.5 -95t-63.5 -60.5t-106 -21.5q-16 0 -44 4z" />
    <glyph glyph-name="glyph422" horiz-adv-x="921" 
d="M278 0v1528h-264v272h887v-272h-259v-1528h-364zM358 -639l-40 166h15q26 0 35.5 0.5t18.5 9t10.5 22.5t1.5 45h-110v318h323q5 -130 0.5 -234t-23.5 -176.5t-75.5 -111.5t-155.5 -39zM451 0z" />
    <glyph glyph-name="glyph423" horiz-adv-x="506" 
d="M153 -639l-40 166h15q26 0 35.5 0.5t18.5 9t10.5 22.5t1.5 45h-110v318h323q5 -130 0.5 -234t-23.5 -176.5t-75.5 -111.5t-155.5 -39zM246 0z" />
    <glyph glyph-name="glyph424" horiz-adv-x="874" 
d="M38 315l258 92q10 -30 16 -46.5t20.5 -48t28 -48.5t35 -31.5t45.5 -14.5q63 0 63 74q0 27 -12.5 55.5t-26 49t-47 53.5t-51.5 49t-63 54l-55 47q-107 93 -168 183t-61 200q0 85 35.5 153.5t95.5 110.5t134.5 64.5t156.5 22.5q73 0 140 -31t117.5 -82.5t87.5 -116
t57 -135.5l-242 -83q-12 30 -20 49.5t-25.5 51t-34 50.5t-40.5 33.5t-50 14.5q-35 0 -54.5 -25t-19.5 -57q0 -44 48.5 -98.5t133.5 -125.5l62 -55q50 -45 86.5 -84.5t73 -89.5t56 -105t19.5 -110q0 -158 -111.5 -261t-269.5 -103q-153 0 -264 95t-154 249zM377 -642l-40 166
h15q26 0 35.5 0.5t18.5 9t10.5 22.5t1.5 45h-110v318h323q0 -39 1 -114v-149t-10 -125t-31.5 -95t-63.5 -60.5t-106 -21.5q-16 0 -44 4z" />
    <glyph glyph-name="glyph425" horiz-adv-x="668" 
d="M117 448v632h-96v225h96v429h337v-429h162v-225h-162v-713q0 -54 20 -80.5t71 -26.5q58 0 98 6v-261q-66 -20 -213 -20q-59 0 -106.5 14t-80 37.5t-56 59.5t-37 73.5t-21 87.5t-10 93t-2.5 98zM344 -639l-40 166h15q26 0 35.5 0.5t18.5 9t10.5 22.5t1.5 45h-110v318h323
q5 -130 0.5 -234t-23.5 -176.5t-75.5 -111.5t-155.5 -39zM437 0z" />
    </font>
</defs>
</svg>
